<svg width="96" height="20" viewBox="0 0 96 20" fill="none" xmlns="http://www.w3.org/2000/svg">
<path d="M23.2448 1.01152C26.5703 1.40954 28.633 2.08947 31.0283 4.10449C33.1331 5.87504 34.9815 7.75406 37.3453 9.29424C41.8639 12.2385 48.1405 15.1552 53.9869 14.8958C59.8959 14.6335 65.4076 12.2424 70.6213 10.0918C73.4764 8.91421 76.3632 7.76827 79.2498 6.64595C80.6826 6.08885 82.0779 5.47042 83.4963 4.88813C84.8156 4.34653 86.7709 3.97635 87.793 3.11069C85.5987 2.33887 82.1296 2.56584 79.735 2.24275C78.3565 2.05674 73.3539 0.861613 77.2621 0.174209C79.6861 -0.252093 83.0304 0.212453 85.5802 0.418398C88.3447 0.641789 91.2013 0.758716 93.9603 1.0792C97.3768 1.47608 95.6303 3.10788 94.9076 5.11639C94.0927 7.38098 93.5532 10.6904 91.9939 12.6635C90.1381 15.0118 87.836 13.1222 88.5465 10.8494C88.9483 9.56433 89.801 8.22654 90.4361 7.00533C90.709 6.48069 91.9648 4.87122 91.713 4.25907C82.6019 7.56297 75.0131 13.2297 65.9065 16.5744C61.7748 18.0919 56.8223 19.238 52.2758 18.993C47.8659 18.7555 43.534 17.0084 39.7667 15.0961C35.367 12.8627 32.0745 10.1651 28.7049 6.93556C25.6492 4.00714 22.4043 3.34172 17.9965 4.48241C13.7946 5.56984 10.0344 7.89906 6.73568 10.2896C5.31274 11.3207 2.50335 13.0859 2.12585 14.7039C2.04073 15.0691 2.53734 15.5927 2.2563 15.8967C1.73255 16.463 0.732423 15.6445 0.447605 15.3056C-2.10935 12.2635 7.02517 6.85996 9.24944 5.47892C12.8936 3.21618 18.5084 0.645146 23.2448 1.01152C23.9635 1.09756 22.6539 0.965794 23.2448 1.01152Z" fill="#F89DA8"/>
</svg>
