<svg width="67" height="72" viewBox="0 0 67 72" fill="none" xmlns="http://www.w3.org/2000/svg">
<path d="M0.989693 65.366C-0.465035 67.0285 -0.296565 69.5556 1.36598 71.0103C3.02853 72.465 5.55558 72.2966 7.01031 70.634L0.989693 65.366ZM63.9911 3.73392C63.8442 1.52968 61.9382 -0.138089 59.7339 0.00885982L23.8137 2.40355C21.6094 2.55049 19.9416 4.45652 20.0886 6.66076C20.2355 8.86501 22.1416 10.5328 24.3458 10.3858L56.2749 8.25722L58.4035 40.1863C58.5505 42.3906 60.4565 44.0584 62.6608 43.9114C64.865 43.7645 66.5328 41.8584 66.3858 39.6542L63.9911 3.73392ZM7.01031 70.634L63.0103 6.63402L56.9897 1.36598L0.989693 65.366L7.01031 70.634Z" fill="#686DFA"/>
</svg>
