<svg width="238" height="94" viewBox="0 0 238 94" fill="none" xmlns="http://www.w3.org/2000/svg">
<path d="M221.412 1.22462C227.985 3.15073 229.747 6.11834 229.089 10.3196C228.699 12.7635 228.014 15.2656 226.872 17.5262C219.405 31.8735 208.608 43.6091 195.172 53.6388C184.464 61.6639 173.209 62.2214 161.124 58.8231C154.833 57.0308 148.47 55.3947 142.909 51.849C138.804 49.2004 133.853 48.2335 128.78 47.9532C125.111 47.7757 121.472 47.4973 117.834 47.2189C103.24 46.1607 89.2964 48.6676 75.8955 54.7133C66.2089 59.0812 56.3879 63.2862 46.6251 67.5271C44.5059 68.4649 42.2791 69.3765 42.199 72.6118C46.6575 74.1965 51.1026 75.4525 56.2776 73.9134C60.1487 72.7729 64.2037 72.3065 68.0126 73.9717C70.0783 74.8436 72.2785 75.8784 72.5164 78.3883C72.7183 80.195 70.2811 81.8582 66.5128 82.2209C58.5731 82.9783 50.7277 84.9954 42.6309 84.1739C40.0724 83.9198 37.2811 84.5637 34.7137 85.3056C27.5852 87.3237 20.1201 85.8098 13.0096 87.9191C10.6394 88.6222 7.50694 85.9716 7.75748 83.6024C8.28548 79.0006 8.31607 74.2127 11.0262 70.0338C16.7109 61.1979 22.3955 52.362 28.4296 43.7414C29.5092 42.2033 32.211 41.6243 35.3248 40.0174C34.1565 47.3491 31.6348 53.006 28.8308 58.5291C27.5362 61.0564 26.1431 63.6031 25.0727 66.2284C24.6606 67.2564 24.961 68.5229 24.9209 69.6198C28.4384 71.1056 30.7277 68.9507 32.4167 67.3874C41.0542 59.2488 52.4482 56.0126 62.9009 51.1152C64.1196 50.544 65.4817 50.1813 66.4494 49.3754C72.8917 43.6099 81.3601 42.4171 89.3175 40.1885C90.917 39.7318 92.7004 39.949 94.273 39.3555C113.019 32.6368 130.378 36.5599 147.303 43.7405C152.107 45.7781 156.951 47.7604 161.441 50.2859C173.347 56.9389 187.12 52.0036 195.448 44.636C200.6 40.1187 205.3 35.1223 209.834 30.0638C213.274 26.2146 216.571 22.157 219.138 17.7696C221.947 13.0505 223.545 7.90664 221.412 1.22462Z" fill="#F89DA8"/>
</svg>
