<svg width="284" height="287" viewBox="0 0 284 287" fill="none" xmlns="http://www.w3.org/2000/svg">
<g id="Arrow_07" clip-path="url(#clip0_192_1071)">
<g id="Group">
<path id="Vector" fill-rule="evenodd" clip-rule="evenodd" d="M72.4228 135.614C73.7974 134.232 74.975 133.034 75.5941 132.398C79.3527 128.518 89.8052 120.002 95.1545 111.624C99.2377 105.234 100.371 98.9036 95.2283 94.2222C90.5538 89.9673 83.2841 90.4589 75.1856 94.0082C57.7561 101.647 36.2005 123.097 31.2854 131.245C30.7492 132.135 31.0083 133.276 31.8672 133.798C32.7221 134.318 33.8502 134.022 34.3863 133.132C39.1049 125.315 59.8208 104.759 76.5533 97.4252C83.0938 94.5596 88.9741 93.5963 92.7496 97.0344C96.4773 100.426 95.0646 105.018 92.1044 109.651C86.9 117.806 76.6855 126.04 73.0238 129.816C70.7295 132.185 61.736 140.973 61.1381 141.91C60.3887 143.083 61.0158 143.943 61.2428 144.209C61.4185 144.415 62.3611 145.384 63.7702 144.444C83.8691 131.052 123.43 124.422 157.912 131.746C192.091 139.005 221.341 160.082 221.145 202.444C221.142 203.472 221.959 204.288 222.967 204.267C223.977 204.241 224.801 203.387 224.804 202.358C225.008 157.973 194.562 135.7 158.756 128.095C128.579 121.685 94.6375 125.774 72.4228 135.614Z" fill="#F89DA8"/>
<path id="Vector_2" fill-rule="evenodd" clip-rule="evenodd" d="M222.692 200.208C219.982 196.865 217.39 193.446 214.418 190.322C206.5 182.001 196.496 175.111 185.531 171.634C184.571 171.332 183.534 171.885 183.209 172.866C182.886 173.853 183.4 174.894 184.354 175.198C194.763 178.492 204.243 185.06 211.754 192.956C215.155 196.532 218.053 200.506 221.21 204.297C221.37 204.484 222.691 206.175 223.068 206.451C223.943 207.099 224.727 206.787 225.073 206.596C225.364 206.439 225.677 206.182 225.925 205.745C226.127 205.386 226.355 204.617 226.447 203.528C226.752 200.041 226.319 191.836 226.389 190.478C227.18 174.907 230.479 160.483 233.582 145.221C233.785 144.207 233.15 143.235 232.162 143.053C231.174 142.87 230.207 143.547 230 144.558C226.857 160.014 223.535 174.624 222.737 190.384C222.686 191.318 222.685 196.496 222.692 200.208Z" fill="#F89DA8"/>
</g>
</g>
<defs>
<clipPath id="clip0_192_1071">
<rect width="207" height="214" fill="white" transform="translate(100.806 0.69017) rotate(28.0367)"/>
</clipPath>
</defs>
</svg>
