<svg width="109" height="109" viewBox="0 0 109 109" fill="none" xmlns="http://www.w3.org/2000/svg">
<path d="M59.3803 34.4572C49.1012 36.4906 30.9358 44.1447 37.1702 57.766C40.5622 65.1764 47.7605 69.0625 55.41 65.3359C64.2149 61.0467 63.1401 46.6605 63.5357 38.7188C61.0157 38.7188 58.4957 38.7188 55.9757 38.7188C56.9661 47.6577 62.7306 71.6235 76.0312 67.4799C84.8486 64.7331 86.9213 52.9756 85.2859 45.3228C82.9234 34.27 73.0361 26.783 62.912 23.3604C41.1733 16.0103 21.9192 35.3489 21.3938 56.3995C20.8117 79.6996 50.1608 95.2137 69.5384 83.1071C73.6573 80.5336 69.866 74.0111 65.7231 76.5998C51.2495 85.643 30.7228 74.7459 29.0218 58.1629C27.404 42.3964 41.6483 26.9739 57.5948 29.7736C65.2897 31.125 71.6224 35.4293 75.7502 41.9769C78.7301 46.7044 80.6037 58.1629 73.2503 60.4539C68.7257 61.8631 63.8671 41.7056 63.5357 38.7188C63.0091 33.9673 56.2214 33.7739 55.9757 38.7188C55.6872 44.524 56.2277 51.5878 53.491 56.8856C50.181 63.2949 42.5819 56.2978 43.7613 51.2587C45.17 45.2374 56.3449 42.7229 61.3912 41.7244C66.1691 40.7786 64.1405 33.5152 59.3803 34.4572Z" fill="#6D5DC9"/>
<path d="M48.6701 1.17329C22.2592 6.8793 -1.63922 30.2623 0.0882429 58.5172C1.89886 88.1199 30.768 103.374 57.078 107.621C87.0421 112.456 107.212 79.407 108.356 53.1428C108.981 38.7993 102.609 25.0461 92.5962 15.027C87.5511 9.97911 81.3066 5.96242 74.718 3.26579C71.3614 1.89173 67.5575 1.57019 63.9828 1.19465C62.4872 1.03765 60.9664 0.940934 59.4645 0.84171C58.682 0.790214 54.2153 0.11951 55.183 0.88567C51.4093 -2.10487 46.0215 3.19043 49.8381 6.21362C52.542 8.35761 56.1494 8.17926 59.4657 8.37771C66.5923 8.80349 72.5156 10.0005 78.6883 13.6893C90.2186 20.5823 97.8756 32.0131 100.315 45.0956C102.596 57.3316 98.372 70.1088 92.1325 80.506C84.8875 92.5787 74.6626 101.632 59.9307 100.444C48.5441 99.5269 35.6328 94.0331 25.8918 88.3058C15.3494 82.1074 8.90824 70.4882 7.6495 58.516C5.03248 33.6145 28.1888 13.3 50.6785 8.44051C55.4426 7.41059 53.4228 0.147142 48.6701 1.17329Z" fill="#6D5DC9"/>
</svg>
