<svg width="66" height="65" viewBox="0 0 66 65" fill="none" xmlns="http://www.w3.org/2000/svg">
<g clip-path="url(#clip0_192_1015)">
<path d="M63.1706 1.51709C61.2605 -0.364328 58.2419 -0.513993 56.1494 1.16939L37.6822 16.0259H6.45121C3.6048 16.0259 1.28906 18.3059 1.28906 21.1084V51.7504C1.28906 54.5529 3.6048 56.8329 6.45121 56.8329H21.1221V61.1916H17.8703C16.8026 61.1916 15.9369 62.0441 15.9369 63.0957C15.9369 64.1473 16.8026 64.9999 17.8703 64.9999H38.5598C39.6275 64.9999 40.4932 64.1473 40.4932 63.0957C40.4932 62.0441 39.6275 61.1916 38.5598 61.1916H35.308V56.8329H49.9789C52.8254 56.8329 55.1412 54.5529 55.1412 51.7504V18.5485L63.5253 8.42976C65.2327 6.36935 65.0802 3.39749 63.1706 1.51709ZM36.4366 23.6471C36.496 22.4997 37.0269 21.4682 37.9338 20.7408L41.1507 18.1528L46.2868 23.2111L43.653 26.3899C42.9154 27.2778 41.8685 27.7984 40.7052 27.8555C39.5407 27.9134 38.4472 27.4976 37.6236 26.6864C36.7987 25.874 36.377 24.7946 36.4366 23.6471ZM34.884 35.9329C34.0273 36.7767 32.6003 37.1651 30.6431 37.0878C29.1598 37.0291 27.8894 37.1318 26.813 37.3228C27.0068 36.2628 27.1111 35.0109 27.0516 33.5507C26.9729 31.6231 27.3675 30.2179 28.2243 29.3742C29.1136 28.4983 30.2963 28.0157 31.5542 28.0157C32.812 28.0157 33.9945 28.4981 34.8839 29.3742C36.72 31.1825 36.72 34.1246 34.884 35.9329ZM31.4411 61.1917H24.989V56.833H31.4411V61.1917ZM51.2743 51.7504C51.2743 52.453 50.6932 53.0246 49.9789 53.0246H6.45121C5.73699 53.0246 5.15593 52.453 5.15593 51.7504V50.1257H51.2743V51.7504ZM51.2743 46.3175H5.15593V21.1084C5.15593 20.4058 5.73699 19.8342 6.45121 19.8342H33.6969C33.0353 20.9219 32.6416 22.1628 32.5748 23.453C32.5606 23.726 32.5613 23.9983 32.5762 24.2688C32.2394 24.2297 31.8986 24.2073 31.5543 24.2073C29.2635 24.2073 27.1098 25.0859 25.4901 26.6812C23.8387 28.3075 23.0643 30.6701 23.1881 33.7035C23.3528 37.7411 21.9936 39.3618 21.8876 39.4816C21.1641 40.2274 21.1746 41.4096 21.9189 42.1428C22.2965 42.5146 22.7913 42.7006 23.2861 42.7006C23.7669 42.7006 24.2478 42.525 24.621 42.1739C24.742 42.0701 26.388 40.7311 30.4881 40.8931C33.5691 41.0152 35.9672 40.2523 37.6186 38.6259C39.548 36.7255 40.3616 34.1378 40.0644 31.6558C40.2105 31.6638 40.3571 31.6689 40.5042 31.6689C40.6352 31.6689 40.7667 31.6657 40.8982 31.6593C43.1339 31.5493 45.229 30.5076 46.6477 28.7995L51.2746 23.2155V46.3175H51.2743ZM24.6531 42.1429C24.6531 42.1429 24.6435 42.1535 24.6232 42.1719C24.6332 42.1624 24.6432 42.1527 24.6531 42.1429ZM21.9188 39.45C21.9089 39.4598 21.8992 39.4695 21.8896 39.4793C21.9082 39.4594 21.9188 39.45 21.9188 39.45ZM60.5293 6.02216L48.7439 20.2456L44.1604 15.7316L58.5956 4.11878C58.8507 3.91351 59.1583 3.81221 59.465 3.81221C59.8174 3.81221 60.1684 3.94614 60.4362 4.20993C60.937 4.70297 60.9769 5.48202 60.5293 6.02216Z" fill="#6D5DC9"/>
</g>
<defs>
<clipPath id="clip0_192_1015">
<rect width="66" height="65" fill="white"/>
</clipPath>
</defs>
</svg>
