<svg width="512" height="512" viewBox="0 0 512 512" fill="none" xmlns="http://www.w3.org/2000/svg">
<g clip-path="url(#clip0_393_244)">
<path d="M145 150.531C161.587 150.531 175.081 137.036 175.081 120.449C175.081 103.862 161.587 90.3669 145 90.3669C128.413 90.3669 114.917 103.862 114.917 120.449C114.917 137.036 128.413 150.531 145 150.531ZM145 110.367C150.559 110.367 155.081 114.889 155.081 120.449C155.081 126.009 150.558 130.531 145 130.531C139.44 130.531 134.917 126.009 134.917 120.449C134.917 114.89 139.44 110.367 145 110.367Z" fill="#6D5DC9"/>
<path d="M349 148C350.692 148 352.384 147.571 353.908 146.713L424.908 106.713C428.054 104.94 430 101.61 430 97.9999C430 94.3899 428.054 91.0599 424.908 89.2869L353.908 49.2869C350.812 47.5429 347.023 47.5729 343.954 49.3659C340.886 51.1589 339 54.4459 339 57.9999V138C339 143.531 343.492 148 349 148ZM359 75.1109L399.627 97.9999L359 120.889V75.1109Z" fill="#6D5DC9"/>
<path d="M465.853 50.204H458.375C440.999 20.216 408.552 0 371.469 0C334.387 0 301.94 20.216 284.563 50.204H46.147C20.702 50.204 0 70.906 0 96.352V355.405C0 380.85 20.702 401.552 46.147 401.552H213.666L184.931 451.838H180.692C153.032 451.838 130.53 474.341 130.53 502.001C130.53 507.523 135.007 512.001 140.53 512.001C143.973 512.001 373.037 512.001 371.488 512.001C377.288 512.001 381.872 507.084 381.463 501.289C381.08 473.956 358.727 451.838 331.305 451.838H327.067L298.332 401.552H465.852C491.297 401.552 511.999 380.851 511.999 355.405V96.352C512 70.906 491.298 50.204 465.853 50.204ZM371.469 20C415.784 20 451.837 56.053 451.837 100.367C451.837 144.681 415.784 180.734 371.469 180.734C327.155 180.734 291.102 144.681 291.102 100.367C291.102 56.053 327.155 20 371.469 20ZM46.147 70.204H275.736C272.728 79.728 271.102 89.861 271.102 100.367C271.102 155.71 316.126 200.734 371.469 200.734C426.812 200.734 471.837 155.71 471.837 100.367C471.837 89.875 470.215 79.754 467.215 70.239C481.002 70.95 492 82.391 492 96.352V301.225H20V96.352C20 81.934 31.729 70.204 46.147 70.204ZM359.766 492H152.234C156.368 480.268 167.564 471.837 180.693 471.837C197.309 471.838 315.006 471.84 331.306 471.837C344.435 471.837 355.631 480.268 359.766 492ZM304.034 451.837H207.967L236.702 401.551H275.3L304.034 451.837ZM465.853 381.551H46.147C31.73 381.551 20 369.821 20 355.404V321.224H492V355.404C492 369.821 480.27 381.551 465.853 381.551Z" fill="#6D5DC9"/>
<path d="M301.184 341.388H210.817C205.294 341.388 200.817 345.866 200.817 351.388C200.817 356.91 205.294 361.388 210.817 361.388H301.184C306.707 361.388 311.184 356.91 311.184 351.388C311.184 345.866 306.706 341.388 301.184 341.388Z" fill="#6D5DC9"/>
<path d="M461.84 361.39C467.363 361.39 471.84 356.913 471.84 351.39C471.84 345.867 467.363 341.39 461.84 341.39C456.317 341.39 451.84 345.867 451.84 351.39C451.84 356.913 456.317 361.39 461.84 361.39Z" fill="#6D5DC9"/>
<path d="M421.67 361.39C427.193 361.39 431.67 356.913 431.67 351.39C431.67 345.867 427.193 341.39 421.67 341.39C416.147 341.39 411.67 345.867 411.67 351.39C411.67 356.913 416.147 361.39 421.67 361.39Z" fill="#6D5DC9"/>
<path d="M70.245 281.06H441.755C458.342 281.06 471.837 267.566 471.837 250.979C471.837 234.392 458.342 220.898 441.755 220.898H158.916C172.851 185.048 200.437 156.338 236.209 141.008C241.286 138.832 243.637 132.954 241.461 127.877C239.286 122.801 233.407 120.447 228.331 122.625C191.297 138.496 161.958 166.952 145 202.663C128.04 166.952 98.701 138.495 61.668 122.625C56.591 120.448 50.713 122.802 48.538 127.877C46.362 132.954 48.714 138.832 53.79 141.008C89.562 156.338 117.148 185.048 131.084 220.898H70.244C53.657 220.898 40.163 234.392 40.163 250.979C40.163 267.566 53.658 281.06 70.245 281.06ZM70.245 240.898C192.566 240.903 220.22 240.9 441.755 240.898C447.314 240.898 451.837 245.42 451.837 250.979C451.837 256.538 447.314 261.06 441.755 261.06H70.245C64.686 261.06 60.164 256.538 60.164 250.979C60.163 245.421 64.686 240.898 70.245 240.898Z" fill="#6D5DC9"/>
</g>
<defs>
<clipPath id="clip0_393_244">
<rect width="512" height="512" fill="white"/>
</clipPath>
</defs>
</svg>
