<svg width="59" height="55" viewBox="0 0 59 55" fill="none" xmlns="http://www.w3.org/2000/svg">
<g clip-path="url(#clip0_192_1024)">
<path d="M53.8145 0H5.18555C2.32624 0 0 2.16853 0 4.83398V50.166C0 52.8315 2.32624 55 5.18555 55H53.8145C56.6738 55 59 52.8315 59 50.166V4.83398C59 2.16853 56.6738 0 53.8145 0ZM55.543 50.166C55.543 51.0545 54.7676 51.7773 53.8145 51.7773H5.18555C4.23244 51.7773 3.45703 51.0545 3.45703 50.166V16.1133H55.543V50.166ZM55.543 12.8906H3.45703V4.83398C3.45703 3.9455 4.23244 3.22266 5.18555 3.22266H53.8145C54.7676 3.22266 55.543 3.9455 55.543 4.83398V12.8906Z" fill="#6D5DC9"/>
<path d="M14.6593 33.9454L20.3511 28.6395C21.0261 28.0102 21.0261 26.9899 20.3511 26.3606C19.6762 25.7314 18.5817 25.7314 17.9066 26.3606L10.9925 32.8059C10.3175 33.4352 10.3175 34.4554 10.9925 35.0847L17.9066 41.53C18.5815 42.1592 19.676 42.1593 20.3511 41.53C21.0261 40.9007 21.0261 39.8805 20.3511 39.2513L14.6593 33.9454Z" fill="#6D5DC9"/>
<path d="M48.0074 32.8059L41.0933 26.3606C40.4183 25.7314 39.3238 25.7314 38.6488 26.3606C37.9738 26.9899 37.9738 28.0101 38.6488 28.6394L44.3407 33.9454L38.6489 39.2513C37.9739 39.8805 37.9739 40.9007 38.6489 41.53C39.3238 42.1592 40.4183 42.1593 41.0934 41.53L48.0074 35.0847C48.6825 34.4554 48.6825 33.4352 48.0074 32.8059Z" fill="#6D5DC9"/>
<path d="M33.5037 22.7487C32.5977 22.4671 31.6192 22.9236 31.3173 23.7678L24.4032 43.1037C24.1013 43.948 24.5908 44.8605 25.4964 45.142C26.4023 45.4234 27.3811 44.967 27.6829 44.1229L34.5969 24.7869C34.8987 23.9426 34.4093 23.03 33.5037 22.7487Z" fill="#6D5DC9"/>
<path d="M12.2148 6.44531H8.75781C7.80321 6.44531 7.0293 7.16676 7.0293 8.05664C7.0293 8.94652 7.80321 9.66797 8.75781 9.66797H12.2148C13.1694 9.66797 13.9434 8.94652 13.9434 8.05664C13.9434 7.16676 13.1694 6.44531 12.2148 6.44531Z" fill="#6D5DC9"/>
<path d="M22.5859 6.44531H19.1289C18.1743 6.44531 17.4004 7.16676 17.4004 8.05664C17.4004 8.94652 18.1743 9.66797 19.1289 9.66797H22.5859C23.5405 9.66797 24.3145 8.94652 24.3145 8.05664C24.3145 7.16676 23.5405 6.44531 22.5859 6.44531Z" fill="#6D5DC9"/>
<path d="M32.957 6.44531H29.5C28.5454 6.44531 27.7715 7.16676 27.7715 8.05664C27.7715 8.94652 28.5454 9.66797 29.5 9.66797H32.957C33.9116 9.66797 34.6855 8.94652 34.6855 8.05664C34.6855 7.16676 33.9116 6.44531 32.957 6.44531Z" fill="#6D5DC9"/>
</g>
<defs>
<clipPath id="clip0_192_1024">
<rect width="59" height="55" fill="white"/>
</clipPath>
</defs>
</svg>
