<svg width="65" height="65" viewBox="0 0 65 65" fill="none" xmlns="http://www.w3.org/2000/svg">
<g clip-path="url(#clip0_192_1012)">
<path d="M46.8558 34.217L48.3285 32.7934C48.3289 32.7929 48.3294 32.7925 48.3299 32.792C48.3304 32.7915 48.3308 32.7911 48.3313 32.7906L53.5264 27.7687C53.5267 27.7683 53.527 27.7681 53.5274 27.7679C53.5277 27.7676 53.528 27.7673 53.5282 27.767L58.7243 22.7441C58.7244 22.744 58.7245 22.7438 58.7246 22.7437C58.7248 22.7436 58.7249 22.7435 58.725 22.7434L61.5791 19.9844C62.4954 19.0988 63 17.9211 63 16.6686C63 15.416 62.4953 14.2383 61.5791 13.3528L53.3249 5.37364C52.4087 4.48801 51.1904 4.0001 49.8947 4.0001C48.5988 4.0001 47.3807 4.48789 46.4645 5.37364L31.7411 19.6061L21.7474 9.94544C20.0745 8.32824 17.9777 7.17708 15.6838 6.61645L5.18871 4.05187C4.58871 3.90517 3.95262 4.07453 3.51492 4.49786C3.07711 4.92097 2.90191 5.53552 3.05367 6.11574L5.7068 16.261C6.28664 18.4784 7.4775 20.5053 9.15047 22.1225L19.1442 31.783L4.42078 46.0155C3.50461 46.9013 3 48.0789 3 49.3314C3 50.5841 3.50461 51.7615 4.4209 52.6471L12.6752 60.6263C13.5915 61.5122 14.8097 62 16.1055 62C17.4013 62 18.6195 61.5122 19.5356 60.6264L27.5837 52.8467C27.585 52.8456 27.5862 52.8444 27.5875 52.8432C27.5888 52.8421 27.5899 52.8409 27.5911 52.8396L34.2589 46.394L47.7941 59.4781C49.5306 61.1567 51.8115 61.9961 54.0926 61.9961C56.3736 61.9961 58.6546 61.1568 60.3911 59.4781C63.8641 56.1209 63.8641 50.6583 60.3911 47.3011L46.8558 34.217ZM9.11508 15.4281L7.1843 8.04492L14.8221 9.91146C16.5015 10.3218 18.0366 11.1646 19.2614 12.3486L20.6473 13.6883L13.0221 21.0592L11.6362 19.7196C10.4114 18.5354 9.53965 17.0516 9.11508 15.4281ZM15.508 23.4622L23.1332 16.0912L29.2552 22.0091L21.63 29.3801L15.508 23.4622ZM16.1055 58.6015C15.7488 58.6015 15.4136 58.4672 15.1613 58.2234L6.9068 50.2442C6.65461 50.0004 6.51574 49.6762 6.51574 49.3314C6.51574 48.9866 6.65461 48.6624 6.9068 48.4185L48.9503 7.77656C49.2025 7.53278 49.538 7.39843 49.8947 7.39843C50.2514 7.39843 50.5867 7.53278 50.839 7.77656L59.0933 15.7559C59.3455 15.9995 59.4845 16.3237 59.4845 16.6686C59.4845 17.0134 59.3455 17.3376 59.0933 17.5815L57.4819 19.1392L52.1197 13.9557C51.4335 13.2921 50.3204 13.2921 49.6338 13.9557C48.9473 14.6192 48.9473 15.6951 49.6338 16.3587L54.996 21.5423L52.2845 24.1634L49.521 21.4921C48.8346 20.8284 47.7216 20.8286 47.0351 21.4921C46.3486 22.1557 46.3486 23.2315 47.0351 23.8951L49.7986 26.5664L47.0871 29.1875L41.725 24.004C41.0385 23.3404 39.9255 23.3404 39.2391 24.004C38.5526 24.6675 38.5526 25.7434 39.2391 26.407L44.6012 31.5904L41.8897 34.2115L39.1262 31.5402C38.4398 30.8768 37.3268 30.8768 36.6403 31.5402C35.9538 32.2037 35.9538 33.2797 36.6403 33.9433L39.4037 36.6146L36.7392 39.1902L31.3771 34.0068C30.6906 33.3432 29.5777 33.3432 28.8912 34.0068C28.2047 34.6703 28.2047 35.7463 28.8912 36.4099L34.2533 41.5933L31.5418 44.2144L28.7784 41.5431C28.0921 40.8796 26.979 40.8796 26.2925 41.5431C25.6061 42.2066 25.6061 43.2825 26.2925 43.9461L29.0559 46.6174L26.3445 49.2385L20.9824 44.0552C20.2961 43.3917 19.183 43.3917 18.4965 44.0552C17.81 44.7187 17.81 45.7947 18.4965 46.4583L23.8586 51.6415L21.1471 54.2626L18.3837 51.5914C17.6973 50.9279 16.5843 50.9279 15.8978 51.5914C15.2113 52.2549 15.2113 53.3308 15.8978 53.9944L18.6612 56.6657L17.0497 58.2234C16.7975 58.4673 16.4621 58.6015 16.1055 58.6015ZM37.9751 42.8018C37.9775 42.7995 37.9799 42.7972 37.9823 42.7948C37.9848 42.7925 37.9871 42.7902 37.9895 42.7878L43.1307 37.818C43.1314 37.8173 43.1321 37.8167 43.1327 37.816C43.1333 37.8153 43.134 37.8148 43.1347 37.8141L44.37 36.62L51.8187 43.8204L44.1935 51.1914L36.7448 43.991L37.9751 42.8018ZM57.9052 57.075C55.8029 59.1071 52.3822 59.1071 50.28 57.075L46.6794 53.5943L54.3046 46.2233L57.9053 49.7039C60.0075 51.7363 60.0075 55.0428 57.9052 57.075Z" fill="#6D5DC9"/>
</g>
<defs>
<clipPath id="clip0_192_1012">
<rect width="60" height="58" fill="white" transform="translate(3 4)"/>
</clipPath>
</defs>
</svg>
