<svg width="65" height="65" viewBox="0 0 65 65" fill="none" xmlns="http://www.w3.org/2000/svg">
<path d="M58.2535 57.9367L52.9723 52.6392C54.2155 50.0409 54.4999 47.0867 53.7753 44.2989C53.0507 41.5112 51.3636 39.0694 49.0125 37.4054C46.6613 35.7414 43.7975 34.9624 40.9275 35.2061C38.0574 35.4497 35.3659 36.7004 33.3289 38.7369C31.2919 40.7734 30.0406 43.4646 29.7963 46.3346C29.552 49.2046 30.3303 52.0686 31.9938 54.4201C33.6572 56.7717 36.0985 58.4593 38.8861 59.1846C41.6737 59.9099 44.628 59.6261 47.2266 58.3835L52.5227 63.6648C52.8991 64.0414 53.346 64.3403 53.8378 64.5442C54.3297 64.7481 54.8569 64.8532 55.3894 64.8534C55.9219 64.8536 56.4492 64.7489 56.9412 64.5453C57.4332 64.3417 57.8803 64.0432 58.2569 63.6668C58.6336 63.2904 58.9324 62.8436 59.1363 62.3517C59.3403 61.8598 59.4454 61.3326 59.4455 60.8001C59.4457 60.2677 59.341 59.7404 59.1374 59.2484C58.9339 58.7563 58.6353 58.3092 58.259 57.9326L58.2535 57.9367ZM35.276 54.099C33.9505 52.7732 33.0477 51.0842 32.6821 49.2455C32.3164 47.4067 32.5042 45.5008 33.2217 43.7688C33.9391 42.0367 35.1541 40.5563 36.7129 39.5148C38.2717 38.4733 40.1044 37.9173 41.9792 37.9173C43.8539 37.9173 45.6866 38.4733 47.2454 39.5148C48.8042 40.5563 50.0192 42.0367 50.7367 43.7688C51.4542 45.5008 51.6419 47.4067 51.2763 49.2455C50.9106 51.0842 50.0079 52.7732 48.6823 54.099C46.9033 55.8745 44.4926 56.8718 41.9792 56.8718C39.4657 56.8718 37.055 55.8745 35.276 54.099ZM56.3333 61.75C56.0798 62.0006 55.7378 62.1411 55.3814 62.1411C55.0249 62.1411 54.6829 62.0006 54.4294 61.75L49.5801 56.9116C50.2915 56.3514 50.9342 55.7091 51.4949 54.9981L56.3333 59.8542C56.4589 59.9789 56.5585 60.1272 56.6265 60.2906C56.6945 60.454 56.7295 60.6292 56.7295 60.8061C56.7295 60.9831 56.6945 61.1583 56.6265 61.3217C56.5585 61.4851 56.4589 61.6334 56.3333 61.7581V61.75Z" fill="#6D5DC9"/>
<path d="M33.8542 59.5833H16.25C15.1726 59.5833 14.1393 59.1553 13.3774 58.3935C12.6155 57.6316 12.1875 56.5983 12.1875 55.5208V9.47918C12.1875 8.40173 12.6155 7.36842 13.3774 6.60655C14.1393 5.84469 15.1726 5.41668 16.25 5.41668H39.7854C40.0677 5.4174 40.3491 5.44781 40.625 5.5074V13.5417C40.625 14.6191 41.053 15.6524 41.8149 16.4143C42.5768 17.1762 43.6101 17.6042 44.6875 17.6042H52.7082C52.7751 17.8933 52.8101 18.189 52.8125 18.4857V36.5625C52.8125 36.9217 52.9552 37.2661 53.2091 37.5201C53.4631 37.774 53.8075 37.9167 54.1667 37.9167C54.5258 37.9167 54.8703 37.774 55.1242 37.5201C55.3782 37.2661 55.5208 36.9217 55.5208 36.5625V18.4857C55.5227 17.5991 55.3494 16.7207 55.0111 15.9011C54.6728 15.0815 54.176 14.3368 53.5492 13.7096L44.5846 4.70303C43.957 4.06873 43.2095 3.56568 42.3855 3.22322C41.5616 2.88076 40.6777 2.70573 39.7854 2.70834H16.25C14.4549 2.71049 12.734 3.42454 11.4647 4.69385C10.1954 5.96316 9.48132 7.6841 9.47917 9.47918V55.5208C9.48132 57.3159 10.1954 59.0369 11.4647 60.3062C12.734 61.5755 14.4549 62.2895 16.25 62.2917H33.8542C34.2133 62.2917 34.5578 62.149 34.8117 61.8951C35.0657 61.6411 35.2083 61.2967 35.2083 60.9375C35.2083 60.5784 35.0657 60.2339 34.8117 59.98C34.5578 59.726 34.2133 59.5833 33.8542 59.5833ZM50.9086 14.8958H44.6875C44.3284 14.8958 43.9839 14.7532 43.73 14.4992C43.476 14.2453 43.3333 13.9008 43.3333 13.5417V7.28543L50.9086 14.8958Z" fill="#6D5DC9"/>
<path d="M18.9583 17.6041H33.8542C34.2133 17.6041 34.5578 17.4615 34.8117 17.2075C35.0657 16.9536 35.2083 16.6091 35.2083 16.25C35.2083 15.8908 35.0657 15.5464 34.8117 15.2924C34.5578 15.0385 34.2133 14.8958 33.8542 14.8958H18.9583C18.5992 14.8958 18.2548 15.0385 18.0008 15.2924C17.7468 15.5464 17.6042 15.8908 17.6042 16.25C17.6042 16.6091 17.7468 16.9536 18.0008 17.2075C18.2548 17.4615 18.5992 17.6041 18.9583 17.6041Z" fill="#6D5DC9"/>
<path d="M46.0417 23.0208H23.0208C22.6617 23.0208 22.3173 23.1635 22.0633 23.4174C21.8093 23.6714 21.6667 24.0158 21.6667 24.375C21.6667 24.7341 21.8093 25.0786 22.0633 25.3325C22.3173 25.5865 22.6617 25.7291 23.0208 25.7291H46.0417C46.4008 25.7291 46.7453 25.5865 46.9992 25.3325C47.2532 25.0786 47.3958 24.7341 47.3958 24.375C47.3958 24.0158 47.2532 23.6714 46.9992 23.4174C46.7453 23.1635 46.4008 23.0208 46.0417 23.0208Z" fill="#6D5DC9"/>
<path d="M47.3958 31.1459C47.3958 30.7867 47.2532 30.4423 46.9992 30.1883C46.7453 29.9344 46.4008 29.7917 46.0417 29.7917H18.9583C18.5992 29.7917 18.2548 29.9344 18.0008 30.1883C17.7468 30.4423 17.6042 30.7867 17.6042 31.1459C17.6042 31.505 17.7468 31.8494 18.0008 32.1034C18.2548 32.3574 18.5992 32.5 18.9583 32.5H46.0417C46.4008 32.5 46.7453 32.3574 46.9992 32.1034C47.2532 31.8494 47.3958 31.505 47.3958 31.1459Z" fill="#6D5DC9"/>
<path d="M28.4375 37.9167C28.4375 37.5575 28.2948 37.2131 28.0409 36.9591C27.7869 36.7052 27.4425 36.5625 27.0833 36.5625H18.9583C18.5992 36.5625 18.2548 36.7052 18.0008 36.9591C17.7468 37.2131 17.6042 37.5575 17.6042 37.9167C17.6042 38.2758 17.7468 38.6203 18.0008 38.8742C18.2548 39.1282 18.5992 39.2708 18.9583 39.2708H27.0833C27.4425 39.2708 27.7869 39.1282 28.0409 38.8742C28.2948 38.6203 28.4375 38.2758 28.4375 37.9167Z" fill="#6D5DC9"/>
<path d="M18.9583 46.0417H24.375C24.7342 46.0417 25.0786 45.899 25.3325 45.6451C25.5865 45.3911 25.7292 45.0467 25.7292 44.6875C25.7292 44.3284 25.5865 43.984 25.3325 43.73C25.0786 43.476 24.7342 43.3334 24.375 43.3334H18.9583C18.5992 43.3334 18.2548 43.476 18.0008 43.73C17.7468 43.984 17.6042 44.3284 17.6042 44.6875C17.6042 45.0467 17.7468 45.3911 18.0008 45.6451C18.2548 45.899 18.5992 46.0417 18.9583 46.0417Z" fill="#6D5DC9"/>
<path d="M18.9583 52.8125H25.7292C26.0883 52.8125 26.4328 52.6699 26.6867 52.4159C26.9407 52.1619 27.0833 51.8175 27.0833 51.4584C27.0833 51.0992 26.9407 50.7548 26.6867 50.5008C26.4328 50.2469 26.0883 50.1042 25.7292 50.1042H18.9583C18.5992 50.1042 18.2548 50.2469 18.0008 50.5008C17.7468 50.7548 17.6042 51.0992 17.6042 51.4584C17.6042 51.8175 17.7468 52.1619 18.0008 52.4159C18.2548 52.6699 18.5992 52.8125 18.9583 52.8125Z" fill="#6D5DC9"/>
<path d="M41.9792 51.4584C40.9017 51.4584 39.8684 51.0303 39.1066 50.2685C38.3447 49.5066 37.9167 48.4733 37.9167 47.3959C37.9167 47.0367 37.774 46.6923 37.5201 46.4383C37.2661 46.1844 36.9217 46.0417 36.5625 46.0417C36.2034 46.0417 35.8589 46.1844 35.605 46.4383C35.351 46.6923 35.2083 47.0367 35.2083 47.3959C35.2105 49.1909 35.9245 50.9119 37.1938 52.1812C38.4632 53.4505 40.1841 54.1645 41.9792 54.1667C42.3383 54.1667 42.6828 54.024 42.9367 53.7701C43.1907 53.5161 43.3333 53.1717 43.3333 52.8125C43.3333 52.4534 43.1907 52.1089 42.9367 51.855C42.6828 51.601 42.3383 51.4584 41.9792 51.4584Z" fill="#6D5DC9"/>
</svg>
