<svg width="64" height="63" viewBox="0 0 64 63" fill="none" xmlns="http://www.w3.org/2000/svg">
<g id="Capa_1" clip-path="url(#clip0_192_1046)">
<g id="Group">
<g id="Group_2">
<path id="Vector" d="M58.3749 0C55.4541 0 53.0469 2.2029 52.776 5.00948L40.398 8.03113C38.4362 3.32398 33.7304 0 28.2499 0C23.1252 0 18.6777 2.90661 16.5177 7.13277L11.2474 5.42906C11.1885 2.42574 8.68986 0 5.62499 0C2.5235 0 0 2.48394 0 5.5371C0 8.59026 2.52337 11.0742 5.62499 11.0742C7.42761 11.0742 9.03373 10.2342 10.0639 8.93196L15.3306 10.6344C15.1956 11.3764 15.125 12.1402 15.125 12.9199C15.125 15.7719 16.0836 18.4675 17.7422 20.6533L11.9237 26.381C11.1895 26.0343 10.3675 25.8398 9.49998 25.8398C6.39836 25.8398 3.87499 28.3237 3.87499 31.3769C3.87499 34.43 6.39836 36.914 9.49998 36.914C12.6016 36.914 15.125 34.43 15.125 31.3769C15.125 30.5231 14.9273 29.714 14.5752 28.9911L20.3907 23.2665C21.082 23.7767 21.8293 24.2221 22.625 24.5938V34.1812L16.321 39.1458C14.2653 40.7645 13.6266 43.6207 14.8002 45.9395L21.7805 59.9275C21.7825 59.9315 21.7843 59.9353 21.7863 59.9392C22.7455 61.827 24.6735 62.9999 26.8177 62.9999L48.0115 63C50.5202 63 52.6884 61.4062 53.4069 59.0341C54.5153 55.3746 56.3749 47.8744 56.3749 38.7597C56.3749 35.7065 53.8515 33.2226 50.7499 33.2226C50.0184 33.2226 49.3192 33.3608 48.6775 33.6119C48.0263 31.2631 45.8398 29.5312 43.2499 29.5312C42.5184 29.5312 41.8192 29.6694 41.1775 29.9205C40.5263 27.5717 38.3398 25.8398 35.7499 25.8398C35.0927 25.8398 34.4618 25.9524 33.8749 26.1573V24.5937C35.9751 23.6124 37.7381 22.1134 39.0259 20.2872L45.1693 23.3108C45.1412 23.535 45.1249 23.7626 45.1249 23.9941C45.1249 27.0473 47.6483 29.5312 50.7499 29.5312C53.8515 29.5312 56.3749 27.0473 56.3749 23.9941C56.3749 20.9409 53.8515 18.457 50.7499 18.457C49.2362 18.457 47.8612 19.0497 46.8489 20.0105L40.7044 16.9862C41.1402 15.6969 41.3749 14.3277 41.3749 12.9199C41.3749 12.4785 41.3522 12.0423 41.308 11.6123L53.6856 8.59062C54.6941 10.086 56.4191 11.0742 58.3749 11.0742C61.4765 11.0742 63.9999 8.59026 63.9999 5.5371C63.9999 2.48394 61.4765 0 58.3749 0ZM5.62499 7.3828C4.59112 7.3828 3.74999 6.55482 3.74999 5.5371C3.74999 4.51938 4.59112 3.6914 5.62499 3.6914C6.65886 3.6914 7.49999 4.51938 7.49999 5.5371C7.49999 6.55482 6.65886 7.3828 5.62499 7.3828ZM9.49998 33.2226C8.46611 33.2226 7.62499 32.3946 7.62499 31.3769C7.62499 30.3592 8.46611 29.5312 9.49998 29.5312C10.5339 29.5312 11.375 30.3592 11.375 31.3769C11.375 32.3946 10.5339 33.2226 9.49998 33.2226ZM35.7499 29.5312C36.7838 29.5312 37.6249 30.3592 37.6249 31.3769V38.7597C37.6249 39.779 38.4644 40.6054 39.4999 40.6054C40.5354 40.6054 41.3749 39.779 41.3749 38.7597V35.0683C41.3749 34.0506 42.216 33.2226 43.2499 33.2226C44.2838 33.2226 45.1249 34.0506 45.1249 35.0683V38.7597C45.1249 39.7809 45.9709 40.6054 46.9999 40.6054C48.0277 40.6054 48.8749 39.7839 48.8749 38.7597C48.8749 37.742 49.716 36.914 50.7499 36.914C51.7838 36.914 52.6249 37.742 52.6249 38.7597C52.6249 47.7284 50.6585 55.1883 49.813 57.9793C49.5722 58.7743 48.8482 59.3086 48.0113 59.3086L26.8177 59.3085C26.1046 59.3085 25.4633 58.9194 25.1428 58.2926L18.1637 44.3069C18.1617 44.3029 18.1598 44.2991 18.1578 44.2952C17.765 43.5217 17.9777 42.5684 18.6636 42.0282L22.625 38.9086V42.4511C22.625 43.4704 23.4645 44.2968 24.5 44.2968C25.5355 44.2968 26.375 43.4704 26.375 42.4511C26.375 41.277 26.375 14.1366 26.375 12.9199C26.375 11.9022 27.2161 11.0742 28.2499 11.0742C29.2838 11.0742 30.1249 11.9022 30.1249 12.9199C30.1249 13.7919 30.1249 36.8017 30.1249 38.7597C30.1249 39.779 30.9644 40.6054 31.9999 40.6054C33.0354 40.6054 33.8749 39.779 33.8749 38.7597C33.8749 37.9772 33.8749 32.1593 33.8749 31.3769C33.8749 30.3592 34.7161 29.5312 35.7499 29.5312ZM33.8749 20.3031V12.9199C33.8749 9.86674 31.3516 7.3828 28.2499 7.3828C25.1483 7.3828 22.625 9.86674 22.625 12.9199V20.3031C20.3103 18.5896 18.875 15.8715 18.875 12.9199C18.875 7.8313 23.0806 3.6914 28.2499 3.6914C33.4193 3.6914 37.6249 7.8313 37.6249 12.9199C37.6249 15.8715 36.1897 18.5896 33.8749 20.3031ZM50.7499 22.1484C51.7838 22.1484 52.6249 22.9764 52.6249 23.9941C52.6249 25.0118 51.7838 25.8398 50.7499 25.8398C49.716 25.8398 48.8749 25.0118 48.8749 23.9941C48.8749 22.9764 49.716 22.1484 50.7499 22.1484ZM58.3749 7.3828C57.341 7.3828 56.4999 6.55482 56.4999 5.5371C56.4999 4.51938 57.341 3.6914 58.3749 3.6914C59.4088 3.6914 60.2499 4.51938 60.2499 5.5371C60.2499 6.55482 59.4088 7.3828 58.3749 7.3828Z" fill="#6D5DC9"/>
</g>
</g>
</g>
<defs>
<clipPath id="clip0_192_1046">
<rect width="64" height="63" fill="white"/>
</clipPath>
</defs>
</svg>
