<svg width="112" height="85" viewBox="0 0 112 85" fill="none" xmlns="http://www.w3.org/2000/svg">
<path fill-rule="evenodd" clip-rule="evenodd" d="M86.7259 17.2719C86.6205 17.3303 84.8337 17.0171 82.7933 16.6158C78.6321 15.7663 78.3081 15.7171 77.7484 15.8901C77.486 15.9669 77.3479 15.9063 77.3917 15.7219C77.4292 15.564 77.124 15.4358 76.6432 15.405C74.3029 15.2385 65.8875 13.5452 56.1196 11.2524C50.5104 9.94763 47.8284 9.42174 47.9352 9.61403C48.007 9.8258 47.7057 9.80984 47.089 9.5799C46.588 9.3774 45.6965 9.27689 45.1266 9.36404C44.5341 9.41799 43.7644 9.31858 43.3789 9.14353C42.9996 8.94214 42.3805 8.85073 42.0027 8.90005C41.1767 9.03763 36.023 8.89811 34.3619 8.6982C33.714 8.59991 32.3706 8.47547 31.3862 8.38071C29.8281 8.2609 25.0744 7.46535 22.6359 6.94166C22.2027 6.83874 21.8248 6.88807 21.7936 7.01972C21.7623 7.15138 21.4961 7.11594 21.1683 6.95461C20.8756 6.77381 20.2277 6.67553 19.7859 6.73746C19.3151 6.79253 18.6071 6.81904 18.1902 6.77564C17.7734 6.73224 17.4408 6.84795 17.461 7.01966C17.4524 7.18451 17.19 7.26127 16.8724 7.1858C16.5547 7.11032 16.251 7.23289 16.2009 7.44354C16.1446 7.68052 15.9526 7.71836 15.6599 7.53756C15.3446 7.32357 15.2743 7.36249 15.3851 7.66698C15.4958 7.97146 15.3966 8.00355 14.9596 7.78844C14.638 7.60078 14.3367 7.58481 14.3054 7.71647C14.2741 7.84813 14.0821 7.88597 13.9151 7.81847C13.6965 7.71092 13.5021 7.88727 13.4496 8.23644C13.3746 8.55241 13.2152 8.70928 13.0896 8.59598C12.9351 8.47582 12.746 9.01505 12.5949 10.0362C12.44 10.9452 12.2133 11.6424 12.0689 11.6081C11.9245 11.5738 11.9158 11.7387 12.0453 11.9642C12.1686 12.216 12.2052 12.4472 12.106 12.4793C11.8538 12.6419 12.0489 14.7746 12.382 15.2988C12.5957 15.6834 12.4283 16.645 11.641 19.5736C9.63963 26.9705 9.05159 29.4456 9.16232 29.7501C9.24031 29.9355 9.08392 30.5938 8.84714 31.2052C8.09541 33.0851 7.63729 34.7566 7.93475 34.6603C8.09793 34.6156 8.19468 34.7221 8.1634 34.8537C8.12587 35.0117 7.97907 35.1159 7.86355 35.0885C7.51698 35.0062 7.18782 36.2632 7.46172 36.523C7.60998 36.6695 7.58882 36.887 7.43576 37.0176C7.2827 37.1481 6.82937 38.5426 6.40253 40.0824C5.99831 41.6554 5.55124 43.0235 5.43957 43.1083C5.32165 43.2193 5.39964 43.4048 5.55416 43.5249C5.8242 43.6725 5.79917 43.7779 5.4353 44.0252C5.1003 44.2795 5.03389 44.4306 5.23366 44.6171C5.43343 44.8037 5.34106 45.4493 4.99168 46.5347C4.68609 47.4357 4.54992 48.2657 4.6693 48.4053C4.79494 48.5186 4.80891 48.7166 4.66211 48.8209C4.54419 48.9319 4.53314 49.2353 4.68526 49.494C4.81475 49.7195 4.78733 49.9633 4.62416 50.008C4.49613 50.0332 4.27478 51.0934 4.18918 52.3526C3.92322 55.6554 3.98537 56.4212 4.44746 56.531C4.67851 56.5859 4.79163 56.7518 4.69008 56.9224C4.46435 57.2304 5.77421 59.2941 6.78942 60.2864C7.18896 60.6595 7.48789 60.8139 7.53168 60.6296C7.56921 60.4716 7.74488 60.3743 7.91817 60.4155C8.06257 60.4498 8.1242 60.5757 8.00628 60.6867C7.88835 60.7978 7.94757 61.0623 8.13483 61.3015C8.44147 61.6803 8.47661 61.6608 8.43616 61.3174C8.39956 61.0861 8.5964 60.7713 8.90011 60.6488C9.34438 60.4483 9.36701 60.4815 9.13503 60.8158C8.77261 61.3139 9.22271 62.1163 10.0025 62.3015C10.4357 62.4045 10.5122 62.3391 10.261 62.1125C10.0386 61.8928 10.041 61.7543 10.297 61.7039C10.4953 61.6397 10.6272 61.7267 10.5897 61.8847C10.5459 62.069 10.7356 62.1697 11.0143 62.1524C11.4499 62.1168 11.4725 62.15 11.1086 62.3974C10.7799 62.6253 10.8352 62.7775 11.4268 63.1128C12.507 63.7032 13.7927 63.8139 13.7031 63.292C13.6665 63.0607 13.8196 62.9302 14.0795 62.992C14.3105 63.0468 14.5556 63.2997 14.5859 63.5573C14.6225 63.7885 14.5686 63.887 14.4141 63.7669C14.2595 63.6467 14.119 63.7246 14.0627 63.9616C13.9876 64.2776 14.1133 64.3908 14.456 64.361C14.7409 64.3174 15.1265 64.4925 15.3426 64.7385C15.6493 65.1174 15.6907 65.0716 15.68 64.3458C15.6539 63.1713 15.4831 62.9915 13.9524 62.6279C13.2304 62.4564 12.6426 62.2333 12.6739 62.1017C12.6989 61.9963 12.4515 61.8819 12.1151 61.8854C11.7786 61.889 11.5312 61.7745 11.5687 61.6166C11.6063 61.4586 12.2089 61.4905 12.9309 61.662C13.6467 61.8599 14.1993 62.1024 14.168 62.2341C14.1367 62.3657 14.2397 62.4458 14.4029 62.4011C14.5723 62.3301 15.0445 62.5258 15.4465 62.7604C15.974 63.1082 16.234 63.17 16.4636 62.9742C16.6994 62.752 16.8438 62.7863 17.1278 63.132C17.4118 63.4776 17.7295 63.5531 18.4087 63.5197C19.1519 63.4738 19.3478 63.5481 19.3882 63.8915C19.4778 64.4135 19.1529 64.7536 18.6331 64.6301C18.4309 64.5821 18.1334 64.6783 18.0093 64.8157C17.8788 64.9795 17.9039 64.8741 18.0656 64.5787C18.3062 64.0795 18.2321 64.0063 17.215 63.7925C16.3197 63.5798 16.0636 63.6302 16.04 63.9862C16.0415 64.2369 16.0304 64.5403 15.9929 64.6983C15.9905 64.8368 16.5946 65.1194 17.397 65.3379C18.1706 65.5494 18.8021 65.5882 18.8107 65.4234C18.8131 65.2849 19.1395 65.1955 19.5563 65.2389C20.0117 65.2914 20.0678 65.3975 19.7248 65.5571C18.9191 65.8664 18.8791 66.1629 19.6536 65.9853C20.0025 65.9291 20.506 65.993 20.7761 66.1406C21.1265 66.3352 21.1616 66.3157 20.9455 66.0696C20.6716 65.8098 20.7481 65.7446 21.2704 65.7296C21.6935 65.7466 22.0665 65.9743 22.3833 66.439C22.7617 67.0296 22.8483 67.0502 22.7852 66.6736C22.7323 66.3828 22.8401 66.1859 22.9845 66.2203C23.1577 66.2614 23.2357 66.4468 23.2271 66.6117C23.1833 66.796 23.3176 66.7445 23.5019 66.4823C23.7352 66.1853 23.9215 66.2574 24.0608 66.6984C24.3025 67.4791 25.3812 67.8189 26.0675 67.37C26.3197 67.2073 26.7327 67.1385 26.9926 67.2003C27.3618 67.3158 27.3556 67.3422 26.9262 67.3514C26.6249 67.3355 26.3501 67.4649 26.3188 67.5965C26.2187 68.0178 26.8112 67.9639 27.4461 67.4749L28.0458 67.0054L27.7638 67.5504C27.5294 68.0233 27.5746 68.0897 28.0579 67.9819C28.3491 67.912 28.7019 67.968 28.7924 68.1007C28.9118 68.2404 28.9306 68.1614 28.8588 67.9496C28.7645 67.7047 28.9339 67.6337 29.3094 67.7229C29.6559 67.8052 29.8846 67.9986 29.847 68.1566C29.797 68.3672 29.9477 68.3752 30.3217 68.2137C30.9002 67.9617 32.3466 68.1663 32.5026 68.5371C32.5642 68.6631 33.0162 68.687 33.4995 68.5793C34.2388 68.4211 34.3832 68.4554 34.4978 68.8721C34.6311 69.2097 35.0167 69.3848 36.0401 69.5723C36.7746 69.6911 37.3748 69.8616 37.3498 69.9669C37.281 70.2565 37.6338 70.3125 38.2287 70.1201C38.6605 69.9723 38.634 69.8269 38.0949 69.1424C37.5783 68.4912 37.5581 68.3195 37.936 68.2702C38.2147 68.2529 38.2888 68.3262 38.1709 68.4373C38.0467 68.5747 38.0505 68.6869 38.2238 68.728C38.3682 68.7623 38.6305 68.6856 38.7485 68.5745C38.8726 68.4371 39.302 68.4278 39.7063 68.5239C40.0818 68.6131 40.4182 68.6095 40.4495 68.4779C40.4745 68.3726 40.811 68.3691 41.2153 68.4651C41.7352 68.5886 41.9061 68.7683 41.8185 69.1369C41.7184 69.5582 41.6255 69.564 41.4219 69.2652C41.0825 68.7674 40.5978 68.6244 40.7701 69.0548C40.8255 69.207 40.6787 69.3112 40.4188 69.2495C40.1588 69.1877 39.9894 69.2587 40.0737 69.4178C40.129 69.5701 40.0212 69.767 39.8292 69.8049C39.6308 69.869 39.5216 69.8152 39.5818 69.6904C39.8349 69.1385 39.689 68.8536 39.1379 68.8617C38.8014 68.8652 38.4977 68.9878 38.4664 69.1195C38.4352 69.2511 38.5382 69.3312 38.7014 69.2865C38.8645 69.2418 39.0994 69.4089 39.2515 69.6676C39.4817 70.1117 39.5972 70.1391 40.0828 69.8929C40.4279 69.7245 40.7933 69.7279 40.9642 69.9076C41.1702 70.0678 41.7642 70.2645 42.3543 70.3491C43.124 70.4485 43.3136 70.5492 43.0778 70.7714C42.8419 70.9935 42.8997 71.0072 43.3377 70.8331C43.6477 70.6842 44.0068 70.7139 44.1839 70.8672C44.3611 71.0206 45.0869 71.3043 45.8604 71.5159C46.8876 71.8156 47.1952 71.8052 47.1423 71.5144C47.1057 71.2832 47.2587 71.1527 47.5475 71.2213C47.8363 71.2899 47.9143 71.4753 47.73 71.7375C47.4855 72.1245 47.5081 72.1577 47.9485 71.845C48.2421 71.6366 48.6426 71.6205 48.9641 71.8082C49.4465 72.0897 49.9023 72.2258 51.9264 72.5675C52.2729 72.6499 52.6118 72.5079 52.6618 72.2972C52.7557 71.9022 53.0984 71.8724 53.8594 72.1366C54.0842 72.2178 54.4206 72.2143 54.6603 72.1043C55.0406 71.9165 55.7867 72.372 55.6476 72.7005C55.5999 72.7727 55.6389 72.8654 55.7256 72.886L56.5631 73.085C57.083 73.2085 57.2876 73.118 57.4064 72.6177C57.494 72.249 57.3731 71.8587 57.1671 71.6985C56.8971 71.5509 56.7979 71.5829 56.822 71.8668C56.8952 72.3293 55.6057 72.1064 54.8909 71.5193C54.5592 71.2458 54.2001 71.2162 53.6052 71.4086C53.0165 71.5748 52.837 71.5599 52.8933 71.3229C52.9496 71.0859 52.8567 71.0917 52.5631 71.3001C52.257 71.5612 52.2406 71.5017 52.4914 71.0883C52.6531 70.7929 52.6704 70.4633 52.5221 70.3168C52.3965 70.2035 52.2208 70.3008 52.1457 70.6168C52.0769 70.9064 51.7482 71.1344 51.4054 71.1642C51.069 71.1677 50.7465 71.3693 50.6965 71.5799C50.6464 71.7906 50.4067 71.9005 50.1757 71.8457C49.9446 71.7908 49.7862 71.5584 49.8363 71.3478C49.8926 71.1108 49.7381 70.9906 49.3954 71.0205C49.0527 71.0503 48.9723 71.0034 49.1667 70.8271C49.326 70.6702 49.3284 70.5317 49.1551 70.4905C49.0107 70.4562 48.771 70.5661 48.6757 70.7104C48.4977 70.9463 48.4399 70.9326 48.5025 70.6692C48.5174 70.4781 48.4206 70.3716 48.2286 70.4095C48.0654 70.4541 47.9273 70.3935 47.9648 70.2355C48.0649 69.8142 48.6223 69.7797 48.6853 70.1563C48.7547 70.5066 49.1094 69.7842 49.1353 69.2896C49.1377 69.1511 49.2595 69.1522 49.3789 69.2918C49.5334 69.412 49.4997 69.6822 49.3568 69.8986C49.1725 70.1608 49.2115 70.2535 49.519 70.2431C49.7688 70.219 49.9695 70.0164 50.0258 69.7794C50.0533 69.5355 50.2001 69.4313 50.3257 69.5446C50.4451 69.6842 50.4504 70.0471 50.2824 70.3688C50.1496 70.6711 50.0784 71.0993 50.1564 71.2847C50.2281 71.4965 50.4577 71.3006 50.6921 70.8278C51.1984 69.7241 51.7668 69.3863 52.3045 69.82C52.5332 70.0134 52.8422 70.2537 52.9741 70.3407C53.1411 70.4082 53.1965 70.5604 53.1426 70.6589C53.0598 70.7505 53.2268 70.818 53.4766 70.7939C53.7327 70.7435 53.9912 70.5545 54.0475 70.3175C54.1288 69.9752 54.2318 70.0553 54.472 70.5853C54.628 70.9562 54.8956 71.2423 55.0588 71.1976C55.1931 71.1461 55.3539 71.2399 55.3741 71.4116C55.3943 71.5833 55.7597 71.5866 56.2266 71.4194C56.6935 71.2521 57.3149 71.2051 57.6263 71.3069C57.9302 71.3976 57.9653 71.3781 57.7317 71.2484C57.2431 70.9933 57.1309 70.4381 57.593 70.5479C58.0262 70.6508 58.3305 71.1682 58.4013 71.7692C58.4658 72.3965 59.2345 72.8851 59.3597 72.3585C59.3972 72.2005 59.6571 72.2622 60.0364 72.4636C60.3517 72.6776 61.0612 72.9018 61.5936 72.9726C62.1197 73.0698 62.4826 73.2117 62.3647 73.3227C62.2468 73.4338 62.3248 73.6192 62.5308 73.7795C62.7431 73.9133 63.0155 73.9225 63.1334 73.8114C63.2865 73.6808 63.2538 73.5618 63.0805 73.5206C62.8205 73.4589 62.614 72.6587 62.6635 71.8081C62.6746 71.5048 62.7323 71.5185 63.0679 71.9042C63.284 72.1503 63.3933 72.204 63.3153 72.0186C63.2272 71.7473 63.6792 71.7712 64.7829 72.0056C65.6493 72.2115 66.6337 72.3062 66.9537 72.2432C67.309 72.1607 67.6844 72.2499 67.9646 72.4833C68.6505 73.0636 68.3834 73.4174 67.6147 72.9288C66.9778 72.5271 66.2963 72.699 66.7988 73.1522C66.9245 73.2655 67.0689 73.2998 67.1001 73.1682C67.1252 73.0628 67.2282 73.1429 67.3225 73.3879C67.5502 73.9705 68.5269 73.8409 68.5778 73.241C68.7101 72.2989 68.8757 72.1156 69.5337 72.2998C70.1402 72.4439 70.134 72.4702 69.5289 72.5768C69.0871 72.6387 69.3985 72.7406 70.4632 72.8822C71.4702 73.0102 71.9775 73.1864 71.9338 73.3707C71.8962 73.5287 72.0671 73.7084 72.327 73.7701C72.7314 73.8662 72.7501 73.7872 72.5364 73.4026C72.3 72.9848 72.3992 72.9527 73.0923 73.1174C73.6699 73.2546 73.8331 73.2099 73.6107 72.9902C73.3594 72.7636 73.4422 72.672 73.9871 72.6902C74.3587 72.6672 74.7216 72.809 74.7192 72.9476C74.7395 73.1193 74.9455 73.2795 75.1765 73.3344C75.4653 73.403 75.5544 73.2851 75.4889 73.047C75.3883 72.8284 75.5264 72.889 75.7878 73.2014C76.1007 73.5539 76.2677 73.6214 76.3982 73.4577C76.4997 73.2871 76.8588 73.3168 77.1866 73.4781C77.7329 73.747 77.7681 73.7275 77.4764 73.1575C77.2073 72.6207 77.2135 72.5944 77.5201 72.9732C77.9298 73.4321 79.0913 73.6802 79.808 73.4889C80.0703 73.4121 80.2888 73.5197 80.3832 73.7646C80.5002 74.0428 80.6672 74.1103 81.0061 73.9683C81.2458 73.8583 81.9928 73.9245 82.6508 74.1086C83.3088 74.2928 83.8474 74.3373 83.8498 74.1988C83.8522 74.0603 84.2301 74.0109 84.6984 74.0944C85.1379 74.171 85.7781 74.0449 86.0717 73.8365C86.5121 73.5238 86.5761 73.5112 86.3792 73.8261C86.2363 74.0425 86.2315 74.3195 86.4149 74.4465C86.6046 74.5472 86.4703 74.5988 86.1815 74.5302C85.8115 74.4608 85.7726 74.5814 86.065 74.892C86.4746 75.3509 86.4044 75.3898 85.4653 75.3615C84.2538 75.324 84.3404 75.3446 83.4725 74.888C82.9551 74.626 82.891 74.6386 83.1587 74.9247C83.4778 75.2509 83.4364 75.2967 83.0032 75.1938C82.7144 75.1252 82.5387 75.2225 82.5941 75.3748C82.6658 75.5865 82.868 75.6346 83.1014 75.551C83.6386 75.3448 84.5315 75.696 84.714 76.2122C84.8536 76.5236 84.9239 76.4846 85.0114 76.116C85.124 75.642 85.1529 75.6489 85.55 76.1605C85.7763 76.4924 86.108 76.7659 86.2524 76.8002C86.3968 76.8345 86.3125 76.6754 86.0901 76.4557C85.8326 76.2554 85.6579 75.9636 85.6954 75.8056C85.783 75.4369 88.3649 76.3842 88.531 76.8409C88.6706 77.1522 88.7862 77.1797 89.1375 76.985C89.4537 76.8097 89.4913 76.6518 89.2877 76.353C89.1067 76.0875 89.1567 75.8768 89.4878 75.5104C89.8955 75.0787 89.9018 75.0524 89.3583 75.2849C89.0484 75.4338 88.7408 75.4442 88.6503 75.3114C88.5824 75.2118 88.659 75.1466 88.8611 75.1946C89.0922 75.2495 89.2288 75.0594 89.211 74.7492C89.212 74.36 89.2947 74.2684 89.5585 74.4423C90.0635 74.757 90.2763 75.5308 90.0207 76.2212C89.9168 76.5303 89.9861 76.8806 90.1984 77.0145C90.3818 77.1415 90.5676 77.13 90.5989 76.9983C90.724 76.4717 90.813 76.3538 91.2183 76.0606C91.5822 75.8132 91.5658 75.7537 91.1239 75.8157C90.8164 75.826 90.5338 75.7311 90.4784 75.5788C90.4005 75.3934 90.5699 75.3224 90.8009 75.3773C91.032 75.4322 91.8955 75.1366 92.6973 74.7151C93.4992 74.2936 94.2761 73.9775 94.3916 74.0049C95.3447 74.2314 96.9196 73.3815 96.9152 72.6294C96.8911 72.3455 97.8769 72.691 98.0103 73.0287C98.1109 73.2473 98.2163 73.1889 98.2851 72.8993C98.3602 72.5833 98.5007 72.5054 98.7294 72.6988C98.8776 72.8453 98.88 72.7068 98.6889 72.3554C98.3746 71.7522 98.5935 70.8306 99.0556 70.9403C99.1711 70.9678 99.4171 70.8315 99.56 70.6151C99.703 70.3987 99.6928 70.3128 99.4657 70.3701C99.2385 70.4274 99.237 70.1767 99.4902 69.6249C99.6957 69.1452 99.7404 68.5716 99.5883 68.3129C99.3971 67.9615 99.4097 67.9089 99.6383 68.1023C99.8154 68.2557 100.049 68.172 100.239 67.8835C100.43 67.595 100.664 67.5113 100.847 67.6383C101.024 67.7917 100.93 67.5468 100.693 67.129C100.175 66.227 100.066 65.1441 100.498 64.9963C100.661 64.9516 100.827 64.7684 100.865 64.6104C100.915 64.3998 100.828 64.3792 100.598 64.575C100.327 64.8166 100.27 64.8029 100.207 64.4263C100.154 64.1355 100.278 63.9981 100.509 64.053C100.711 64.101 101.066 64.0185 101.283 63.8754C101.606 63.6738 101.509 63.5674 100.832 63.4622C100.335 63.3719 99.9783 63.2037 100.01 63.0721C100.041 62.9404 100.326 62.8968 100.672 62.9792C101.077 63.0752 101.252 62.9779 101.222 62.7203C101.179 62.5154 101.341 62.22 101.558 62.0769C101.88 61.8753 101.893 61.8227 101.486 61.8651C100.958 61.9065 101.075 61.1555 101.846 59.8365C102.157 59.2984 102.131 59.153 101.726 59.0569C101.437 58.9883 101.331 58.796 101.463 58.4938C101.577 58.2705 101.823 58.1342 101.962 58.1949C102.1 58.2555 102.294 58.0791 102.357 57.8158C102.419 57.5525 102.312 57.3602 102.149 57.4049C101.98 57.4759 101.953 57.3306 102.125 57.121C102.274 56.8783 102.289 56.6871 102.145 56.6528C101.741 56.5567 102.092 55.3329 102.524 55.1851C102.786 55.1083 102.76 54.963 102.48 54.7295C102.074 54.3827 101.997 53.8081 102.418 53.9636C102.948 54.173 103.181 54.0894 102.856 53.7895C102.405 53.3764 102.574 51.6363 103.037 51.9968C103.186 52.1433 103.13 51.991 102.892 51.7117C102.573 51.3394 102.609 51.1902 102.998 51.2641C103.489 51.3808 103.466 51.3476 102.968 51.0066C102.623 50.7857 102.378 50.5328 102.397 50.4538C102.422 50.3484 102.538 50.3759 102.657 50.5155C102.783 50.6288 102.997 50.6242 103.15 50.4936C103.268 50.3826 103.242 50.2372 103.069 50.196C102.895 50.1549 102.834 50.0289 102.98 49.9247C103.098 49.8137 103.113 49.6225 103.01 49.5424C102.685 49.2425 103.234 47.7038 103.729 47.5434C104.12 47.4414 104.132 47.3888 103.786 47.3064C103.468 47.231 103.493 47.1257 103.956 46.8462C104.307 46.6515 104.591 46.3572 104.622 46.2256C104.653 46.0939 104.525 46.1191 104.366 46.276C104.178 46.426 103.841 46.4295 103.606 46.2625C103.285 46.0748 103.271 45.8767 103.586 45.4508C103.818 45.1165 103.893 44.8005 103.712 44.535C103.531 44.2694 103.636 44.211 104.127 44.3276C104.705 44.4649 104.746 44.4191 104.539 44.0082C104.387 43.7495 104.373 43.5514 104.517 43.5857C104.632 43.6132 104.532 43.3946 104.27 43.0821C104.032 42.8028 103.947 42.6437 104.131 42.7708C104.566 43.1244 104.998 42.5874 104.675 42.149C104.443 41.8434 104.414 41.8366 104.502 42.1079C104.574 42.3196 104.478 42.4639 104.334 42.4296C103.814 42.3061 104.163 41.61 104.743 41.6087C105.172 41.5994 105.178 41.5731 104.693 41.4301C104.238 41.294 104.221 41.2344 104.583 41.1256C104.979 40.9973 105.004 40.892 104.688 40.4273C104.455 40.1217 104.359 39.626 104.463 39.3169L104.601 38.7376L104.723 39.3787C104.786 39.7553 104.926 40.0666 105.013 40.0872C105.128 40.1146 105.162 39.8445 105.128 39.4747C105.087 39.1313 105.113 38.6367 105.198 38.4066C105.261 38.1433 105.237 37.8594 105.082 37.7392C104.963 37.5996 105.025 37.3363 105.274 37.0615C105.586 36.7741 105.595 36.6092 105.393 36.5612C105.219 36.52 105.158 36.3941 105.304 36.2899C105.422 36.1788 105.408 35.9808 105.26 35.8343C105.112 35.6878 105.098 35.4898 105.216 35.3787C105.752 34.9218 105.904 34.1513 105.537 33.8973C105.193 33.6764 105.206 33.6237 105.672 33.4565C105.976 33.3339 106.138 33.0385 106.145 32.623C106.113 32.1147 106.01 32.0346 105.636 32.1961C105.333 32.3187 105.182 32.3107 105.226 32.1264C105.263 31.9684 105.252 31.6318 105.199 31.3411C105.136 30.9645 105.212 30.8992 105.556 31.12C105.929 31.3478 106.006 31.2825 106.005 30.6426C105.984 30.2202 105.843 29.6581 105.668 29.3662C105.493 29.0743 105.43 28.6977 105.532 28.5271C105.639 28.3302 105.471 28.012 105.191 27.7785C104.659 27.3185 104.541 26.7896 104.78 26.0397C105.237 24.7575 105.339 24.5869 105.603 24.7608C105.792 24.8615 105.826 24.5913 105.697 23.9766C105.507 23.236 105.223 22.8903 104.532 22.5872C104.031 22.3847 103.636 22.1237 103.667 21.9921C103.742 21.6761 101.862 21.3687 101.377 21.6149C100.75 21.939 100.555 21.8647 98.1507 20.6816C97.0065 20.1037 95.2886 19.5009 94.156 19.2596C93.0874 19.0058 92.2272 18.7736 92.246 18.6946C92.2648 18.6156 91.741 18.3799 91.0768 18.2221C90.2229 17.9636 89.9731 17.9877 90.2243 18.2143C90.4982 18.4741 90.3928 18.5325 89.7863 18.3884C89.3242 18.2786 89.0605 18.1047 89.2135 17.9742C89.5321 17.6604 88.775 17.5083 88.2831 17.7809C88.002 17.9367 87.742 17.8749 87.3878 17.5682C87.1365 17.3416 86.8024 17.2066 86.7259 17.2719ZM81.4209 22.5209C80.9228 22.8198 80.6792 22.8176 80.2672 22.4971C79.9129 22.1904 79.6818 22.1355 79.4811 22.3382C79.2867 22.5146 79.1423 22.4803 79.0643 22.2948C78.8982 21.8381 79.8724 21.847 80.439 22.2876C80.8963 22.6744 81.0657 22.6034 81.0979 22.0825C81.1229 21.9772 81.315 21.9394 81.6038 22.008C82.037 22.1109 81.9956 22.1567 81.4209 22.5209ZM83.612 22.9301C83.5995 22.9828 83.3848 22.9875 83.1538 22.9326C82.9227 22.8777 82.7456 22.7243 82.7831 22.5663C82.8144 22.4347 83.0291 22.43 83.2414 22.5639C83.4474 22.7241 83.6245 22.8775 83.612 22.9301ZM84.9492 23.0809C85.0045 23.2332 84.8577 23.3374 84.5978 23.2756C84.3379 23.2139 84.2537 23.0548 84.3716 22.9437C84.4957 22.8063 84.6652 22.7353 84.7229 22.749C84.7807 22.7627 84.9001 22.9024 84.9492 23.0809ZM87.7184 24.2674C87.613 24.3258 87.4359 24.1724 87.3415 23.9275C87.2081 23.5898 87.1278 23.5429 87.0652 23.8062C87.0214 23.9905 86.8582 24.0352 86.71 23.8887C86.504 23.7285 86.5641 23.6037 86.8616 23.5074C87.3159 23.3929 88.076 24.0463 87.7184 24.2674ZM76.9194 21.5627C76.9006 21.6417 76.7538 21.7459 76.5618 21.7837C76.3986 21.8284 76.2667 21.7414 76.298 21.6098C76.3355 21.4518 76.5112 21.3545 76.6556 21.3888C76.8289 21.4299 76.9319 21.51 76.9194 21.5627ZM60.351 18.0994C60.3197 18.231 60.4165 18.3375 60.5796 18.2928C60.7491 18.2218 60.763 18.4198 60.6076 18.6889C60.3381 19.1812 60.2803 19.1675 59.8894 18.6295C59.3565 17.9188 59.409 17.5696 59.9866 17.7068C60.2176 17.7617 60.3885 17.9414 60.351 18.0994ZM74.2677 21.2944C73.9187 21.3505 73.9062 21.4032 74.1801 21.663C74.4314 21.8896 74.3322 21.9217 73.8826 21.7592C72.9421 21.4802 73.3069 20.8435 74.2474 21.1226C74.594 21.205 74.6104 21.2645 74.2677 21.2944ZM66.0708 19.7086C66.0396 19.8403 65.8639 19.9376 65.6906 19.8965C65.5462 19.8622 65.5197 19.7168 65.6376 19.6057C65.7618 19.4683 65.9312 19.3973 66.0179 19.4179C66.0756 19.4316 66.1084 19.5506 66.0708 19.7086ZM71.0181 20.7171C71.0056 20.7697 70.7722 20.8534 70.4935 20.8706C70.2437 20.8947 70.1344 20.8409 70.2586 20.7035C70.4944 20.4814 71.0682 20.5064 71.0181 20.7171ZM46.3693 15.3062C46.3381 15.4379 46.1046 15.5215 45.8447 15.4598C45.6137 15.4049 45.5294 15.2458 45.6473 15.1347C45.7715 14.9973 45.9987 14.94 46.172 14.9812C46.3164 15.0155 46.4069 15.1482 46.3693 15.3062ZM48.1397 15.5599C48.121 15.6389 47.9742 15.7431 47.7821 15.7809C47.6189 15.8256 47.487 15.7387 47.5183 15.607C47.5559 15.449 47.7315 15.3517 47.8759 15.386C48.0492 15.4271 48.1522 15.5073 48.1397 15.5599ZM52.3077 17.023C52.4411 17.3607 52.3809 17.4855 52.0921 17.4169C51.89 17.3689 51.8057 17.2098 51.9525 17.1056C52.0704 16.9945 51.9034 16.927 51.567 16.9305C50.9167 16.9707 50.0425 16.5405 50.1176 16.2245C50.2114 15.8296 52.119 16.5331 52.3077 17.023ZM54.6004 17.2617C54.4825 17.3728 54.5089 17.5182 54.7111 17.5662C54.9133 17.6142 54.9811 17.7138 54.8469 17.7653C54.5306 17.9406 54.0757 17.4152 54.3178 17.1668C54.4646 17.0626 54.6052 16.9847 54.6918 17.0053C54.7785 17.0258 54.7245 17.1243 54.6004 17.2617ZM55.8384 17.4445C55.733 17.503 55.4668 17.4676 55.2834 17.3405C55.0711 17.2067 55.1765 17.1482 55.4942 17.2237C55.8182 17.2728 55.9727 17.393 55.8384 17.4445ZM57.9592 17.8928C57.8904 18.1824 57.3166 18.1574 57.1996 17.8792C57.1443 17.727 57.2911 17.6228 57.5221 17.6777C57.7821 17.7394 57.9717 17.8401 57.9592 17.8928ZM62.1055 18.9335C62.6105 19.2481 62.5219 20.006 62.0271 19.7772C61.6353 19.6285 61.3248 19.1375 61.4061 18.7951C61.4624 18.5582 61.578 18.5856 62.1055 18.9335ZM77.911 22.911C77.9476 23.1422 77.7532 23.3186 77.4167 23.3221C76.9296 23.3176 76.9132 23.2581 77.3021 22.9054C77.8504 22.3959 77.8215 22.389 77.911 22.911ZM83.2992 24.2467C82.8511 24.335 82.5474 24.4576 82.634 24.4781C83.6174 24.9621 84.3106 25.1268 84.3669 24.8898C84.4107 24.7055 84.6128 24.7535 85.0249 25.0739C85.5337 25.5008 85.5626 25.5077 85.2809 25.0235C85.0961 24.6458 85.0985 24.5073 85.3295 24.5622C85.5028 24.6033 85.6901 24.8425 85.7267 25.0738C85.7922 25.3119 85.9216 25.5374 86.0949 25.5785C86.2393 25.6128 86.5359 25.9058 86.7395 26.2046C86.9808 26.5586 86.96 26.6464 86.6769 26.4679C86.3554 26.2802 86.029 26.3696 85.5511 26.8402C85.1622 27.1929 84.3377 27.5812 83.7264 27.7142C82.0619 28.042 81.0805 28.4486 81.2553 28.7405C81.352 28.8469 81.2818 28.8859 81.121 28.792C80.6839 28.5769 78.376 29.5586 77.5154 30.3556C77.1265 30.7082 76.8454 30.864 76.8954 30.6533C76.9455 30.4427 76.3794 30.642 75.6705 31.0578C74.9326 31.4666 74.368 31.9167 74.3719 32.0289C74.3695 32.1674 74.2352 32.2189 74.0619 32.1778C73.6865 32.0886 72.744 32.5879 72.9086 32.794C72.9476 32.8867 72.7532 33.063 72.4143 33.205C71.9061 33.4181 71.8772 33.4112 72.1607 33.117C72.3551 32.9406 72.0288 33.03 71.4315 33.361C70.8693 33.6725 70.1377 34.055 69.8339 34.1776C69.5302 34.3002 69.3459 34.5624 69.395 34.741C69.473 34.9264 69.4316 34.9722 69.2545 34.8188C69.0999 34.6987 68.8314 34.8018 68.6697 35.0971C68.4853 35.3593 68.2971 35.5094 68.2292 35.4098C68.1614 35.3102 67.9116 35.3343 67.6656 35.4706C67.4196 35.6069 66.9051 35.8463 66.496 36.0273C66.0869 36.2082 65.8034 36.5025 65.8814 36.688C65.9531 36.8997 65.918 36.9192 65.7408 36.7658C65.5637 36.6125 65.3942 36.6835 65.2966 36.9663C65.234 37.2296 65.1286 37.288 65.1146 37.09C65.0125 36.6206 62.706 37.853 62.7792 38.3155C62.8221 38.5204 62.6402 38.644 62.3802 38.5823C62.1203 38.5205 61.8743 38.6568 61.818 38.8938C61.7555 39.1571 61.5572 39.2213 61.3449 39.0874C61.0811 38.9135 60.9406 38.9913 60.9459 39.3542C60.9512 39.7171 60.6701 39.8729 60.0136 39.9395C59.5202 39.9613 59.0822 40.1354 59.0509 40.2671C59.0134 40.4251 58.7799 40.5087 58.52 40.447C58.289 40.3921 58.1195 40.4631 58.1749 40.6153C58.2592 40.7744 57.6556 41.1318 56.885 41.4216C56.1144 41.7114 55.5936 41.9771 55.7606 42.0446C55.905 42.0789 55.7067 42.1431 55.2937 42.2119C54.887 42.2543 54.6348 42.4169 54.6839 42.5955C54.8172 42.9332 53.9138 43.5253 53.4517 43.4155C53.2784 43.3743 53.1441 43.4259 53.1769 43.5449C53.1745 43.6835 53.0566 43.7945 52.8934 43.8392C51.898 44.0478 50.7813 44.8952 50.8897 45.3382C51.0245 45.9266 50.7371 46.1087 50.0151 45.9372C49.553 45.8274 49.3172 46.0495 49.2436 46.6162C49.2537 46.702 48.7416 46.8029 48.149 46.8569C47.5565 46.9108 47.1185 47.0849 47.2027 47.244C47.2519 47.4226 46.8865 47.4193 46.2925 47.2225C45.75 47.0658 45.3707 46.8645 45.4824 46.7797C45.5652 46.6881 45.0564 46.2612 44.3329 45.839C43.4713 45.3561 42.9812 44.8503 42.9408 44.5068C42.8941 44.1897 42.7068 43.9505 42.4984 43.9289C42.2837 43.9335 41.7937 43.4276 41.3864 42.8301C40.9729 42.259 40.4704 41.8058 40.2721 41.87C40.0511 41.9009 39.9934 41.8872 40.1339 41.8093C40.3924 41.6203 38.2844 38.4213 37.8223 38.3115C37.6779 38.2772 37.6514 38.1318 37.7693 38.0207C37.8935 37.8833 37.8608 37.7643 37.7164 37.7299C37.3409 37.6408 35.1362 34.3352 35.2237 33.9666C35.255 33.8349 35.1809 33.7617 35.0755 33.8201C34.7944 33.9759 33.3035 31.6466 33.5682 31.4313C33.6862 31.3202 33.6534 31.2012 33.4801 31.16C33.1336 31.0777 32.2574 29.7569 32.3325 29.4409C32.3638 29.3092 32.5145 29.3172 32.6916 29.4705C32.8625 29.6502 32.9039 29.6044 32.8384 29.3663C32.7378 29.1477 32.4966 29.007 32.2468 29.0311C31.997 29.0552 31.8362 28.9613 31.8675 28.8297C31.905 28.6717 31.7857 28.532 31.6124 28.4909C31.1503 28.3811 30.7228 27.6119 30.9548 27.2776C31.0563 27.107 30.9393 26.8288 30.6342 26.7007C30.0363 26.3918 29.2993 24.7423 29.5399 24.2432C29.654 24.0199 29.5346 23.8803 29.2497 23.9238C28.9998 23.9479 28.5941 23.6012 28.3124 23.117C28.0246 22.6592 27.5494 21.9621 27.2779 21.5638C26.9776 21.1586 26.7763 20.7214 26.8139 20.5634C26.8514 20.4054 26.4441 19.8079 25.9089 19.2357C25.3798 18.6371 24.9663 18.066 24.9976 17.9343C25.0289 17.8027 24.6856 17.1926 24.2495 16.5882C23.3671 15.2937 23.5616 15.1174 25.5505 15.4786C26.285 15.5975 27.6511 15.7551 28.555 15.803C29.459 15.8508 30.4496 15.9193 30.7798 15.9421C31.0749 15.9844 31.5706 15.824 31.8353 15.6087C32.1352 15.3739 32.321 15.3624 32.2772 15.5468C32.1834 15.9417 35.0286 16.423 35.5908 16.1114C35.7665 16.0141 36.0678 16.03 36.2574 16.1307C36.4408 16.2577 36.7133 16.2668 36.8663 16.1363C36.9905 15.9989 36.964 15.8535 36.8196 15.8192C36.6463 15.778 36.5332 15.6121 36.577 15.4278C36.6145 15.2698 36.8331 15.3773 37.0882 15.7161C37.3886 16.1213 37.6071 16.2288 37.8016 16.0525C37.9609 15.8956 38.1693 15.9173 38.3339 16.1234C38.7147 16.5754 39.9989 16.4354 40.1178 15.9351C40.1678 15.7245 40.3748 15.4955 40.602 15.4382C40.8354 15.3546 40.8744 15.4473 40.6901 15.7095C40.5471 15.9259 40.5775 16.1834 40.7897 16.3173C41.2947 16.632 41.7726 16.1614 41.3731 15.7883C41.2022 15.6086 41.5738 15.5856 42.3146 15.6782C43.3442 15.8393 43.5853 15.9801 43.6133 16.3762C43.6085 16.6532 43.7505 16.826 43.9137 16.7813C44.0768 16.7366 44.1784 16.566 44.123 16.4138C44.0388 16.2547 44.1504 16.1699 44.2948 16.2043C44.4681 16.2454 44.5687 16.464 44.5187 16.6747C44.3936 17.2013 46.0687 17.5993 46.8643 17.2041C47.3148 16.9774 47.4881 17.0185 47.6051 17.2967C47.6994 17.5416 47.6292 17.5806 47.4068 17.3608C47.1781 17.1674 47.1141 17.18 47.2085 17.425C47.3582 17.8222 48.5346 17.8791 48.9235 17.5265C49.0414 17.4154 49.2022 17.5092 49.2388 17.7404C49.2754 17.9717 49.6133 18.2188 49.995 18.2817C50.4922 18.372 50.6742 18.2483 50.704 17.866C50.7447 17.5233 50.8623 17.542 51.0568 17.922C51.2932 18.3398 51.6436 18.5343 52.2977 18.6063C52.8075 18.6439 53.2571 18.8064 53.3124 18.9586C53.4395 19.3226 54.5206 19.5238 54.5957 19.2078C54.6395 19.0235 54.819 19.0384 55.0703 19.265C55.2989 19.4584 56.0147 19.6562 56.6462 19.695C57.3066 19.7406 57.8554 19.871 57.917 19.9969C58.0893 20.4273 60.2515 20.8297 60.5187 20.4759C60.6553 20.2858 60.6125 20.0809 60.4392 20.0397C60.2659 19.9986 60.2269 19.9059 60.3386 19.8211C60.4729 19.7696 60.7655 19.9504 60.9754 20.2228C61.4693 20.8408 62.8032 21.5194 63.0741 21.2777C63.2748 21.0751 65.6946 21.6777 66.0652 22.044C66.2197 22.1641 66.3993 22.179 66.4821 22.0874C66.5422 21.9626 67.077 21.8949 67.6156 21.9394C68.1605 21.9576 68.5297 22.0731 68.4118 22.1842C68.1822 22.38 70.5629 22.8899 71.0876 22.7364C71.2796 22.6986 71.8471 22.75 72.3958 22.8803C73.6892 23.2154 77.7373 23.899 81.5154 24.4349C82.0829 24.4863 82.3211 24.1256 81.7787 23.9689C81.1784 23.7985 82.415 23.7307 83.2939 23.8838L84.1088 24.0496L83.2992 24.2467ZM53.6714 17.3192C53.5535 17.4303 53.2623 17.5002 53.089 17.459C52.8868 17.411 52.9407 17.3125 53.2382 17.2163C53.862 17.0306 53.9775 17.0581 53.6714 17.3192ZM61.256 19.4271C61.2185 19.5851 61.0967 19.584 60.9422 19.4638C60.8165 19.3505 60.7222 19.1055 60.7534 18.9739C60.791 18.8159 60.9416 18.8239 61.0673 18.9372C61.2218 19.0573 61.2873 19.2954 61.256 19.4271ZM43.2945 15.0208C43.1891 15.0792 42.9229 15.0438 42.7395 14.9168C42.5273 14.7829 42.6327 14.7245 42.9504 14.7999C43.2743 14.8491 43.4288 14.9693 43.2945 15.0208ZM49.8543 16.6905C49.9034 16.8691 49.7817 16.868 49.5694 16.7341C49.0933 16.4263 49.0505 16.2214 49.4548 16.3174C49.6281 16.3586 49.8052 16.5119 49.8543 16.6905ZM38.8436 14.4919C38.7935 14.7026 38.6342 14.8594 38.5187 14.832C38.4032 14.8045 38.3025 14.5859 38.2371 14.3478C38.2067 14.0903 38.3309 13.9528 38.5619 14.0077C38.7641 14.0558 38.8936 14.2813 38.8436 14.4919ZM36.5572 14.2269C36.305 14.3895 35.7765 14.4309 35.3433 14.328C34.7719 14.1644 34.7204 14.1243 35.2075 14.1288C35.544 14.1253 35.9569 14.0565 36.1615 13.966C36.6886 13.6739 37.0327 13.8948 36.5572 14.2269ZM46.5726 16.6341C46.4672 16.6925 46.201 16.6571 46.0176 16.5301C45.8053 16.3962 45.9107 16.3378 46.2284 16.4133C46.5523 16.4624 46.7069 16.5826 46.5726 16.6341ZM62.2673 20.3072C62.2486 20.3862 62.1018 20.4904 61.9097 20.5282C61.7466 20.5729 61.6147 20.4859 61.6459 20.3542C61.6835 20.1963 61.8592 20.0989 62.0036 20.1332C62.1768 20.1744 62.2799 20.2545 62.2673 20.3072ZM34.3175 14.279C34.2121 14.3374 33.9459 14.302 33.7625 14.175C33.5502 14.0411 33.6557 13.9826 33.9733 14.0581C34.2973 14.1073 34.4518 14.2274 34.3175 14.279ZM38.5317 15.4192C38.5996 15.5188 38.3849 15.5235 38.0898 15.4812C37.7659 15.4321 37.5247 15.2913 37.556 15.1596C37.6061 14.949 38.3281 15.1205 38.5317 15.4192ZM31.7173 14.0507C31.455 14.1274 31.106 14.1836 30.9327 14.1425C30.7883 14.1082 30.8774 13.9902 31.1397 13.9135C31.402 13.8367 31.7799 13.7874 31.9243 13.8217C32.0976 13.8628 31.9796 13.9739 31.7173 14.0507ZM30.9073 15.2769C30.5911 15.4522 30.5169 15.3789 30.6748 14.9714C30.7912 14.6096 30.9318 14.5317 31.0675 14.7308C31.2259 14.9632 31.1533 15.1406 30.9073 15.2769ZM34.2733 15.4924C33.4185 15.6232 32.9564 15.5134 33.5513 15.3209C33.8136 15.2441 34.243 15.2349 34.474 15.2898C34.7628 15.3584 34.6863 15.4237 34.2733 15.4924ZM96.3401 31.1281C97.2264 32.5348 97.2876 33.6899 96.6972 37.9726C96.4726 39.5605 96.3268 40.9445 96.4135 40.9651C96.4423 40.972 96.3327 41.9474 95.9858 44.5633C95.891 45.3474 95.829 46.2507 95.8694 46.5941C95.9036 46.9639 95.7482 47.2329 95.4859 47.3097C95.2235 47.3864 95.1696 47.4849 95.314 47.5192C95.4873 47.5604 95.4402 48.2724 95.1924 49.1872C94.9859 50.0561 94.8912 50.8403 94.9879 50.9467C95.0909 51.0269 95.0626 51.6599 94.8999 52.3446C94.4572 54.4648 93.9781 58.0229 93.5437 62.6765C93.3759 64.6673 92.1864 70.0595 91.874 70.3469C91.7147 70.5037 91.4648 70.5278 91.3166 70.3813C91.1621 70.2612 90.6586 70.1972 90.159 70.2454C89.6882 70.3005 88.8069 70.2858 88.2519 70.1818C87.6906 70.1041 87.1621 70.1454 87.0668 70.2897C86.9715 70.434 86.767 70.5245 86.6226 70.4902C86.4493 70.449 86.4517 70.3105 86.6047 70.1799C86.9585 69.8467 85.5073 69.9192 85.1246 70.2456C84.9013 70.415 84.8498 70.375 84.9061 70.138C84.9436 69.98 84.6346 69.7397 84.2303 69.6436C83.8259 69.5476 83.541 69.5911 83.6252 69.7502C83.6806 69.9025 83.5439 70.0925 83.3456 70.1567C83.0833 70.2335 83.0669 70.1739 83.2614 69.9976C83.4621 69.7949 83.3942 69.6954 83 69.6852C82.6698 69.6624 82.4113 69.8513 82.419 70.0757C82.4142 70.3527 82.3338 70.3058 82.1201 69.9212C81.929 69.5698 81.527 69.3352 80.9595 69.2838C79.4202 69.085 76.2549 68.6669 75.671 68.556C75.3471 68.5068 74.7546 68.5608 74.3705 68.6364C73.8232 68.7568 73.4703 68.7008 73.1449 68.4009C72.8585 68.1938 72.5471 68.092 72.4354 68.1767C72.3175 68.2878 71.8367 68.257 71.3519 68.114C70.8961 67.9779 70.473 67.9609 70.4355 68.1189C70.4042 68.2505 70.0802 68.2013 69.7236 68.0332C69.338 67.8581 68.9274 67.7884 68.8032 67.9258C68.6791 68.0632 68.2685 67.9935 67.8829 67.8184C67.5036 67.617 66.6059 67.5429 65.8916 67.5957C65.171 67.6749 63.805 67.5172 62.8519 67.2908C60.9747 66.8448 58.0654 66.3762 55.9523 66.1523C55.2053 66.0861 53.7199 65.7889 52.5998 65.4949C51.4508 65.1942 50.71 65.1016 50.9098 65.2882C51.0807 65.4679 50.1314 65.3536 48.6812 65.0369C44.5161 64.0752 44.3654 64.0672 44.7524 64.493C45.0552 64.7596 44.9912 64.7722 44.5955 64.5113C44.3028 64.3305 43.744 64.1143 43.3334 64.0446C42.6278 63.9326 41.2063 63.6227 40.5772 63.4454C39.6593 63.1995 29.9068 61.3555 29.4774 61.3647C29.3268 61.3568 29.1183 61.3351 29.0379 61.2881C28.3722 60.8796 26.068 60.3044 25.7229 60.4728C25.3841 60.6148 25.217 60.5473 25.0736 60.1238C24.9628 59.8193 24.8309 59.7323 24.7934 59.8903C24.7058 60.259 23.8081 60.1848 23.8957 59.8161C23.9207 59.7108 23.2526 59.4408 22.3987 59.1823C21.5448 58.9238 20.5527 58.6047 20.196 58.4365C19.8394 58.2683 18.8598 57.8965 18.0059 57.638C17.1582 57.3531 16.2778 56.9493 16.0203 56.749C15.7917 56.5556 15.2102 56.3062 14.7481 56.1964C14.286 56.0866 13.7358 55.7055 13.5158 55.3473C13.2958 54.989 12.9767 54.6628 12.7745 54.6148C12.6012 54.5736 12.2243 54.2337 11.9465 53.8617C11.6462 53.4566 11.4113 53.2895 11.3612 53.5002C11.3237 53.6582 11.1692 53.538 11.0069 53.1934C10.7768 52.7493 10.8269 52.5387 11.1205 52.3303C11.3087 52.1803 11.3688 52.0554 11.2182 52.0475C10.5289 51.995 10.4798 51.8164 11.0872 51.5713C11.4549 51.4361 11.5791 51.2987 11.3543 51.2175C11.1233 51.1626 11.0929 50.905 11.3273 50.4322C11.5078 50.0578 11.5164 49.8929 11.3923 50.0304C11.2618 50.1941 11.0221 50.304 10.8777 50.2697C10.56 50.1942 10.8194 49.6161 11.2512 49.4683C11.4558 49.3778 11.4707 49.1866 11.2608 48.9142C11.0119 48.5491 10.9542 48.5354 11.0812 48.8994C11.192 49.2039 11.1217 49.2428 10.8993 49.0231C10.648 48.7965 10.7082 48.6717 11.1813 48.4781C11.7763 48.2856 11.7536 48.2524 11.0956 48.0683C10.6109 47.9253 10.5657 47.8589 10.931 47.8623C11.6328 47.8621 11.7391 47.4144 11.1038 47.2635C10.6706 47.1606 10.6831 47.1079 11.0445 46.9991C11.47 46.8776 11.4951 46.7723 11.2134 46.2881C11.045 45.9699 11.0473 45.8314 11.1956 45.9779C11.3728 46.1312 11.6288 46.0808 11.7718 45.8644C11.9085 45.6743 11.9046 45.5621 11.7125 45.6C11.5205 45.6378 11.4175 45.5577 11.455 45.3997C11.4926 45.2417 11.3895 45.1616 11.1975 45.1994C11.0054 45.2373 11.0016 45.1251 11.1383 44.935C11.2812 44.7186 11.4858 44.6281 11.6114 44.7414C11.7144 44.8215 11.8145 44.4002 11.8366 43.7935C11.865 43.1604 11.7138 42.5125 11.5429 42.3328C11.269 42.073 11.3104 42.0272 11.6858 42.1164C12.1191 42.2194 12.173 42.1209 12.0218 41.473C11.9033 40.9441 11.937 40.674 12.1931 40.6235C12.5897 40.4952 12.811 39.4351 12.5044 39.0563C12.4202 38.8972 12.3725 38.9693 12.4505 39.1547C12.5386 39.426 12.4394 39.4581 12.1241 39.2441C11.6996 38.9763 11.7058 38.95 12.3109 38.8434C12.9097 38.7631 12.9573 38.691 12.8509 37.4695C12.7483 36.3603 12.7795 36.2286 13.1237 36.4494C13.5771 36.7241 13.685 36.5271 13.4409 35.885C13.3465 35.64 13.0765 35.4924 12.8267 35.5165C12.5768 35.5406 12.3997 35.3873 12.4435 35.203C12.4873 35.0186 12.7371 34.9946 13.0649 35.1559C13.502 35.371 13.5848 35.2794 13.7397 34.3704C13.8422 33.8106 13.8051 32.9394 13.6741 32.4632C13.5167 31.8416 13.5479 31.71 13.7703 31.9297C13.999 32.1231 14.0466 32.051 14.0062 31.7076C13.9493 31.3046 14.0259 31.2394 14.3123 31.4465C14.5534 31.5872 14.7455 31.5494 14.8018 31.3124C14.8518 31.1018 14.7223 30.8763 14.5491 30.8351C14.2891 30.7734 14.343 30.6749 14.6694 30.5855C15.13 30.4446 14.9591 30.2649 14.3627 30.2067C14.241 30.2056 14.3199 30.0018 14.5268 29.7728C14.7689 29.5243 14.9518 29.0114 14.959 28.5958C14.985 28.1013 15.0865 27.9307 15.2637 28.084C15.3893 28.1973 15.54 28.2053 15.5712 28.0737C15.6088 27.9157 15.4215 27.6765 15.1804 27.5357C14.8651 27.3217 14.8675 27.1832 15.1486 27.0275C15.4296 26.8717 15.4446 26.6805 15.1894 26.3417C15.0084 26.0762 14.9516 25.6732 15.0079 25.4363C15.1369 25.0218 15.1657 25.0287 15.1812 25.4774C15.213 25.9857 15.9278 26.5728 16.0216 26.1778C16.0592 26.0198 15.9687 25.887 15.8243 25.8527C15.4488 25.7635 15.8386 23.3526 16.2203 23.4154C16.3647 23.4497 16.2742 23.317 15.9878 23.1098C15.7013 22.9027 15.6397 22.7768 15.8419 22.8248C16.0214 22.8396 16.2385 22.6965 16.2948 22.4595C16.3511 22.2225 16.2255 22.1092 15.9983 22.1665C15.7648 22.2501 15.7485 22.1906 15.9492 21.988C16.185 21.7658 16.3458 21.8596 16.6726 22.4102C16.8801 22.8211 17.0674 23.0603 17.0924 22.955C17.1174 22.8497 17.3889 23.248 17.7384 23.8317C18.4514 25.1973 18.9077 25.9733 20.1786 27.9443C20.738 28.8004 21.4018 29.9874 21.6873 30.5837C21.9728 31.1801 22.3487 31.9092 22.5235 32.2011C22.7045 32.4666 23.2903 33.4682 23.8083 34.3701C24.3489 35.3053 24.9271 36.0824 25.1581 36.1373C25.3603 36.1853 25.4094 36.3639 25.2665 36.5803C25.0946 36.7898 25.1726 36.9753 25.4325 37.037C25.6636 37.0919 25.8797 37.338 25.9452 37.5761C25.9818 37.8073 26.2268 38.0603 26.4579 38.1152C26.7178 38.1769 26.8372 38.3165 26.6841 38.4471C26.3655 38.7608 29.5196 43.8497 30.1549 44.0006C30.2705 44.0281 30.3485 44.2135 30.2984 44.4242C30.2546 44.6085 30.711 45.3845 31.3594 46.1227C31.9789 46.8541 32.5344 47.5981 32.6124 47.7835C32.6967 47.9426 32.8059 47.9964 32.831 47.8911C32.856 47.7857 33.2594 48.271 33.6931 49.0139C34.4499 50.1951 35.1685 50.8943 34.8917 50.1331C34.8426 49.9546 34.9644 49.9557 35.1993 50.1228C35.5208 50.3104 35.5247 50.4226 35.2335 50.4925C34.9712 50.5693 35.1787 50.9802 35.8848 51.7321C36.8587 52.7702 37.0647 52.9304 37.6033 52.9749C37.7188 53.0024 37.8608 53.1752 37.9552 53.4202C38.0659 53.7247 38.2166 53.7326 38.6632 53.3936C39.0748 53.0741 39.2606 53.0627 39.5157 53.4015C39.7092 53.6143 39.9792 53.7619 40.1198 53.6841C40.2603 53.6062 40.2353 53.7115 40.0572 53.9474C39.6948 54.4454 39.6659 54.4386 39.2423 53.7816C39.0324 53.5092 38.8553 53.3558 38.824 53.4875C38.7489 53.8035 39.0672 54.5189 39.3045 54.5474C39.9586 54.6194 40.3442 54.7944 40.1849 54.9513C40.1021 55.0429 40.3081 55.2031 40.6547 55.2854C41.0012 55.3678 41.3564 55.2853 41.4002 55.101C41.4378 54.943 41.3473 54.8102 41.1841 54.8549C41.0498 54.9064 40.9531 54.8 40.9843 54.6683C41.0219 54.5103 41.2553 54.4267 41.4864 54.4816C41.7463 54.5434 41.8633 54.8215 41.7882 55.1375C41.6881 55.5588 41.7849 55.6652 42.2205 55.6296C42.5054 55.5861 43.2424 55.5664 43.8224 55.5651C44.3672 55.5833 45.148 55.3793 45.5181 55.1056C45.8882 54.832 46.1568 54.7288 46.1255 54.8605C46.1005 54.9658 46.398 54.8696 46.8259 54.6096C47.2249 54.3428 47.4294 54.2523 47.2639 54.4355C47.0632 54.6382 47.1022 54.7309 47.3356 54.6473C47.5628 54.59 47.7635 54.3873 47.8073 54.203C47.8511 54.0186 48.2438 53.7782 48.6919 53.6899C49.1401 53.6016 49.45 53.4527 49.4048 53.3864C49.3595 53.32 50.0459 52.871 50.8892 52.4038C51.7387 51.9101 52.3548 51.5002 52.2682 51.4796C52.1526 51.4521 52.8015 51.1612 53.7126 50.7935C54.5886 50.4453 55.4834 50.018 55.6778 49.8417C56.3916 49.1489 74.9037 39.1652 79.5471 36.9581C80.8221 36.343 82.1674 35.689 82.5188 35.4943C82.8639 35.326 83.2027 35.1839 83.2894 35.2045C83.376 35.2251 83.9546 34.9731 84.5808 34.649C85.207 34.3248 86.0088 33.9034 86.3953 33.6892C86.8045 33.5082 87.2651 33.3673 87.4673 33.4153C87.6694 33.4633 87.8389 33.3923 87.8701 33.2607C87.9014 33.129 88.2114 32.9801 88.5479 32.9766C88.8843 32.9731 89.213 32.7452 89.2631 32.5345C89.3194 32.2975 89.431 32.2128 89.5278 32.3192C89.6862 32.5516 91.3492 31.9731 92.7546 31.1942C93.2114 30.9411 93.5527 30.6606 93.4848 30.561C93.4107 30.4878 93.5902 30.5026 93.8727 30.5975C94.149 30.7188 94.6135 30.6901 94.8657 30.5275C95.5271 30.1839 95.7807 30.272 96.3401 31.1281ZM105.293 34.9242C105.182 35.0089 104.926 35.0594 104.759 34.9919C104.499 34.9301 104.511 34.8775 104.79 34.8602C105.011 34.8292 105.131 34.5797 105.101 34.3221C105.073 33.926 105.102 33.9329 105.258 34.3037C105.381 34.5555 105.376 34.8326 105.293 34.9242ZM105.017 38.1411C104.986 38.2727 104.839 38.3769 104.666 38.3358C104.521 38.3015 104.408 38.1355 104.44 38.0038C104.477 37.8459 104.647 37.7748 104.791 37.8091C104.964 37.8503 105.055 37.9831 105.017 38.1411ZM13.8842 22.3319C13.853 22.4636 13.7639 22.5815 13.7062 22.5678C13.6195 22.5472 13.5064 22.3812 13.451 22.229C13.4019 22.0504 13.4847 21.9588 13.6291 21.9931C13.8024 22.0343 13.9218 22.1739 13.8842 22.3319ZM20.3392 24.7C20.3079 24.8316 20.1322 24.929 19.9589 24.8878C19.8145 24.8535 19.788 24.7081 19.9059 24.597C20.0301 24.4596 20.1996 24.3886 20.2862 24.4092C20.344 24.4229 20.3767 24.542 20.3392 24.7ZM10.0057 38.6574C9.97446 38.789 9.76604 38.7673 9.496 38.6197C9.20333 38.4389 9.11043 38.4447 9.20479 38.6896C9.29915 38.9346 9.2 38.9667 8.93621 38.7927C8.69505 38.652 8.62332 38.4402 8.74124 38.3291C9.01847 38.0612 10.0808 38.3414 10.0057 38.6574ZM36.1777 47.5456C36.0723 47.604 35.8061 47.5686 35.6227 47.4416C35.4104 47.3077 35.5158 47.2493 35.8335 47.3248C36.1575 47.3739 36.312 47.4941 36.1777 47.5456ZM35.6459 48.1147C35.3335 48.4021 34.9705 48.2603 34.8973 47.7978C34.8444 47.507 34.9724 47.4818 35.358 47.6569C35.628 47.8045 35.7638 48.0036 35.6459 48.1147ZM38.2212 50.1174C38.0204 50.3201 36.9316 49.8945 36.7343 49.5695C36.6726 49.4435 36.817 49.4779 37.0871 49.6255C37.3797 49.8063 37.6584 49.789 37.8365 49.5531C38.0271 49.2646 38.1489 49.2657 38.2596 49.5702C38.3314 49.782 38.3328 50.0327 38.2212 50.1174ZM47.2253 53.3136C47.6787 53.5883 47.6311 53.6604 46.7738 53.9296C45.9228 54.1725 45.8877 54.192 46.3344 53.853C46.8037 53.5473 46.8287 53.442 46.5033 53.1421C46.0748 52.7622 46.5143 52.8387 47.2253 53.3136ZM39.3211 51.9087C39.3804 52.1731 39.3178 52.4365 39.2124 52.4949C39.107 52.5533 39.068 52.4605 39.1118 52.2762C39.1618 52.0656 38.9784 51.9386 38.7223 51.989C38.2579 52.0177 38.176 51.7201 38.5976 51.4865C38.9841 51.2723 39.2542 51.4199 39.3211 51.9087ZM43.5502 52.8578C43.5315 52.9368 43.3847 53.041 43.1926 53.0788C43.0294 53.1235 42.8975 53.0365 42.9288 52.9049C42.9664 52.7469 43.142 52.6496 43.2864 52.6839C43.4597 52.725 43.5627 52.8051 43.5502 52.8578ZM41.4945 53.6768C41.2384 53.7273 41.0074 53.6724 40.9294 53.4869C40.8803 53.3084 40.732 53.1619 40.6102 53.1608C40.4885 53.1596 40.2699 53.0521 40.0803 52.9514C39.7939 52.7443 40.6401 52.7784 41.17 52.9878C41.2855 53.0152 41.4035 52.9042 41.4472 52.7198C41.4848 52.5618 41.6167 52.6488 41.7212 52.9796C41.8935 53.41 41.8271 53.5611 41.4945 53.6768ZM45.0203 54.3754C44.9453 54.6914 44.8298 54.6639 44.4177 54.3435C44.1375 54.11 43.9917 53.825 44.1096 53.7139C44.422 53.4265 45.1204 53.9541 45.0203 54.3754ZM38.1265 52.5707C38.0952 52.7023 38.0062 52.8203 37.9484 52.8066C37.8618 52.786 37.7486 52.62 37.6933 52.4678C37.6442 52.2892 37.727 52.1976 37.8714 52.2319C38.0446 52.2731 38.164 52.4127 38.1265 52.5707ZM42.5693 53.9044C42.4943 54.2203 42.3537 54.2982 42.2406 54.1323C42.1275 53.9663 42.1549 53.7224 42.2791 53.585C42.6617 53.2587 42.7132 53.2987 42.5693 53.9044ZM44.2926 54.8701C44.2613 55.0018 44.0856 55.0991 43.9123 55.058C43.7679 55.0237 43.7415 54.8783 43.8594 54.7672C43.9836 54.6298 44.153 54.5588 44.2396 54.5794C44.2974 54.5931 44.3301 54.7121 44.2926 54.8701ZM43.3386 55.0329C43.3261 55.0856 43.0411 55.1292 42.7047 55.1327C42.3682 55.1362 42.1786 55.0355 42.3254 54.9313C42.5261 54.7286 43.3886 54.8223 43.3386 55.0329ZM97.8398 71.8198C97.7031 72.0099 97.6352 71.9103 97.704 71.6207C97.744 71.3242 97.8681 71.1868 97.9298 71.3127C97.9976 71.4123 97.9702 71.6561 97.8398 71.8198ZM88.1873 75.5909C88.1435 75.7752 87.8999 75.773 87.5269 75.5452C86.6879 75.0956 86.6715 75.0361 87.2048 74.7177C87.5913 74.5035 87.742 74.5114 87.962 74.8697C88.1203 75.1021 88.2248 75.4329 88.1873 75.5909ZM75.6424 71.8873C75.6236 71.9663 75.4768 72.0705 75.2847 72.1083C75.1216 72.153 74.9897 72.066 75.021 71.9344C75.0585 71.7764 75.2342 71.679 75.3786 71.7133C75.5519 71.7545 75.6549 71.8346 75.6424 71.8873ZM88.9599 76.1917C89.1962 76.6095 89.1611 76.6289 88.788 76.4012C88.5469 76.2605 88.3885 76.0281 88.4198 75.8965C88.5011 75.5542 88.6619 75.648 88.9599 76.1917ZM10.3729 59.3296C10.2112 59.625 10.023 59.775 9.95515 59.6754C9.84828 59.4831 10.3248 58.7618 10.5269 58.8098C10.5847 58.8235 10.5284 59.0605 10.3729 59.3296ZM18.9496 61.7566C19.0921 62.5694 18.9188 62.5282 18.4875 61.6469C18.2473 61.1169 18.2333 60.9188 18.4807 61.0333C18.6704 61.134 18.8677 61.459 18.9496 61.7566ZM55.9348 70.8494C55.9074 71.0932 55.7505 71.1116 55.4867 70.9376C55.2229 70.7637 55.1839 70.671 55.4337 70.6469C55.6484 70.6422 55.75 70.4716 55.672 70.2862C55.6291 70.0813 55.6643 70.0618 55.7548 70.1946C55.8741 70.3342 55.956 70.6318 55.9348 70.8494ZM61.776 71.8198C61.1772 71.9001 61.1709 71.9264 61.8063 72.0774C62.1466 72.186 62.4041 72.3863 62.3666 72.5443C62.3228 72.7286 62.0215 72.7126 61.6008 72.5571C61.2441 72.3889 60.8499 72.3787 60.7257 72.5161C60.6304 72.6604 60.5751 72.5081 60.6501 72.1921C60.7526 71.6323 61.1617 71.4513 61.9767 71.6171C62.2366 71.6789 62.1827 71.7773 61.776 71.8198ZM44.8052 69.1511C45.3742 69.4531 46.0095 69.6041 46.4451 69.5685C47.0728 69.4951 47.2625 69.5958 47.3934 70.072C47.4979 70.4028 47.5282 70.6603 47.4931 70.6798C47.4353 70.6661 47.0763 70.6364 46.6532 70.6193C45.935 70.56 45.9413 70.5337 46.5487 70.2885C46.9164 70.1534 47.0757 69.9965 46.9024 69.9553C46.7003 69.9073 46.3388 70.0161 46.0288 70.165C45.7477 70.3208 45.3285 70.4159 45.1201 70.3942C44.9179 70.3462 44.9795 70.4721 45.2433 70.646C45.536 70.8268 45.614 71.0122 45.4446 71.0832C45.2525 71.1211 44.9762 70.9998 44.7764 70.8133C44.451 70.5134 44.4987 70.4413 45.007 70.2282C45.7135 69.951 45.5325 69.6855 44.4741 69.5175C44.0635 69.4478 43.6038 69.1994 43.4517 68.9407C43.0897 68.4096 43.5002 68.4794 44.8052 69.1511ZM11.2924 61.4953C11.2611 61.627 11.1721 61.7449 11.1143 61.7312C11.0277 61.7106 10.9146 61.5446 10.8592 61.3924C10.8101 61.2138 10.8929 61.1222 11.0373 61.1565C11.2106 61.1977 11.33 61.3373 11.2924 61.4953ZM24.2763 64.6355C24.2075 64.9252 23.8671 64.8165 23.4224 64.3771C23.1196 64.1104 23.1899 64.0714 23.6972 64.2476C24.0438 64.3299 24.3013 64.5302 24.2763 64.6355ZM34.3952 67.7628C34.3124 67.8544 33.7902 67.8694 33.2929 67.7791C32.7317 67.7014 32.4616 67.5538 32.6209 67.3969C33.0098 67.0442 32.5227 67.0398 31.7396 67.3823C31.1899 67.6411 31.1322 67.6274 31.4032 67.3858C31.6348 67.1812 31.5867 67.1698 31.2588 67.3515C30.5912 67.7214 28.984 67.423 29.5649 67.0325C29.7882 66.863 29.8961 66.6661 29.8056 66.5333C29.7377 66.4337 29.6385 66.4658 29.601 66.6238C29.5572 66.8081 29.3237 66.8918 29.0927 66.8369C28.8616 66.782 28.6282 66.8656 28.5907 67.0236C28.5406 67.2342 28.4251 67.2068 28.1864 66.9275C27.9765 66.6551 27.8032 66.614 27.679 66.7514C27.5775 66.922 27.202 66.8327 26.53 66.4505C25.421 65.8533 24.453 65.8181 24.6518 66.3938C24.7236 66.6056 24.5628 66.5118 24.3077 66.173C23.9105 65.6614 23.6569 65.5733 23.1447 65.6741C22.2711 65.8838 22.1618 65.8301 22.2995 65.2508C22.4559 64.5925 23.1163 64.6381 24.8029 65.3726C25.937 65.8646 26.2094 65.8737 26.685 65.5416C27.0074 65.34 27.1417 65.2885 26.9887 65.419C26.8582 65.5828 26.8785 65.7545 27.0229 65.7888C27.1962 65.83 27.3781 65.7063 27.4219 65.5219C27.4719 65.3113 27.536 65.2987 27.6592 65.5505C27.7536 65.7954 28.2671 65.9453 29.1937 66.0264C29.9634 66.1258 30.6854 66.2973 30.7985 66.4632C30.9117 66.6292 31.3511 66.7058 31.8281 66.6244C32.4909 66.5315 32.7509 66.5932 33.0123 66.9057C33.2736 67.2182 33.4469 67.2593 33.8334 67.0452C34.2324 66.7783 34.3191 66.7989 34.4462 67.1629C34.5117 67.401 34.5069 67.678 34.3952 67.7628ZM35.2635 67.1902C35.2322 67.3219 35.1432 67.4398 35.0854 67.4261C34.9988 67.4055 34.8856 67.2395 34.8303 67.0873C34.7812 66.9087 34.864 66.8171 35.0084 66.8514C35.1816 66.8926 35.301 67.0322 35.2635 67.1902ZM35.9855 67.3617C35.8676 67.4728 35.8878 67.6445 36.0322 67.6788C36.1993 67.7463 36.4818 67.8412 36.6777 67.9156C36.851 67.9568 36.968 68.2349 36.9632 68.5119C36.9146 68.9733 36.8857 68.9664 36.5112 68.488C36.2335 68.116 36.0149 68.0085 35.7338 68.1642C35.4527 68.32 35.3146 68.2594 35.2265 67.9881C35.1032 67.7363 35.1735 67.6974 35.3959 67.9171C35.6472 68.1437 35.7175 68.1047 35.6419 67.7808C35.6115 67.5232 35.6741 67.2599 35.7795 67.2015C36.1309 67.0068 36.2565 67.1201 35.9855 67.3617ZM43.2625 69.48C43.2062 69.717 42.915 69.7869 42.6036 69.6851C42.2922 69.5833 42.0573 69.4162 42.0885 69.2845C42.1198 69.1529 42.3345 69.1482 42.5405 69.3085C42.7528 69.4423 42.9675 69.4377 42.9987 69.3061C43.0363 69.1481 43.1191 69.0565 43.2057 69.0771C43.2923 69.0977 43.3126 69.2693 43.2625 69.48ZM20.8424 64.3205C20.8977 64.4727 20.8087 64.5906 20.6643 64.5563C20.491 64.5152 20.3779 64.3492 20.4092 64.2175C20.4467 64.0596 20.5295 63.968 20.5872 63.9817C20.6739 64.0023 20.7933 64.1419 20.8424 64.3205ZM12.5551 62.6019C12.5238 62.7336 12.2841 62.8435 12.0632 62.8745C11.7493 62.9112 11.6814 62.8117 11.8595 62.5758C12.1266 62.222 12.6426 62.2333 12.5551 62.6019ZM36.4766 69.1475C36.5546 69.3329 36.2119 69.3627 35.692 69.2392C35.1722 69.1157 34.8795 68.9349 35.0325 68.8044C35.1567 68.667 35.5283 68.644 35.8171 68.7126C36.1059 68.7812 36.4275 68.9689 36.4766 69.1475ZM17.4355 64.7907C17.3301 64.8491 17.0639 64.8137 16.8805 64.6866C16.6682 64.5528 16.7736 64.4943 17.0913 64.5698C17.4153 64.6189 17.5698 64.7391 17.4355 64.7907Z" fill="#F89DA8"/>
<path fill-rule="evenodd" clip-rule="evenodd" d="M41.4015 18.2347C41.364 18.3927 41.4381 18.4659 41.5435 18.4075C41.6778 18.356 41.9892 18.4578 42.2405 18.6844C42.6299 18.9716 42.7517 18.9727 42.8268 18.6567C42.8831 18.4198 42.6607 18.2 42.1986 18.0902C41.7943 17.9942 41.4453 18.0504 41.4015 18.2347Z" fill="#171717"/>
<path fill-rule="evenodd" clip-rule="evenodd" d="M13.7514 34.4483C13.6826 34.7379 13.7543 34.9497 13.9526 34.8855C14.1158 34.8408 14.2299 34.6176 14.1644 34.3795C14.0936 33.7785 13.9078 33.79 13.7514 34.4483Z" fill="#171717"/>
<path fill-rule="evenodd" clip-rule="evenodd" d="M103.774 47.351C103.705 47.6407 103.773 47.7403 103.909 47.5502C104.04 47.3865 104.067 47.1426 103.999 47.0431C103.938 46.9172 103.813 47.0545 103.774 47.351Z" fill="#171717"/>
<path fill-rule="evenodd" clip-rule="evenodd" d="M100.203 68.0335C100.085 68.1446 100.112 68.29 100.256 68.3243C100.429 68.3655 100.605 68.2681 100.636 68.1365C100.674 67.9785 100.641 67.8594 100.583 67.8457C100.497 67.8251 100.327 67.8961 100.203 68.0335Z" fill="#171717"/>
<path fill-rule="evenodd" clip-rule="evenodd" d="M96.3649 75.3279C96.222 75.5443 96.2711 75.7228 96.531 75.7846C96.7621 75.8395 97.008 75.7032 97.0581 75.4925C97.1081 75.2819 97.0364 75.0701 96.892 75.0358C96.7476 75.0015 96.5305 75.1447 96.3649 75.3279Z" fill="#171717"/>
<path fill-rule="evenodd" clip-rule="evenodd" d="M91.5089 77.7903C91.3722 77.9804 91.3862 78.1785 91.5306 78.2128C91.9061 78.302 92.2786 77.8897 91.9984 77.6563C91.8728 77.543 91.6745 77.6071 91.5089 77.7903Z" fill="#171717"/>
<path fill-rule="evenodd" clip-rule="evenodd" d="M80.7253 76.1744C80.6877 76.3324 80.7595 76.5441 80.914 76.6643C81.0685 76.7845 81.1224 76.686 81.0858 76.4547C80.9963 75.9328 80.8129 75.8057 80.7253 76.1744Z" fill="#171717"/>
<path fill-rule="evenodd" clip-rule="evenodd" d="M90.776 78.9515C90.2692 79.4153 90.2981 79.4221 90.8892 79.1175C91.2405 78.9228 91.4764 78.7006 91.4022 78.6274C91.3344 78.5278 91.0533 78.6836 90.776 78.9515Z" fill="#171717"/>
<path fill-rule="evenodd" clip-rule="evenodd" d="M75.7128 75.957C75.5698 76.1734 75.3364 76.257 75.2396 76.1506C75.114 76.0373 74.8993 76.0419 74.7751 76.1793C74.5807 76.3557 74.4137 76.2882 74.1749 76.0089C73.9814 75.7961 73.7402 75.6553 73.5997 75.7332C73.4943 75.7916 73.5333 75.8843 73.7643 75.9392C74.0531 76.0078 74.0344 76.0868 73.6705 76.3342C73.3417 76.5621 73.2628 76.7658 73.4212 76.9982C73.6022 77.2637 73.7528 77.2717 73.9122 77.1148C74.0652 76.9843 74.0098 76.8321 73.8139 76.7577C73.618 76.6833 73.7812 76.6386 74.2106 76.6294C74.6462 76.5938 75.1886 76.7505 75.4688 76.984C75.8067 77.2311 75.8934 77.2517 75.8279 77.0136C75.7499 76.8282 75.8389 76.7102 75.9833 76.7446C76.3877 76.8406 76.5566 76.1297 76.2312 75.8298C76.0766 75.7097 75.8495 75.767 75.7128 75.957Z" fill="#171717"/>
<path fill-rule="evenodd" clip-rule="evenodd" d="M77.1884 76.1686C76.8659 76.3701 76.9704 76.701 77.4036 76.8039C77.6924 76.8725 77.7704 77.0579 77.5986 77.2675C77.4556 77.4839 77.5048 77.6624 77.7358 77.7173C77.9668 77.7722 78.2542 77.5901 78.4034 77.3474C78.5776 76.9993 78.8337 76.9489 79.2419 77.1572C79.6274 77.3322 79.8421 77.3276 79.9047 77.0643C79.9672 76.801 79.6105 76.6327 78.6575 76.4063C77.9355 76.2348 77.2876 76.1365 77.1884 76.1686Z" fill="#171717"/>
<path fill-rule="evenodd" clip-rule="evenodd" d="M80.1744 77.2117C80.1431 77.3434 80.275 77.4303 80.4381 77.3856C80.6302 77.3478 80.777 77.2436 80.7958 77.1646C80.8083 77.112 80.7053 77.0318 80.532 76.9907C80.3876 76.9564 80.2119 77.0537 80.1744 77.2117Z" fill="#171717"/>
<path fill-rule="evenodd" clip-rule="evenodd" d="M81.1821 77.5902C81.0103 77.7998 80.9477 78.0631 81.0156 78.1627C81.0546 78.2554 81.2365 78.1317 81.4083 77.9222C81.5802 77.7126 81.6427 77.4493 81.5748 77.3497C81.5358 77.257 81.3539 77.3807 81.1821 77.5902Z" fill="#171717"/>
<path fill-rule="evenodd" clip-rule="evenodd" d="M83.0694 77.8716C82.6728 77.9999 82.718 78.0663 83.2379 78.1898C83.6133 78.279 83.8405 78.2217 83.7914 78.0431C83.6643 77.6791 83.6932 77.686 83.0694 77.8716Z" fill="#171717"/>
<path fill-rule="evenodd" clip-rule="evenodd" d="M68.6832 75.6223C68.3177 75.962 68.3864 76.0154 68.8892 75.7825C69.6497 75.4068 69.7739 75.2694 69.4273 75.1871C69.3118 75.1596 68.9893 75.3612 68.6832 75.6223Z" fill="#171717"/>
<path fill-rule="evenodd" clip-rule="evenodd" d="M79.453 77.68C79.3967 77.917 80.2318 78.2545 80.4263 78.0782C80.5794 77.9476 80.4022 77.7943 80.0845 77.7188C79.7379 77.6365 79.4655 77.6274 79.453 77.68Z" fill="#171717"/>
<path fill-rule="evenodd" clip-rule="evenodd" d="M63.2248 74.3255C62.7329 74.5981 62.5625 75.0583 63.0232 74.9174C63.2152 74.8796 63.3182 74.9596 63.2744 75.144C63.2119 75.4073 63.2985 75.4279 63.5796 75.2721C63.8256 75.1358 63.917 74.8794 63.8063 74.5749C63.6854 74.1845 63.541 74.1503 63.2248 74.3255Z" fill="#171717"/>
<path fill-rule="evenodd" clip-rule="evenodd" d="M71.4105 76.2145C71.2864 76.3519 71.3956 76.4057 71.6454 76.3816C72.2091 76.3208 72.3395 76.157 71.9352 76.0609C71.7619 76.0198 71.5347 76.0771 71.4105 76.2145Z" fill="#171717"/>
<path fill-rule="evenodd" clip-rule="evenodd" d="M76.3199 77.381C76.202 77.4921 76.2285 77.6375 76.3729 77.6718C76.5462 77.7129 76.7219 77.6156 76.7532 77.4839C76.7907 77.3259 76.7579 77.2069 76.7002 77.1932C76.6135 77.1726 76.4441 77.2436 76.3199 77.381Z" fill="#171717"/>
<path fill-rule="evenodd" clip-rule="evenodd" d="M64.4168 74.8311C64.1459 75.0727 64.311 75.9187 64.6576 76.0011C64.802 76.0354 64.8848 75.9437 64.8294 75.7915C64.6407 75.3016 65.561 75.409 66.2243 75.956C66.5849 76.2364 66.9642 76.4377 67.0696 76.3793C67.3218 76.2167 66.2979 75.3893 65.3535 74.998C64.9391 74.8161 64.4996 74.7395 64.4168 74.8311Z" fill="#171717"/>
<path d="M68.9943 76.7532C69.1538 76.7911 69.3111 76.7039 69.3456 76.5585C69.3802 76.413 69.2789 76.2644 69.1194 76.2265C68.9599 76.1886 68.8026 76.2758 68.768 76.4212C68.7335 76.5667 68.8347 76.7153 68.9943 76.7532Z" fill="#171717"/>
<path fill-rule="evenodd" clip-rule="evenodd" d="M69.7794 76.6614C69.6615 76.7725 69.688 76.9179 69.8324 76.9522C70.0057 76.9934 70.1813 76.896 70.2126 76.7644C70.2502 76.6064 70.2174 76.4873 70.1597 76.4736C70.073 76.453 69.9036 76.524 69.7794 76.6614Z" fill="#171717"/>
<path fill-rule="evenodd" clip-rule="evenodd" d="M65.3377 76.2183C65.3931 76.3705 65.589 76.4449 65.7521 76.4002C66.1839 76.2524 66.1449 76.1597 65.6539 76.043C65.4229 75.9881 65.2823 76.066 65.3377 76.2183Z" fill="#171717"/>
<path fill-rule="evenodd" clip-rule="evenodd" d="M59.9987 75.4505C59.8807 75.5616 59.9072 75.707 60.0516 75.7413C60.2249 75.7825 60.4006 75.6851 60.4319 75.5535C60.4694 75.3955 60.4367 75.2764 60.3789 75.2627C60.2923 75.2421 60.1228 75.3131 59.9987 75.4505Z" fill="#171717"/>
<path fill-rule="evenodd" clip-rule="evenodd" d="M57.9137 75.2334C57.7958 75.3444 57.8223 75.4898 57.9667 75.5241C58.14 75.5653 58.3156 75.4679 58.3469 75.3363C58.3844 75.1783 58.3517 75.0593 58.2939 75.0455C58.2073 75.025 58.0379 75.096 57.9137 75.2334Z" fill="#171717"/>
<path fill-rule="evenodd" clip-rule="evenodd" d="M52.6958 74.4666C52.8792 74.5936 53.1454 74.629 53.2508 74.5706C53.3851 74.519 53.2305 74.3989 52.9066 74.3497C52.5889 74.2743 52.4835 74.3327 52.6958 74.4666Z" fill="#171717"/>
</svg>
