<svg width="93" height="100" viewBox="0 0 93 100" fill="none" xmlns="http://www.w3.org/2000/svg">
<path d="M24.7914 42.0344C24.6622 40.8682 23.8747 39.7951 22.4103 39.7951C17.655 39.7951 12.9008 39.7857 8.14815 39.6229C6.49915 39.5673 5.7064 40.8977 5.75199 42.2213C5.47601 42.6102 5.31176 43.1181 5.32885 43.7438C5.72879 59.2784 7.5746 74.729 7.81701 90.2717C7.83716 91.5285 8.56315 92.3076 9.454 92.6121C9.78433 92.8276 10.1729 92.9799 10.6373 93.0187C14.6727 93.3542 18.7081 93.7 22.7435 94.0488C23.2649 94.0945 23.6917 93.9834 24.043 93.7844C25.3139 93.8223 26.5943 92.9999 26.5576 91.3016C26.2082 75.0988 25.4114 58.9114 24.8993 42.7139C24.8907 42.4666 24.8482 42.2449 24.7914 42.0344ZM12.7308 88.0455C12.3696 73.6129 10.7739 59.2504 10.343 44.8193C13.5625 44.8987 16.7807 44.9315 20.0003 44.937C20.4839 59.557 21.1574 74.1696 21.513 88.7934C18.5852 88.5423 15.6588 88.2911 12.7308 88.0455Z" fill="#6D5DC9"/>
<path d="M13.5812 5.97282C13.4112 5.9923 13.2541 6.03213 13.102 6.07721C5.70413 6.43853 0.371237 12.8086 0.0136351 20.8038C-0.34295 28.7783 6.34851 35.1954 13.7476 35.1726C20.7338 35.1507 26.8094 29.3015 27.7737 22.2845C29.0236 13.1957 22.6012 4.9381 13.5812 5.97282ZM15.427 29.7795C3.30797 33.2073 1.70395 11.4878 12.8572 11.0926C13.0784 11.1337 13.3145 11.1543 13.5822 11.1232C13.6638 11.1145 13.7379 11.1145 13.8185 11.1077C14.1213 11.1287 14.4262 11.1517 14.7455 11.2033C15.1774 11.272 15.5723 11.2316 15.9289 11.1188C25.2621 12.1884 24.863 27.1095 15.427 29.7795Z" fill="#6D5DC9"/>
<path d="M87.5008 44.7361C79.3091 31.4681 65.7782 27.3929 51.651 30.4612C51.5134 28.5881 51.2696 26.7226 51.0133 24.8613C50.8532 23.6955 49.6458 22.996 48.5639 22.9925C48.3736 22.9632 48.1711 22.9514 47.951 22.9709C44.142 23.3009 40.3288 23.4727 36.5084 23.4865C35.0185 23.4919 34.2301 24.6061 34.123 25.7951C34.0713 25.9853 34.0341 26.1869 34.0202 26.4042C32.7227 47.3829 32.3873 68.3985 32.8585 89.4134C32.903 91.3471 34.6088 92.1472 36.0124 91.826C41.0436 92.1448 46.0666 92.2958 51.1023 91.9881C51.9498 91.9371 52.5657 91.5303 52.9646 90.9702C53.4225 90.5636 53.6953 89.9344 53.5888 89.0698C52.3599 78.9845 44.9589 47.8433 61.4363 48.1607C61.6256 48.1972 61.8271 48.218 62.0471 48.2073C82.4148 47.31 72.6687 76.6142 73.5285 90.5065C73.6463 92.4013 75.3372 93.2082 76.718 92.9272C76.9123 92.9994 77.1169 93.0561 77.3432 93.0815C81.6438 93.5829 85.9546 93.926 90.28 94.1118C91.9263 94.183 92.7189 92.8626 92.6747 91.5414C92.7439 91.2815 92.7852 91 92.7677 90.679C91.8354 74.6075 96.0346 58.558 87.5008 44.7361ZM87.6766 88.8266C84.572 88.6478 81.4745 88.3778 78.379 88.0366C77.6257 70.6433 85.8101 44.7361 62.5301 43.0562C41.2891 42.84 46.3372 72.3127 48.3357 86.9463C44.8177 87.0509 41.3031 86.9618 37.7872 86.774C37.4135 67.3728 37.7365 47.9731 38.8707 28.603C41.4055 28.5502 43.936 28.4152 46.4655 28.2239C46.6448 29.7847 46.775 31.3506 46.7895 32.927C46.7956 33.6393 47.0386 34.1891 47.4025 34.5951C47.8273 35.6786 48.8606 36.4909 50.2705 36.0964C64.8432 32.0179 77.205 36.401 84.8191 50.0918C91.4025 61.9252 86.8033 75.3267 87.6766 88.8266Z" fill="#6D5DC9"/>
</svg>
