<svg width="370" height="190" viewBox="0 0 370 190" fill="none" xmlns="http://www.w3.org/2000/svg">
<path d="M231.86 182.239L232.072 184H233.846H365.096H367.096V182V154.5V152.5H365.096H271.559C272.531 150.688 274.018 148.807 276.012 146.832C278.937 143.936 282.812 140.975 287.375 137.863C291.932 134.755 297.101 131.547 302.596 128.136C308.078 124.733 313.871 121.137 319.616 117.286C342.445 101.983 365.346 82.1408 365.346 52.75C365.346 37.5527 359.286 24.7965 348.63 15.8729C338.005 6.97582 322.954 2 305.096 2C278.78 2 253.651 14.2486 239.985 32.8144L238.973 34.1893L240.172 35.4047L258.672 54.1547L260.619 56.1276L261.878 53.6584C267.935 41.776 283.596 33.5 301.596 33.5C310.854 33.5 318.34 35.4548 323.452 39.016C328.478 42.5168 331.346 47.6537 331.346 54.5C331.346 64.5194 325.172 72.898 315.29 81.1103C308.276 86.9396 299.687 92.4584 290.605 98.2933C286.864 100.698 283.038 103.155 279.205 105.711C253.244 123.018 227.33 144.579 231.86 182.239ZM25.5 143.25C18.2734 143.25 12.3517 145.224 8.2238 149.105C4.07952 153.002 2 158.578 2 165.25C2 171.922 4.07952 177.498 8.2238 181.395C12.3517 185.276 18.2734 187.25 25.5 187.25C32.6107 187.25 38.4701 185.271 42.5637 181.389C46.671 177.494 48.75 171.921 48.75 165.25C48.75 158.579 46.671 153.006 42.5637 149.111C38.4701 145.229 32.6107 143.25 25.5 143.25ZM222.645 94.75C222.645 65.6125 216.09 42.3996 202.84 26.4411C189.538 10.4207 169.73 2 143.895 2C118.059 2 98.1915 10.4201 84.8276 26.4375C71.5135 42.395 64.8945 65.6084 64.8945 94.75C64.8945 123.891 71.5135 147.044 84.8302 162.941C98.1961 178.896 118.064 187.25 143.895 187.25C169.725 187.25 189.533 178.895 202.837 162.937C216.09 147.04 222.645 123.887 222.645 94.75ZM143.895 157.5C125.553 157.5 114.595 151.235 108.067 140.609C101.407 129.768 99.1445 114.065 99.1445 94.75C99.1445 75.5633 101.406 59.7922 108.071 48.8531C114.606 38.1287 125.568 31.75 143.895 31.75C162.22 31.75 173.116 38.1273 179.589 48.8463C186.194 59.7855 188.395 75.5572 188.395 94.75C188.395 114.071 186.193 129.775 179.592 140.616C173.127 151.236 162.235 157.5 143.895 157.5Z" stroke="#686DFA" stroke-width="4"/>
</svg>
