<svg width="92" height="88" viewBox="0 0 92 88" fill="none" xmlns="http://www.w3.org/2000/svg">
<path d="M12.1465 38.598C13.8815 37.9973 15.5196 37.358 17.1959 36.8527C18.4451 36.4759 19.7612 36.2734 21.0401 36.0007C21.5758 35.8917 22.19 35.9381 22.6395 35.7077C24.672 34.6446 26.8524 34.5826 29.0743 34.6057C30.0569 34.6191 31.062 34.5305 32.0289 34.308C33.5113 33.9657 34.1309 33.0666 34.1602 31.6028C34.1813 30.8932 34.1416 30.1516 34.3074 29.4679C35.44 24.9456 36.645 20.4361 37.7457 15.9222C38.2174 14.0219 38.5241 12.0852 38.9032 10.1613C39.1377 8.99549 39.8845 8.54287 41.1145 8.21907C44.1176 7.42849 45.9639 9.08651 47.6419 10.7569C48.6479 11.7561 49.9329 12.6499 50.405 14.1257C50.5779 14.6722 51.1662 15.1093 51.6021 15.5546C52.9186 16.9201 54.2468 18.2666 55.5909 19.6089C56.2672 20.2949 56.7358 21.0355 56.9871 21.9774C57.4249 23.5742 58.2368 23.9526 59.9099 23.4961C61.1836 23.1448 62.3904 22.6191 63.6184 22.1678C64.8422 21.7016 66.1521 21.3568 67.2568 20.7139C68.6641 19.9274 69.9927 18.9857 71.1916 17.95C72.236 17.0351 73.4288 16.641 74.7619 16.4981C75.7787 16.3904 76.4703 16.7685 76.8803 17.6046C77.3402 18.5556 77.6722 19.5401 77.424 20.5975C76.3211 25.2241 75.2746 29.8678 74.0269 34.4685C73.6324 35.9164 73.6907 37.0851 74.6028 38.237C75.5724 39.4699 76.5696 40.6794 77.4837 41.9589C78.3361 43.1425 79.2685 44.3052 79.8621 45.605C82.2801 51.0167 85.7878 55.8536 88.977 60.8383C89.2565 61.2767 89.6553 61.6518 89.9188 62.0945C90.907 63.7544 90.3005 66.2662 88.5565 67.3173C88.0601 67.624 87.2519 67.7408 86.6921 67.5842C85.7619 67.333 84.8926 66.8738 84.067 66.3871C82.5733 65.4842 81.0005 64.9062 79.193 64.71C78.0242 64.5857 76.9058 64.0961 75.7543 63.7912C72.7188 63.0222 69.976 61.4721 66.7474 61.17C64.3661 60.9488 62.0375 60.2499 59.9373 59.0266C58.9298 58.4438 57.7495 58.0985 56.6791 57.5962C55.5118 57.0555 54.3403 56.4998 53.2317 55.8636C51.5444 54.8837 50.6149 54.9365 49.7092 56.519C48.3385 58.8799 47.0486 61.2835 45.9364 63.7684C43.4986 69.1944 41.7142 74.8644 38.9901 80.1898C38.6594 80.8369 38.3168 81.5031 37.885 82.0968C37.0522 83.212 35.7072 83.6141 34.3896 83.2089C33.1285 82.8209 32.2333 81.7285 32.2529 80.4112C32.2762 79.589 32.3997 78.7566 32.5677 77.9603C32.8247 76.6926 32.7377 75.4834 32.0309 74.3894C31.2786 73.1954 31.1821 71.8927 31.173 70.535C31.1451 67.9662 31.1012 65.4017 30.5484 62.8591C30.1851 61.1626 30.4342 59.385 29.8144 57.6921C29.6637 57.2837 29.9188 56.6725 30.1727 56.2377C30.4223 55.7879 30.9146 55.4664 31.2248 55.0487C31.7473 54.3511 31.4798 53.6535 30.5731 53.3641C30.158 53.2334 29.7237 53.1557 29.297 53.044C21.9393 51.2688 15.016 48.5472 8.49612 44.9513C6.39271 43.7769 6.25637 41.9727 8.05632 40.3948C9.28715 39.3507 10.5252 38.5128 12.1465 38.598ZM37.909 67.6577C38.5358 66.9647 38.8683 66.6852 39.0795 66.3416C39.4239 65.8029 39.7322 65.2577 39.9799 64.6805C40.8692 62.5583 41.8435 60.4937 43.2212 58.5789C44.0806 57.3766 44.6825 56.1141 44.811 54.5762C44.9232 53.2826 45.5283 51.9713 46.1514 50.7832C46.5057 50.0979 47.2739 49.4797 48.01 49.1099C48.8494 48.6809 49.8663 48.5732 50.5212 48.4007C51.5871 49.1282 52.3196 50.0715 53.1138 50.0864C55.1035 50.1386 56.6653 51.0395 58.3872 51.6583C60.0122 52.2386 61.8174 52.5474 63.3016 53.3567C66.3828 55.0097 69.8379 55.6842 73.0419 56.9849C73.8773 57.325 74.7354 57.3231 75.6172 57.043C76.5906 56.7227 77.0247 56.0164 76.6936 55.0955C76.1577 53.6365 75.6536 52.1691 74.9664 50.7819C74.002 48.8437 72.898 46.9583 71.8142 45.0835C71.6123 44.7366 71.2784 44.4085 70.9145 44.2163C68.7792 43.0503 68.1766 41.1768 68.0109 39.0284C67.9406 38.1188 67.6978 37.2067 67.5115 36.3117C67.1897 34.7003 67.4522 33.2712 68.8046 32.0511C69.3385 31.5745 69.9056 30.9132 70.016 30.2761C70.2283 28.9722 70.2032 27.6187 70.1664 26.2843C70.1385 25.5236 69.3247 25.0178 68.5015 25.2025C67.7582 25.3662 67.0574 25.6787 66.3108 25.8913C64.8379 26.327 63.3895 26.7883 61.8912 27.1347C60.7166 27.4119 59.4699 27.4361 58.3198 27.7389C56.7863 28.1426 55.4782 27.8309 54.2943 26.9906C53.5198 26.4424 52.7487 25.8453 52.1203 25.1467C50.6274 23.5236 49.19 21.8539 47.7845 20.1758C46.5831 18.732 45.4766 17.1992 44.2433 15.7638C43.8881 15.3613 43.2517 15.1768 42.6123 14.8011C42.3774 15.4229 42.1704 15.7814 42.0763 16.1742C40.9197 21.215 39.7269 26.2492 38.6831 31.3242C38.3886 32.7618 37.9687 34.1204 37.2592 35.4272C35.2599 39.1377 34.8423 39.3596 30.4502 39.7958C27.2752 40.1036 24.1148 40.5836 20.9578 41.0147C20.7097 41.048 20.49 41.3618 20.1533 41.6265C20.9513 42.9205 22.2229 43.4658 23.5414 43.9347C26.5893 44.9884 29.0315 46.8096 31.2349 48.9977C32.4568 50.2121 33.5978 51.3838 33.5063 53.232C33.4833 53.8141 33.7338 54.4522 34.011 55.0032C35.7987 58.5648 36.6758 62.3661 37.2175 66.2557C37.2747 66.5767 37.5404 66.9067 37.909 67.6577Z" fill="#F89DA8"/>
</svg>
