<svg width="120" height="126" viewBox="0 0 120 126" fill="none" xmlns="http://www.w3.org/2000/svg">
<path fill-rule="evenodd" clip-rule="evenodd" d="M64.2858 0H55.7143V39.8495L41.4973 2.90167L33.55 6.27313L48.1353 44.1781L20.6041 15.2703L14.5432 21.6343L40.9306 49.341L6.73446 33.6534L3.30275 41.9006L39.4863 58.5H0V67.5001H39.4862L3.30277 84.0993L6.73446 92.3467L40.9306 76.659L14.5432 104.366L20.6041 110.729L48.1353 81.8219L33.55 119.727L41.4973 123.098L55.7143 86.1506V126H64.2858V86.1506L78.5028 123.098L86.4498 119.727L71.865 81.8219L99.396 110.729L105.457 104.366L79.0692 76.659L113.266 92.3467L116.697 84.0993L80.514 67.5001H120V58.5H80.5134L116.697 41.9006L113.266 33.6534L79.0692 49.341L105.457 21.6342L99.396 15.2703L71.865 44.178L86.4498 6.27313L78.5028 2.90167L64.2858 39.8495V0Z" fill="white"/>
</svg>
