<svg width="225" height="39" viewBox="0 0 225 39" fill="none" xmlns="http://www.w3.org/2000/svg">
<path d="M171.006 3.3683C171.857 4.69188 172.686 5.9682 173.607 7.38632C174.228 6.62999 174.895 6.2046 175.218 5.30645C177.174 -0.0351555 179.89 -0.980642 182.629 0.862922C185.529 2.80103 188.29 1.76114 191.167 1.76114C194.597 1.76114 198.095 0.81572 201.547 3.65197C204.056 5.73189 207.002 6.81912 208.889 0.81572C210.339 1.90295 211.582 3.74647 212.825 3.60465C214.574 3.46284 214.942 6.96096 216.208 7.57548C217.474 8.19 218.786 8.52089 220.857 9.22996C219.822 6.96096 219.361 5.92097 218.878 4.83374C221.225 3.88833 222.814 7.19724 225 9.0408C224.425 10.0335 224.148 10.9789 223.803 11.0735C221.502 11.688 219.292 12.8698 217.336 15.5642C216.231 17.0769 215.034 17.1714 213.814 16.3678C212.019 15.186 210.293 15.5642 208.406 16.0369C205.414 16.7932 202.353 16.4151 199.315 16.3206C197.819 16.2733 196.323 15.7061 194.873 15.3752C194.735 14.6661 194.666 14.0988 194.551 13.5315C194.113 11.6407 193.377 11.1208 192.986 12.3971C192.594 13.6734 192.341 15.1388 191.973 16.7933C188.682 16.9351 185.483 17.0768 182.283 17.1714C180.442 17.2186 178.601 17.0296 176.783 17.4077C174.964 17.7859 173.468 16.746 172.18 14.1934C172.548 14.3352 172.916 14.477 173.284 14.6188C173.284 14.5715 173.284 14.5715 173.284 14.5243C172.916 14.3825 172.548 14.2879 172.203 14.1461C172.157 15.7533 171.512 16.6042 170.96 16.0842C169.142 14.477 167.415 15.3279 165.62 16.0842C163.388 16.9824 161.086 17.5496 158.808 17.7859C154.228 18.3532 149.647 18.5896 145.044 19.015C143.871 19.1095 142.927 18.3532 142.398 15.3279C140.764 18.3532 138.991 18.8259 137.127 18.5423C133.767 17.975 130.407 17.975 127.092 20.3858C126.678 19.1095 126.333 18.1169 125.919 16.8878C124.745 17.6441 123.502 18.7314 122.236 19.1095C121.039 19.4877 119.727 18.5895 118.6 19.204C114.112 21.7567 109.463 20.244 104.929 21.8985C104.192 22.1821 103.41 21.8512 102.65 21.6621C101.269 21.2839 99.9802 21.804 98.5993 22.324C95.6073 23.5057 92.5463 23.8366 89.5082 24.4984C87.3908 24.9238 85.2503 25.302 83.1329 25.6801C82.8337 25.7274 82.5115 26.011 82.2353 25.9165C75.814 23.9784 69.5308 28.8001 63.1095 27.6656C57.0104 30.7855 50.6352 28.4219 44.5361 31.4473C44.2369 31.5891 43.9147 31.589 43.6155 31.589C40.8536 31.2581 38.2068 32.2508 35.491 33.1963C24.9499 36.8361 14.2938 38.4905 3.61467 38.916C3.15436 38.916 2.69405 39.105 2.25675 38.916C0.967891 38.4433 -0.182869 35.3707 0.0242694 32.7236C0.277439 29.3201 0.622653 25.9637 0.898839 22.8439C1.2901 22.2294 1.52027 21.6149 1.77344 21.5676C5.73209 20.7167 9.73677 18.8258 13.6264 19.5349C17.2168 20.1967 20.577 19.2041 24.0063 18.0696C24.9039 17.786 25.8245 18.0222 26.7451 17.8804C27.9419 17.7386 29.2078 17.8804 30.3356 17.1714C34.7085 14.2878 38.7362 15.8951 42.925 20.6222C45.4107 16.3678 48.2416 12.6334 51.924 16.2733C52.7986 14.3824 53.6042 12.6334 54.5708 10.5534C55.3073 11.2152 55.9977 11.7353 56.6192 12.3971C58.3453 14.2879 59.8643 13.7207 61.1532 10.7426L61.1072 10.6953C62.6722 11.688 64.2373 12.6334 65.8714 13.6734C66.1705 12.0189 66.4237 10.6008 66.792 8.61541C68.0118 8.94631 69.3467 9.04087 70.5895 9.70267C72.0395 10.459 73.2593 10.459 74.226 7.76451C74.226 7.71724 74.6172 8.2372 74.8244 8.5681C74.8704 8.89899 74.9164 9.22989 74.9624 9.51351C75.0085 9.74987 75.0545 9.98622 75.1006 10.2226C75.0085 9.60805 74.9164 9.04078 74.8244 8.42626C76.6196 9.60803 78.0926 8.47362 79.0822 5.44829C80.8774 6.34643 80.5782 9.56081 81.1766 11.5462C82.0052 14.2879 83.0639 15.4697 84.813 14.5243C84.2607 13.5789 83.7774 12.9644 83.4321 12.0662C82.9028 10.6481 83.1329 8.37906 83.8234 8.1427C85.6186 7.48091 87.4138 7.00823 89.232 6.63006C90.728 6.29916 92.4542 7.10268 93.72 5.82636C95.6073 3.88826 97.3104 4.21925 98.9675 5.68464C100.464 7.00823 101.867 7.15004 103.41 6.63006C104.606 6.25189 105.872 6.25182 107.069 6.67726C108.795 7.24451 110.36 7.29185 111.948 5.44829C112.685 4.64468 113.72 4.97551 114.618 4.78643C115.355 4.59734 116.183 4.69193 116.851 4.12468C118.738 2.4702 120.74 2.8011 122.65 1.99749C126.747 0.24847 130.384 2.80103 134.158 4.88094C135.148 5.40092 136.483 5.82641 137.242 4.92826C138.577 3.32105 139.889 4.7392 141.155 3.88833C142.283 3.13199 143.502 2.9902 144.607 2.61204C145.436 4.59741 146.103 6.67726 147.001 8.09539C147.484 8.85172 148.589 8.94633 149.072 8.28454C149.44 7.76456 149.279 5.5901 149.371 4.03016C152.271 2.42295 154.435 7.81178 157.105 8.70993C157.496 6.44093 156.736 6.34634 156.299 5.59001C156 5.07003 155.793 4.26649 155.585 3.65197C155.747 3.17926 155.816 2.8011 155.908 2.70655C157.312 1.19389 158.554 3.32108 159.889 3.41562C161.201 3.51016 162.582 1.9502 163.848 2.32836C165.689 2.89561 167.369 3.46287 169.165 1.85566C169.602 1.47749 170.476 3.03743 171.167 3.74649L171.006 3.3683ZM122.858 12.5861C123.847 11.3571 124.86 10.1754 125.827 8.85177C125.988 8.61541 125.988 7.85901 126.126 7.00813C125.297 5.96817 124.584 4.12461 123.364 6.29907C123.226 8.23718 123.065 10.3172 122.904 12.3971C122.789 12.4444 122.65 12.5861 122.535 12.5861C122.443 12.5388 122.374 12.3025 122.282 12.1607C122.489 12.2553 122.673 12.397 122.858 12.5861ZM178.693 6.48822C181.57 12.2553 181.846 12.6807 184.562 14.6661C184.792 14.8552 185.183 14.0515 185.943 13.2952C184.631 12.4916 183.71 12.2553 182.997 11.3571C182.26 10.3645 181.777 8.61537 181.087 7.38632C180.419 6.15728 179.66 4.88101 178.693 6.48822ZM108.404 12.2079C104.998 9.22986 104.929 9.22986 101.384 12.2079C102.995 12.2079 103.985 12.2079 104.952 12.2079C106.102 12.2079 107.253 12.2079 108.404 12.2079ZM210.063 13.0116C212.48 13.2953 211.306 9.18266 212.065 7.90635C212.088 7.85908 211.812 7.10277 211.467 5.921C210.961 8.42635 210.569 10.459 210.063 13.0116ZM191.236 6.15735C191.213 6.44098 191.167 6.77183 191.144 7.05545C191.812 7.48089 192.456 7.95357 193.147 8.33174C193.193 8.37901 193.377 7.90635 193.4 7.66999C193.423 7.43364 193.377 6.86641 193.308 6.86641C192.617 6.58279 191.927 6.3937 191.236 6.15735ZM91.2804 11.1208C90.8891 12.6335 90.4979 13.437 90.5669 14.0042C90.682 14.7606 91.0963 15.706 91.4415 15.8006C91.6947 15.8951 92.3161 14.6661 92.2701 14.1934C92.201 13.2953 91.7868 12.5389 91.2804 11.1208ZM179.545 3.13195C180.465 3.55738 180.879 3.88826 181.294 3.93553C181.501 3.9828 181.731 3.51018 181.961 3.3211C181.708 3.08474 181.478 2.61204 181.225 2.61204C180.833 2.51749 180.442 2.80105 179.545 3.13195ZM165.62 8.47358C165.735 8.33176 165.85 8.18995 165.965 8.00087C165.804 7.57543 165.666 7.14999 165.505 6.8191C165.482 6.77183 165.275 7.10268 165.16 7.24449C165.321 7.66993 165.482 8.09541 165.62 8.47358ZM206.081 11.2625C205.943 11.3098 205.805 11.3099 205.667 11.3571C205.736 11.7826 205.805 12.1607 205.874 12.5861C205.989 12.397 206.15 12.2553 206.173 12.0662C206.242 11.8299 206.127 11.5461 206.081 11.2625ZM32.1308 26.1056L32.1538 25.5384L31.8316 25.7748L32.1308 26.1056Z" fill="#F89DA8"/>
</svg>
