<svg width="173" height="43" viewBox="0 0 173 43" fill="none" xmlns="http://www.w3.org/2000/svg">
<path fill-rule="evenodd" clip-rule="evenodd" d="M51.3657 0.39306C50.8793 0.523107 49.2811 0.620635 47.7872 0.588123C46.2933 0.555611 45.0425 0.620635 44.9383 0.750682C44.8688 0.880729 44.3129 0.848225 43.6875 0.718178C43.0969 0.555619 42.4368 0.523131 42.2284 0.620666C42.0199 0.750714 41.3945 0.815737 40.8039 0.783225C40.248 0.718202 39.2405 0.848225 38.5804 1.0433C37.7465 1.23837 37.2601 1.23838 36.9474 1.01079C36.6348 0.78321 36.2873 0.783202 35.7315 1.0433C35.1408 1.36841 35.0366 1.33591 35.2451 1.01079C35.4535 0.718186 35.2103 0.65317 34.2028 0.815729C33.4732 0.913265 32.7436 1.17334 32.6394 1.40092C32.5004 1.59599 32.2919 1.62853 32.1877 1.46597C32.0487 1.2709 27.2542 1.14083 27.2542 1.36841C27.2542 1.46595 25.8645 1.72604 25.4476 1.69353C24.0231 1.596 23.1546 1.62852 20.7921 1.82359C18.2559 2.05117 16.8314 2.24623 16.8314 2.34377C16.8314 2.40879 14.052 2.70142 12.6623 2.76644C12.1064 2.79895 11.4115 2.96151 11.2031 3.09156C10.9599 3.25412 10.6125 3.2541 10.404 3.15657C10.2303 3.05903 9.39646 3.12405 8.59737 3.35163C7.76355 3.5467 6.75601 3.70929 6.30435 3.70929C5.88744 3.70929 5.43579 3.83931 5.33156 4.00187C5.22733 4.16442 4.60196 4.29448 3.94185 4.29448C3.28174 4.29448 2.7606 4.42453 2.7606 4.58709C2.7606 4.78217 2.48265 4.84718 2.10048 4.78216C1.71831 4.71713 1.12768 5.00973 0.710768 5.4649C-0.0883145 6.31021 -0.227285 6.89543 0.363341 6.89543C0.537055 6.89543 0.641283 6.76537 0.537055 6.60281C0.22437 6.18016 1.02346 5.98511 2.5174 6.18018C3.24699 6.24521 3.80288 6.50528 3.80288 6.73287C3.80288 6.99296 4.32402 7.123 5.33156 7.09049C6.8255 7.05798 7.27715 6.57031 5.81796 6.57031C4.56722 6.57031 5.43579 6.18017 6.92973 6.05013C8.24995 5.95259 8.31944 5.98511 8.31944 6.83042V7.70822L9.01429 6.63536C9.39646 6.05014 9.88286 5.65998 10.0566 5.75751C10.265 5.85505 10.404 5.725 10.404 5.43239C10.404 5.13979 10.5777 5.00974 10.7514 5.10728C10.9599 5.23732 11.0294 5.4649 10.9251 5.62746C10.7862 5.79002 11.2031 5.92007 11.759 5.92007C12.3843 5.92007 12.836 5.75754 12.836 5.49744C12.836 5.23735 12.975 5.26983 13.1834 5.59495C13.3571 5.85505 13.5308 5.92008 13.5308 5.72501C13.5308 5.52994 13.774 5.36739 14.052 5.36739C14.3299 5.36739 14.5731 5.49744 14.5731 5.66C14.5731 5.82256 14.8511 5.82256 15.1985 5.66C15.5112 5.49744 16.4492 5.43242 17.2831 5.49744C18.1169 5.56247 19.0202 5.46491 19.2634 5.26983C19.6108 5.00974 19.7498 5.00976 19.854 5.33488C19.993 5.66 20.2709 5.65999 21.2785 5.36739C22.3902 5.04227 22.564 5.07478 22.564 5.52995C22.5987 6.01762 22.6334 6.01763 23.0504 5.49744C23.3283 5.17232 23.641 5.04227 23.7452 5.20483C24.0232 5.62748 23.641 6.57031 23.2241 6.57031C23.0504 6.57031 22.9114 6.70037 22.9114 6.83042C22.9114 6.96047 23.4325 7.0255 24.0926 6.96047C25.1349 6.83043 25.2739 6.73286 25.2391 5.95258C25.1697 5.2048 25.3086 5.1073 26.4899 5.00976C27.289 4.94474 27.7754 5.04225 27.7754 5.26983C27.7754 5.49742 27.5669 5.59498 27.289 5.49744C26.9415 5.36739 26.8721 5.52995 26.9763 6.01762C27.1153 6.57032 27.0805 6.63533 26.7678 6.24519C26.3857 5.725 25.8298 5.9851 26.2119 6.5378C26.4899 6.99297 27.4279 6.99296 27.4279 6.57031C27.4279 6.37524 27.6017 6.24519 27.7754 6.24519C27.9838 6.24519 28.0881 6.44028 28.0533 6.63536C27.9838 6.86294 28.1923 6.99295 28.4702 6.92793C28.7482 6.86291 29.6862 6.76539 30.5548 6.70036C31.4234 6.60283 32.5004 6.50531 32.9868 6.4728C33.6469 6.40777 33.8206 6.24519 33.7511 5.75751C33.6816 5.36737 33.7511 5.23732 33.9248 5.4649C34.5849 6.34272 37.1559 6.89544 37.1559 6.18018C37.1559 5.88758 36.7043 5.82254 35.523 5.92007C35.0019 5.95258 34.7239 5.79005 34.7239 5.49744C34.7239 5.20483 34.6197 4.94474 34.4807 4.8472C34.307 4.78218 34.446 4.78218 34.7239 4.8472C36.739 5.36739 37.2601 5.36739 37.0517 4.8472C36.9127 4.48957 36.9822 4.39204 37.3644 4.52209C37.6076 4.61962 37.8508 4.81466 37.8508 4.97722C37.8508 5.13978 38.3024 5.26983 38.8583 5.26983C39.4142 5.26983 40.0395 5.49742 40.2827 5.75751C40.5259 6.05012 40.9429 6.21267 41.2208 6.11513C41.464 6.0176 41.6725 6.08264 41.6725 6.21269C41.6725 6.60283 42.819 6.44028 42.9579 6.01762C43.0274 5.85506 42.541 5.7575 41.8114 5.79002C40.7691 5.88755 40.6302 5.82254 40.9776 5.43239C41.1861 5.20481 41.7419 5.04224 42.1936 5.13978C42.6453 5.2048 43.1316 5.13979 43.2359 4.94472C43.3748 4.74965 43.6528 4.71716 43.8612 4.8472C44.1044 5.00976 44.5561 5.10728 44.9383 5.10728C45.8416 5.10728 46.5364 6.14766 45.8763 6.5378C45.5637 6.73288 45.7374 6.86294 46.4669 6.96047L47.5092 7.09049L46.6754 6.08263C45.6679 4.81467 45.6331 4.6196 46.5712 4.6196C47.1618 4.6196 47.266 4.78216 47.1271 5.43239C47.0228 6.11514 47.1618 6.37524 47.9609 6.73287C48.6905 7.0905 48.9337 7.12303 49.0727 6.79791C49.1769 6.50531 49.4201 6.50528 50.1497 6.89543C50.914 7.25306 51.1572 7.28556 51.3657 6.92793C51.5394 6.70035 51.7826 6.5378 51.9563 6.5378C52.4775 6.60283 52.3037 5.82256 51.7478 5.66C51.4699 5.56247 51.3309 5.62747 51.4699 5.75751C51.7826 6.05012 51.1572 6.89543 50.6361 6.89543C50.4276 6.89543 50.3581 6.66784 50.4971 6.40775C50.6361 6.05012 50.4624 5.92007 49.837 5.92007C48.6905 5.92007 48.7252 5.4649 49.8718 4.97722C50.6708 4.6521 50.7751 4.68462 50.5666 5.10728C50.4276 5.49742 50.5666 5.56245 51.2267 5.39989C51.7478 5.26984 52.3385 5.36736 52.6859 5.62746C53.1028 5.95258 53.2071 5.95261 52.9986 5.66C52.4775 4.87972 53.2765 5.30237 54.1798 6.31024C54.8747 7.09052 55.1874 7.22054 55.3958 6.89543C55.5695 6.63533 55.5348 6.53781 55.3263 6.66786C55.1179 6.79791 54.8747 6.60282 54.7705 6.24519C54.6315 5.75751 54.8052 5.52994 55.4306 5.39989C56.4381 5.17231 56.994 5.49742 56.2644 5.92007C55.9865 6.08263 55.8475 6.31021 55.9517 6.40775C56.2992 6.70036 57.3067 6.21269 57.3067 5.72501C57.3067 5.17231 58.071 5.13981 58.6269 5.66C58.9048 5.9201 59.0438 5.92009 59.0438 5.6925C59.0438 5.52995 59.4607 5.39987 60.0166 5.4649C61.1979 5.59495 62.2402 5.30235 61.997 4.91221C61.858 4.74965 62.0317 4.6196 62.3096 4.6196C62.6571 4.6196 62.8655 4.9122 62.8655 5.30234C62.8655 5.82253 62.6918 5.95261 62.2054 5.82256C61.7885 5.72502 61.4411 5.85507 61.3369 6.14768C61.0589 6.83043 61.0242 6.83043 62.0317 6.63536C62.6918 6.53782 62.9003 6.60283 62.7266 6.86292C62.5876 7.05799 62.6571 7.22054 62.8308 7.22054C63.0392 7.22054 63.213 7.05799 63.213 6.86292C63.213 6.63534 63.5604 6.57033 64.0815 6.63536C64.5679 6.73289 65.0543 6.66785 65.1586 6.5378C65.2628 6.37525 64.8459 6.24519 64.29 6.24519C63.6994 6.24519 63.213 6.08263 63.213 5.92007C63.213 5.725 63.4562 5.59495 63.7341 5.59495C64.012 5.59495 64.2552 5.39991 64.2552 5.17232C64.29 4.91223 64.3942 4.94472 64.7069 5.26983C65.1585 5.79002 68.0769 6.05012 68.0769 5.59495C68.0769 5.30235 70.1268 5.43239 70.4394 5.75751C70.5437 5.85505 70.0573 5.92007 69.3624 5.92007C68.2159 5.92007 68.0769 6.01761 68.1464 6.73287C68.2159 7.41562 68.2854 7.44812 68.7718 7.09049C69.0497 6.83039 69.6751 6.5378 70.1615 6.40775C70.9606 6.18017 70.9953 6.18017 70.5089 6.73287C70.0225 7.28557 70.0573 7.3181 70.7869 7.15554C71.2038 7.02549 71.5512 7.05799 71.5512 7.22054C71.5512 7.67571 72.663 7.90329 73.1494 7.54566C73.3926 7.35059 74.1222 7.15554 74.7475 7.15554C76.172 7.12303 76.6237 6.89543 76.033 6.5378C75.6509 6.31022 75.6856 6.24519 76.172 6.24519C76.5194 6.24519 76.7279 6.11513 76.6237 5.95258C76.5194 5.79002 76.9363 5.59495 77.527 5.4649C78.2218 5.33485 78.7082 5.39987 78.8819 5.62746C79.0209 5.85504 79.3683 5.9201 79.681 5.82256C79.9937 5.69251 80.2369 5.7575 80.2369 5.95258C80.2369 6.14765 80.4801 6.21267 80.758 6.11513C81.036 6.0176 81.5224 5.82255 81.8698 5.6925C82.2172 5.56246 82.3562 5.62749 82.2172 5.82256C82.0783 6.01763 82.2172 6.27771 82.5299 6.37525C82.8079 6.47278 82.9468 6.44025 82.8426 6.27769C82.7384 6.11513 83.19 5.98511 83.8501 6.01762C84.5103 6.05013 84.9619 6.18019 84.8577 6.31024C84.7882 6.4728 85.0314 6.57031 85.4483 6.57031C85.9 6.57031 86.1084 6.44027 85.9347 6.21269C85.7957 5.9851 86.0389 6.0176 86.5253 6.27769C87.4634 6.73286 88.5404 6.83043 89.2005 6.4728C89.409 6.31024 89.9301 6.37524 90.3123 6.57031C90.7639 6.79789 91.0071 6.79789 91.0071 6.57031C91.0071 6.40775 91.424 6.24519 91.9799 6.24519C92.5011 6.24519 92.7443 6.37525 92.5358 6.5053C92.2231 6.66786 92.2579 6.86293 92.6053 7.15554C93.0222 7.48066 93.0917 7.48064 93.0917 7.05799C93.0917 6.50528 93.6476 6.37524 93.856 6.89543C93.995 7.28557 96.566 7.61068 96.566 7.25305C96.566 6.86291 97.9904 7.05799 98.3031 7.51316C98.4768 7.77325 98.859 7.87078 99.3454 7.70822C99.7623 7.57818 100.596 7.44812 101.152 7.41561C102.09 7.35058 102.125 7.38313 101.569 7.77327C100.839 8.29346 100.909 8.29344 102.438 7.87078C103.41 7.61069 103.723 7.67573 104.105 8.13089C104.453 8.58606 104.522 8.58605 104.383 8.1634C104.244 7.83828 104.383 7.64321 104.696 7.64321C104.974 7.64321 105.147 7.77327 105.043 7.93583C104.939 8.06588 105.113 8.1959 105.391 8.1959C105.703 8.1959 105.947 8.29346 105.947 8.42351C105.947 8.81365 107.753 8.81364 108.552 8.45601C108.934 8.26094 109.143 8.22841 109.004 8.35846C108.865 8.48851 109.108 8.87864 109.525 9.20376L110.289 9.78899L109.525 9.59392C109.073 9.49639 108.448 9.52889 108.135 9.62643C107.614 9.8215 107.614 9.88652 108.031 10.1466C108.309 10.3092 108.83 10.3742 109.212 10.2767C109.629 10.1466 109.768 10.2116 109.629 10.4392C109.351 10.8294 109.872 10.8944 111.088 10.6018C112.026 10.3417 112.096 9.82149 111.158 9.98405C110.776 10.0491 110.533 9.98405 110.637 9.82149C110.741 9.65893 111.227 9.52891 111.679 9.56142C112.131 9.59393 112.409 9.75649 112.339 9.88654C112.235 10.0166 112.443 10.1466 112.756 10.1466C113.104 10.1466 113.277 10.2441 113.138 10.3417C112.895 10.6018 114.007 11.7722 114.32 11.5771C114.493 11.5121 114.528 11.187 114.424 10.8619C114.25 10.4067 114.285 10.4067 114.563 10.7968C114.771 11.0569 114.875 11.3495 114.771 11.4796C114.563 11.8372 117.551 12.0323 118.037 11.6747C118.315 11.4471 118.454 11.5121 118.454 11.9023C118.454 12.2924 118.801 12.4224 119.948 12.4549C121.303 12.4875 121.338 12.4875 120.434 12.7476C119.878 12.9101 119.218 12.9426 118.975 12.8776C118.732 12.7801 118.176 12.8776 117.794 13.0727C117.377 13.2677 116.856 13.3328 116.647 13.2027C115.918 12.7801 113.104 12.715 112.096 13.1052C111.401 13.3978 111.054 13.3978 110.672 13.1052C110.394 12.8776 110.081 12.8451 109.977 13.0077C109.768 13.3328 108.726 13.3003 108.101 12.9426C107.857 12.8126 107.684 12.8776 107.684 13.0727C107.684 13.3003 106.989 13.3653 105.53 13.2027C104.314 13.0727 103.028 13.0077 102.646 13.0077C98.5811 13.2027 97.2608 13.2027 97.2608 13.0402C97.2608 12.9426 96.566 12.9426 95.6974 13.0727C94.8636 13.2027 94.0992 13.1702 94.0645 13.0077C93.995 12.8451 93.5086 12.8451 92.9527 13.0727C92.3274 13.2677 91.8062 13.3003 91.563 13.1052C91.3546 12.9426 90.5555 12.9101 89.7911 13.0402C89.0268 13.1702 84.8924 13.2677 80.5843 13.2352C76.2762 13.2027 72.3503 13.2677 71.8639 13.4303C71.308 13.5603 70.7869 13.5279 70.5437 13.3003C70.3005 13.0727 70.0573 13.0727 69.7446 13.3003C69.5014 13.4628 68.5286 13.5604 67.5905 13.5278C66.6525 13.4628 65.6797 13.5603 65.4365 13.7554C65.1238 13.983 64.7764 13.983 64.29 13.7229C63.7688 13.4953 61.4758 13.4303 56.855 13.5604C46.6059 13.853 38.4066 14.2431 37.955 14.4382C37.816 14.5032 36.9127 14.5357 35.9399 14.5357C34.9671 14.5357 34.0985 14.6658 33.9596 14.8608C33.7859 15.0559 33.6816 15.0559 33.6816 14.7958C33.6816 14.5357 33.091 14.4707 31.875 14.5682C27.3237 14.8933 23.5715 15.0884 21.2785 15.1209C19.9235 15.1534 18.7075 15.2835 18.5685 15.4136C18.4296 15.5436 18.1516 15.5761 17.9084 15.4786C17.6652 15.381 17.1788 15.6086 16.8314 15.9987C16.484 16.3564 16.0323 16.649 15.7891 16.649C15.2332 16.649 13.8783 17.7544 13.8783 18.2096C13.8783 18.4046 14.1562 18.7297 14.5036 18.8923C14.8511 19.1199 14.9553 19.3475 14.7468 19.4775C14.3299 19.8026 14.1909 20.9405 14.6079 20.6805C14.7816 20.5829 14.9206 20.6479 14.9206 20.843C14.9206 21.0056 14.7468 21.2007 14.5384 21.2657C14.2257 21.3632 14.2257 21.5908 14.5384 22.111C14.8511 22.6962 15.2332 22.8262 16.4145 22.7937C17.2136 22.7937 18.4296 22.9238 19.0897 23.1188C20.6531 23.574 22.2513 23.6065 21.5217 23.1513C21.07 22.8912 21.1048 22.8262 21.6259 22.8262C21.9386 22.8262 22.2165 22.9888 22.2165 23.1838C22.2165 23.3789 22.5292 23.444 22.9114 23.3139C23.3283 23.1839 23.6062 23.2489 23.6062 23.509C23.6062 23.7691 23.7799 23.7366 24.1969 23.444C24.6485 23.0863 24.7875 23.0863 24.9265 23.4115C25.0307 23.7366 25.1697 23.7366 25.5866 23.444C25.8645 23.2164 26.0382 23.1838 26.0035 23.3464C25.8645 24.0292 26.073 24.1917 26.5594 23.8016C26.9763 23.4765 27.0805 23.4765 27.0805 23.8341C27.0805 24.0942 27.289 23.9967 27.6017 23.6065C27.9259 23.1947 28.0996 23.1947 28.1228 23.6065C28.1228 23.9641 28.227 24.1267 28.366 24.0292C28.4702 23.8991 28.7482 23.9316 28.9914 24.1267C29.1998 24.2893 29.9642 24.4518 30.659 24.5169C31.3886 24.5494 31.9445 24.7444 31.9445 24.972C31.9445 25.1996 31.6666 25.2971 31.2149 25.1996C30.5548 25.037 30.52 25.1346 30.6243 27.1503C30.6938 28.3207 30.8675 29.1986 31.0064 29.101C31.1454 29.036 31.1802 29.3286 31.0412 29.7513C30.7285 31.0517 31.1454 31.9296 32.0487 31.702C34.168 31.2143 34.5849 31.2468 35.3145 31.897C36.3568 32.8074 36.8432 32.7423 36.6695 31.767C36.5305 31.0517 36.6348 30.9542 37.5033 30.9542C38.0592 30.9542 38.7541 30.8567 39.0667 30.7266C39.5879 30.5641 39.6226 30.6291 39.2405 31.3118C38.893 31.8645 38.893 32.0921 39.2057 32.1896C39.4142 32.2547 39.5184 32.4172 39.4489 32.5473C39.3447 32.6773 39.4489 32.8074 39.6921 32.8074C39.9353 32.8074 40.5954 32.9374 41.2208 33.035C41.8462 33.1325 42.4368 33.1 42.541 32.9049C42.6453 32.7423 43.0274 32.5798 43.3401 32.5798C43.8612 32.5798 43.8612 32.6448 43.4096 32.9374C42.9927 33.23 42.9927 33.2625 43.5138 33.1C43.8612 33.0024 44.3129 32.9049 44.4866 32.9049C44.6951 32.9049 44.7298 32.7423 44.6256 32.5798C44.5214 32.3847 44.5561 32.2547 44.6951 32.2547C44.8688 32.2547 45.1467 32.5148 45.3899 32.8399C45.6331 33.23 46.2238 33.4576 46.8491 33.4901C47.4398 33.4901 47.8567 33.3926 47.7524 33.23C47.6482 33.0675 47.7177 32.8724 47.9261 32.7423C48.0999 32.6448 48.2736 32.7749 48.2736 33.035C48.2736 33.3276 48.5168 33.5551 48.7947 33.5551C49.1074 33.5551 49.2116 33.3601 49.0727 33.0024C48.8989 32.5798 49.0032 32.5148 49.4548 32.6773C49.8023 32.8074 50.115 32.9049 50.2192 32.9049C50.2887 32.9049 50.2539 33.1325 50.1497 33.3926C50.0107 33.6527 50.1149 33.8802 50.3234 33.8802C50.5319 33.8802 50.7056 33.7177 50.7056 33.5551C50.7056 33.3601 51.1572 33.23 51.7131 33.23C52.3037 33.23 52.8596 33.0675 52.9638 32.9049C53.2765 32.4172 53.8324 32.8399 53.5892 33.3926C53.485 33.7502 53.6587 33.8802 54.2146 33.8802C54.8747 33.8802 54.9442 33.8152 54.5273 33.5551C54.2493 33.3926 54.1451 33.165 54.2493 33.035C54.3883 32.9049 54.1104 32.5473 53.6587 32.1896C52.4774 31.3443 52.5817 31.0517 54.0061 31.0842C54.84 31.1168 55.1874 31.2468 55.0484 31.5069C54.9789 31.7345 55.0484 31.9295 55.2221 31.9295C55.3958 31.9295 55.6043 31.6695 55.6738 31.3443C55.8127 30.8242 55.8475 30.8242 55.8822 31.3443C55.917 31.7345 56.2297 31.9295 56.8898 31.962C57.7931 31.962 57.7931 31.9946 57.0635 32.2547C56.5423 32.4497 56.3339 32.7423 56.4729 33.0675C56.6466 33.4251 56.5424 33.5226 56.1254 33.3601C55.778 33.23 55.6043 32.9374 55.7085 32.7098C55.8128 32.4497 55.6738 32.2547 55.4306 32.2547C55.1526 32.2547 55.0137 32.5148 55.1179 33.0024C55.2569 33.5877 55.5348 33.7502 56.5423 33.8152C57.2372 33.8803 58.349 33.9778 58.9743 34.0428C59.8082 34.1403 60.1903 34.0428 60.3293 33.6527C60.5378 33.1975 60.6073 33.1975 61.0242 33.7177C61.4063 34.2379 62.1012 34.3354 66.5135 34.4004C70.4394 34.4329 71.6207 34.3679 71.9334 34.0103C72.2461 33.6527 72.2113 33.5551 71.7597 33.5551C71.447 33.5551 71.2038 33.3926 71.2038 33.23C71.2038 32.7748 71.6554 32.8399 72.4545 33.3926C73.3926 34.0428 74.2611 33.9778 74.5043 33.2625C74.6433 32.8399 74.9213 32.6773 75.2339 32.8074C75.5466 32.9049 75.7203 32.8074 75.6508 32.5473C75.5814 32.2872 75.8941 32.0921 76.4152 32.0271L77.2838 31.962L76.4152 32.1896C75.8246 32.3522 75.6856 32.5148 75.9983 32.7098C76.2067 32.8399 76.5889 32.8399 76.8321 32.7098C77.0753 32.5798 77.1101 32.6123 76.9711 32.8399C76.8321 33.0675 76.2415 33.23 75.6161 33.23C74.6781 33.23 74.6086 33.295 75.0255 33.6852C75.3034 33.9453 76.1372 34.3679 76.8668 34.6605C78.0134 35.0832 78.2218 35.0832 78.3955 34.693C78.4998 34.4329 78.7777 34.2054 79.0556 34.2054C79.2989 34.2054 79.4378 34.4005 79.3336 34.628C79.2294 34.9206 79.5768 35.0832 80.4454 35.1157C81.6266 35.2132 81.6961 35.1482 81.2444 34.6605C80.7928 34.1404 80.8275 34.1079 81.5571 34.2704C81.974 34.4005 82.3215 34.3354 82.3215 34.1079C82.3215 33.9128 82.4257 33.8803 82.5647 33.9778C82.8773 34.3029 83.7459 33.5551 83.5027 33.165C83.3637 32.9699 83.5722 32.9049 84.0239 33.0675C84.4408 33.1975 84.7534 33.1325 84.7534 32.9374C84.7534 32.7423 84.9966 32.5798 85.2746 32.5798C85.5525 32.5798 85.7957 32.7098 85.7957 32.8399C85.7957 32.9699 86.2126 33.0675 86.7685 33.035C87.3244 33.035 87.9498 33.2625 88.3319 33.6527C88.9921 34.3679 89.0963 34.8556 88.5751 34.8556C88.4014 34.8556 88.2625 34.6606 88.3319 34.433C88.3667 34.2379 88.1582 34.0428 87.8803 34.0428C87.6023 34.0428 87.1854 33.9128 86.977 33.8152C86.7685 33.6852 86.5948 33.7827 86.5948 34.0428C86.5948 34.3029 86.8728 34.5305 87.2202 34.5305C87.5676 34.5305 87.9498 34.6605 88.054 34.8556C88.1582 35.0182 88.6099 35.1157 89.0268 35.0507C89.4437 34.9531 89.9649 34.8881 90.2081 34.8881C90.4513 34.8556 90.5555 34.628 90.4513 34.3679C90.3123 34.1078 90.1038 33.9453 89.9649 34.0428C89.8259 34.1403 89.6174 34.0103 89.5132 33.7827C89.409 33.4901 89.6522 33.3926 90.347 33.4251C91.0766 33.4576 91.3546 33.3276 91.3893 32.9699C91.3893 32.6448 91.4936 32.5798 91.563 32.8074C91.6673 33.035 91.9452 33.1325 92.1884 33.035C92.4663 32.9374 92.7443 33.1 92.8833 33.3926C92.9875 33.6852 93.2307 33.8477 93.4391 33.7177C93.6128 33.6202 94.0645 33.6852 94.4467 33.8477C94.8983 34.0753 95.1415 34.1078 95.2458 33.8802C95.4542 33.23 97.5735 33.9128 97.7125 34.6605C97.8167 35.2132 97.8862 35.1807 97.921 34.4655C97.9557 33.8803 98.0947 33.6201 98.4073 33.7502C98.72 33.8477 98.8243 34.2704 98.72 34.8556C98.5811 35.6684 98.6853 35.831 99.3107 35.831C100.214 35.831 100.214 35.7009 99.4496 34.9857C98.859 34.433 98.859 34.4005 99.4844 34.628C99.9708 34.7906 100.075 34.7581 99.9013 34.3679C99.7623 34.0103 99.936 33.8802 100.561 33.8802C101.048 33.8802 101.43 34.0428 101.43 34.2379C101.43 34.4329 101.187 34.498 100.874 34.4004C100.561 34.2704 100.388 34.3679 100.457 34.563C100.631 35.0832 102.403 35.2458 102.681 34.7906C102.82 34.563 102.75 34.5305 102.542 34.6605C102.264 34.8231 102.125 34.628 102.125 34.2054C102.125 33.7177 102.299 33.5551 102.611 33.6527C102.889 33.7502 103.202 33.6852 103.271 33.4576C103.376 33.165 103.549 33.1975 104.001 33.5226C104.522 33.9453 104.661 33.9453 104.939 33.5226C105.217 33.1325 105.286 33.1325 105.599 33.5551C105.773 33.8152 105.947 33.8802 105.947 33.7177C105.947 33.5226 106.19 33.6527 106.433 33.9778C106.711 34.3029 106.85 34.8556 106.746 35.1807C106.641 35.5384 106.746 35.831 106.954 35.831C107.163 35.831 107.336 35.7009 107.336 35.5383C107.336 35.3433 107.649 35.2458 107.996 35.2783C108.379 35.2783 108.587 35.4734 108.483 35.7334C108.379 35.961 108.483 36.1561 108.691 36.1561C108.9 36.1561 109.073 35.9935 109.073 35.831C109.073 35.6359 109.386 35.5058 109.803 35.5058C110.185 35.5058 110.394 35.6359 110.289 35.831C110.185 35.9935 110.22 36.1561 110.428 36.1561C110.602 36.1561 110.81 35.961 110.915 35.7334C111.054 35.4083 111.158 35.4083 111.54 35.7334C112.096 36.2536 112.687 36.2861 112.339 35.7659C112.165 35.5059 112.27 35.4733 112.756 35.6684C114.111 36.1886 115.049 36.2536 115.362 35.7985C115.605 35.4733 115.744 35.4408 115.952 35.7009C116.091 35.961 117.134 36.0585 118.732 36.026C120.087 35.9935 121.233 36.0911 121.233 36.2536C121.233 36.3837 121.407 36.4162 121.581 36.3186C121.789 36.1886 121.859 35.961 121.754 35.7985C121.477 35.3758 122.067 35.4408 122.519 35.8635C123.04 36.3511 123.735 36.1236 123.353 35.5709C123.214 35.3433 122.623 35.0832 122.067 35.0182C121.511 34.9531 120.99 34.8881 120.886 34.8881C120.782 34.8556 120.921 34.7255 121.199 34.563C121.511 34.3679 122.032 34.4004 122.554 34.563C123.04 34.7255 123.7 34.7906 124.047 34.693C124.534 34.5305 124.812 34.6931 125.055 35.2458C125.287 35.7226 125.368 35.6793 125.298 35.1157C125.229 34.628 125.298 34.3029 125.437 34.4004C125.611 34.498 125.75 34.3029 125.75 34.0103C125.75 33.4901 125.785 33.4901 126.41 34.0103C126.862 34.3679 127.661 34.5955 128.668 34.5955C130.058 34.5955 130.266 34.6931 130.266 35.2458C130.266 35.7009 130.44 35.831 130.822 35.7009C131.135 35.6034 131.413 35.5058 131.517 35.5058C131.587 35.5058 131.552 35.3108 131.448 35.0507C131.239 34.5305 132.247 34.0753 132.559 34.563C132.664 34.7581 133.185 34.8231 133.706 34.693C134.297 34.563 134.505 34.5955 134.262 34.8231C134.088 34.9857 133.463 35.1807 132.872 35.2783C132.282 35.3433 132.664 35.4408 133.81 35.4733C134.991 35.4733 135.895 35.3433 136.034 35.1157C136.207 34.8881 136.034 34.8231 135.547 34.9207C135.096 35.0507 134.887 34.9856 134.991 34.7255C135.061 34.5305 135.652 34.3354 136.277 34.3029C138.709 34.2054 139.682 34.0103 140.029 33.5551C140.307 33.1325 140.411 33.1325 140.828 33.6202C141.315 34.2379 142.6 34.4004 142.948 33.8802C143.052 33.7177 143.364 33.6527 143.642 33.7827C143.99 33.8803 144.164 33.7177 144.164 33.2625C144.164 32.7423 143.99 32.6123 143.399 32.7098C142.948 32.7749 142.461 32.7098 142.253 32.5798C141.94 32.3522 140.55 32.1246 137.562 31.767C137.076 31.702 135.999 31.5719 135.13 31.4419C129.224 30.6616 123.075 30.0764 119.948 30.0113C119.461 29.9788 119.149 29.7838 119.149 29.4911C119.149 29.2311 119.01 29.0035 118.836 29.0035C118.662 29.0035 118.419 28.7759 118.315 28.4833C118.211 28.2232 118.245 28.0931 118.454 28.1907C118.628 28.2882 118.871 27.9956 119.01 27.5404C119.114 27.1178 119.357 26.8252 119.531 26.8902C119.67 26.9877 120.017 26.7927 120.261 26.4025C120.504 26.0449 120.816 25.7523 120.99 25.7523C121.546 25.7523 125.402 23.9967 125.402 23.7366C125.402 23.6065 125.263 23.4765 125.09 23.4765C124.916 23.4765 124.708 23.1838 124.603 22.8587C124.499 22.5011 123.839 21.9809 123.109 21.6883C121.963 21.2331 121.859 21.1031 122.345 20.843C122.658 20.6805 124.047 20.6154 125.437 20.713C127.105 20.8105 128.147 20.713 128.46 20.4854C128.842 20.1928 129.016 20.1928 129.224 20.5829C129.467 20.973 130.405 21.0706 133.497 21.1681C135.652 21.2006 138.014 21.2982 138.709 21.3632C139.647 21.4282 139.994 21.3307 140.099 20.908C140.238 20.4529 140.272 20.4529 140.307 20.9406C140.342 21.3957 140.689 21.4608 142.253 21.4282C143.295 21.3957 144.164 21.4608 144.164 21.5908C144.164 21.9159 147.325 21.9159 147.881 21.5908C148.159 21.4282 148.194 21.1681 147.985 20.8755C147.464 20.1277 147.568 19.9002 148.333 19.9002C148.715 19.9002 149.028 20.0627 149.028 20.2578C149.028 20.4203 148.889 20.4854 148.68 20.3878C148.263 20.1277 148.228 20.5504 148.645 21.1681C149.028 21.7533 150.869 21.9809 150.556 21.4282C150.452 21.2007 150.556 21.2657 150.834 21.5258C151.355 22.111 153.544 22.3711 153.544 21.8509C153.544 21.6883 153.961 21.5257 154.517 21.5583C155.316 21.5583 155.351 21.6233 154.795 21.8184C154.169 22.0459 154.169 22.0785 154.725 22.2735C155.073 22.4036 155.629 22.3385 155.976 22.176C156.323 22.0134 156.879 21.9484 157.157 22.0459C157.505 22.176 157.713 22.0785 157.713 21.8184C157.713 21.4607 157.783 21.4282 158.026 21.7859C158.165 22.0134 158.443 22.176 158.617 22.1435C158.79 22.111 158.999 22.1435 159.103 22.176C159.207 22.2085 159.937 22.2735 160.771 22.3385C161.917 22.4036 162.23 22.3386 162.265 21.9159C162.265 21.4608 162.299 21.4282 162.508 21.8509C162.786 22.4361 164.036 22.5011 164.245 21.9159C164.314 21.7208 164.627 21.5258 164.905 21.5258C165.322 21.5258 165.357 21.6233 165.044 21.9484C164.731 22.3061 164.87 22.4036 165.739 22.4361C166.746 22.4686 166.781 22.4036 166.538 21.4282C166.434 20.843 166.19 20.3553 166.017 20.2903C165.565 20.1278 166.607 19.2499 167.198 19.2499C167.476 19.2499 167.789 19.0549 167.893 18.8273C168.067 18.4046 169.491 17.6568 171.715 16.844C172.409 16.5839 173 16.2263 173 16.0312C173 15.5111 171.402 14.048 170.846 14.048C170.568 14.048 170.221 13.918 170.047 13.7554C169.838 13.5603 169.248 13.3653 168.727 13.2677C167.858 13.1377 163.133 11.9348 160.319 11.1545C159.311 10.8619 156.532 10.3417 155.802 10.3092C155.629 10.3092 155.316 10.2116 155.107 10.1141C154.934 9.98406 154.135 9.78898 153.37 9.65893C152.606 9.49637 151.842 9.36633 151.633 9.33381C150.695 9.13874 145.345 8.09836 145.032 8.06584C144.858 8.03333 144.546 7.93581 144.337 7.83828C144.164 7.70823 143.677 7.6757 143.33 7.74073C142.948 7.77324 142.392 7.70822 142.114 7.54566C141.801 7.41562 141.106 7.18802 140.516 7.09049C139.96 6.99295 138.709 6.76538 137.736 6.57031C136.798 6.40775 135.13 6.21267 134.088 6.11513C133.046 6.05011 131.413 5.82253 130.44 5.62746C125.958 4.74964 119.739 3.90435 116.369 3.7743C115.119 3.74179 114.111 3.67675 114.111 3.64424C114.111 3.54671 112.687 3.31913 110.741 3.12406C109.178 2.9615 108.726 3.02651 108.726 3.35163C108.726 3.70926 108.656 3.70929 108.448 3.38417C108.066 2.86398 107.128 2.66889 103.862 2.50633C102.438 2.44131 100.874 2.27874 100.388 2.21371C99.9013 2.11618 98.0252 1.95363 96.2186 1.85609C94.4119 1.75856 92.1536 1.59602 91.1809 1.43346C90.2428 1.30341 88.4709 1.20586 87.2897 1.20586C86.1084 1.20586 85.1009 1.07583 85.1009 0.945785C85.1009 0.815737 84.7882 0.848225 84.4408 1.0433C83.6069 1.43344 83.2595 1.46597 83.5027 1.10834C83.6069 0.945785 83.0163 0.815729 82.2172 0.815729C81.4182 0.815729 79.5768 0.718202 78.1523 0.620666C74.8518 0.360572 72.1418 0.328044 70.231 0.523115C69.4319 0.62065 68.8065 0.588154 68.9108 0.458107C69.1192 0.132989 66.9304 0.165485 66.3745 0.523115C66.0619 0.718186 65.8186 0.718186 65.7492 0.523115C65.6797 0.360556 64.1163 0.263036 62.2749 0.295548C60.3988 0.32806 57.5151 0.360548 55.8475 0.39306C54.1798 0.425571 52.6859 0.393083 52.5469 0.295548C52.408 0.230524 51.8521 0.263012 51.3657 0.39306ZM17.8737 4.6196C17.9779 4.81467 17.8389 4.84719 17.561 4.74965C16.9356 4.52207 16.8314 4.29448 17.3178 4.29448C17.5263 4.29448 17.7695 4.42453 17.8737 4.6196ZM29.1651 5.62746C29.1651 5.79002 28.8871 5.92008 28.5744 5.88757C28.1923 5.88757 28.1228 5.79004 28.4007 5.6925C28.6092 5.62748 28.7134 5.36739 28.6092 5.20483C28.4702 4.97724 28.5397 4.94472 28.7482 5.07477C28.9914 5.20482 29.1651 5.43239 29.1651 5.62746ZM31.6318 5.59495C31.6318 5.92007 31.736 5.85505 31.9445 5.43239C32.2224 4.81467 32.2572 4.81466 32.2572 5.4649C32.2919 5.92006 32.014 6.2452 31.5276 6.37525C30.3811 6.63534 29.7904 6.60281 29.9989 6.27769C30.1379 6.11513 30.0336 5.92009 29.7904 5.85506C29.0956 5.62748 29.8252 5.00975 30.7285 5.07477C31.2496 5.07477 31.5971 5.30235 31.6318 5.59495ZM33.1605 5.26983C33.2647 5.43239 33.1952 5.59495 33.0215 5.59495C32.8131 5.59495 32.6394 5.43239 32.6394 5.26983C32.6394 5.07476 32.7088 4.94472 32.7783 4.94472C32.8825 4.94472 33.0563 5.07476 33.1605 5.26983ZM71.9681 5.23733C71.586 5.4324 71.6902 5.65999 72.385 6.18018C73.1146 6.70037 73.1841 6.86292 72.7325 7.02548C72.4545 7.12302 72.3155 7.09049 72.4198 6.92793C72.524 6.76537 72.2808 6.5378 71.8986 6.40775C70.8911 6.11514 71.0301 4.94472 72.0376 4.94472C72.2461 4.94472 72.2113 5.07477 71.9681 5.23733ZM73.8095 5.92007C73.9137 6.08263 73.879 6.24519 73.6705 6.24519C73.4968 6.24519 73.2189 6.08263 73.1146 5.92007C73.0104 5.725 73.0452 5.59495 73.2536 5.59495C73.4273 5.59495 73.7053 5.725 73.8095 5.92007ZM75.0602 6.34274C74.7128 6.63535 74.6781 6.60284 74.8865 6.14768C74.9908 5.82256 75.1992 5.65998 75.3034 5.75751C75.4076 5.85505 75.3034 6.11516 75.0602 6.34274ZM48.7947 6.24519C48.8989 6.40775 48.8642 6.57031 48.6558 6.57031C48.482 6.57031 48.2041 6.40775 48.0999 6.24519C47.9956 6.05012 48.0304 5.92007 48.2388 5.92007C48.4126 5.92007 48.6905 6.05012 48.7947 6.24519ZM116.543 9.69144C116.995 9.854 117.029 9.95153 116.647 10.1791C115.952 10.6018 115.327 10.5368 115.327 9.98405C115.327 9.46386 115.64 9.36632 116.543 9.69144ZM121.477 10.5693C121.303 11.0895 119.392 11.0244 119.218 10.5042C119.114 10.2441 119.218 10.1466 119.427 10.2767C119.635 10.3742 119.878 10.3417 119.983 10.1791C120.261 9.78897 121.65 10.1466 121.477 10.5693ZM124.951 10.5368C124.847 10.7969 124.742 10.6993 124.742 10.3417C124.708 9.98404 124.812 9.789 124.916 9.91904C125.02 10.0166 125.055 10.3092 124.951 10.5368ZM123.665 10.9269C124.534 11.187 125.09 11.4471 124.881 11.4796C123.735 11.6747 122.936 11.6422 122.762 11.3821C122.658 11.252 122.415 11.187 122.241 11.2845C122.067 11.4146 121.928 11.252 121.928 10.9919C121.928 10.6993 121.963 10.4717 122.032 10.4717C122.067 10.4717 122.797 10.6993 123.665 10.9269ZM85.4483 17.6243C85.4483 17.2667 85.5525 17.2667 85.8652 17.5593C86.5253 18.177 85.761 18.6972 84.7187 18.3071C84.2671 18.1445 84.0586 17.982 84.3018 17.982C84.545 17.9494 84.6492 17.7219 84.5102 17.3643C84.3365 16.9091 84.406 16.9416 84.8577 17.4618C85.2746 17.9169 85.4136 17.982 85.4483 17.6243ZM78.6735 17.6243C78.7777 17.7869 78.7082 17.9494 78.5345 17.9494C78.3261 17.9494 78.1523 17.7869 78.1523 17.6243C78.1523 17.4293 78.2218 17.2992 78.2913 17.2992C78.3955 17.2992 78.5692 17.4293 78.6735 17.6243ZM95.0026 18.0145C95.489 18.2096 95.8711 18.5021 95.8711 18.6322C95.8711 18.9248 91.8062 18.7948 91.4588 18.5022C91.2503 18.3071 91.841 18.1445 92.5011 18.2421C92.64 18.2421 92.7443 18.112 92.7443 17.9494C92.7443 17.5268 93.8908 17.5268 95.0026 18.0145ZM99.7971 18.2421C100.944 18.9248 100.492 19.51 99.3107 18.8923C98.8243 18.6647 98.6506 18.6647 98.7895 18.8923C98.9285 19.0874 98.5811 19.1849 97.7125 19.1199C97.0176 19.0548 96.3575 18.8273 96.288 18.6322C96.1838 18.3071 96.8787 18.112 97.8862 18.2421C98.0947 18.2746 98.3031 18.1445 98.3031 17.9494C98.3031 17.4618 98.6853 17.5593 99.7971 18.2421ZM89.0963 18.5997C88.9921 18.7622 88.6099 18.7948 88.193 18.6972C87.6718 18.5672 87.6024 18.4371 87.915 18.2746C88.4362 17.9494 89.3395 18.2421 89.0963 18.5997ZM102.82 18.3071C102.82 18.5021 103.098 18.5672 103.48 18.4371C104.001 18.2746 104.14 18.4046 104.105 18.8923C104.07 19.3475 103.931 19.445 103.654 19.2174C103.41 19.0549 102.82 18.9898 102.299 19.1199C101.43 19.3149 101.395 19.2824 101.743 18.6322C102.16 17.9169 102.82 17.6893 102.82 18.3071ZM110.949 18.4046C110.811 18.7623 110.984 18.8273 111.922 18.6322C112.548 18.5021 113.451 18.5021 113.937 18.6322L114.806 18.8598L113.868 18.8923C113.312 18.9248 112.895 19.0874 112.895 19.2824C112.895 19.5425 112.721 19.5425 112.374 19.2499C111.957 18.9248 111.749 18.9248 111.366 19.2174C111.019 19.51 110.811 19.51 110.637 19.2499C110.394 18.8923 110.637 17.9494 110.949 17.9494C111.054 17.9494 111.054 18.1445 110.949 18.4046ZM91.0071 18.5997C91.0071 18.7622 90.9377 18.9248 90.8682 18.9248C90.764 18.9248 90.5902 18.7622 90.486 18.5997C90.3818 18.4046 90.4513 18.2746 90.625 18.2746C90.8334 18.2746 91.0071 18.4046 91.0071 18.5997ZM107.788 18.6647C108.205 18.8923 108.934 19.0224 109.421 18.9899C110.255 18.8923 110.255 18.9248 109.629 19.4125C108.761 20.0302 108.517 20.0302 108.24 19.4125C108.135 19.1524 107.649 18.9248 107.163 18.9248C106.537 18.9248 106.329 19.0549 106.502 19.315C106.676 19.5751 106.572 19.6076 106.155 19.4775C105.808 19.3475 105.46 19.2499 105.391 19.2499C104.974 19.2499 105.356 18.6322 105.877 18.5022C106.885 18.2421 107.024 18.2746 107.788 18.6647ZM115.674 18.9248C115.674 19.0874 115.501 19.2499 115.292 19.2499C115.119 19.2499 115.049 19.0874 115.153 18.9248C115.258 18.7297 115.431 18.5997 115.536 18.5997C115.605 18.5997 115.674 18.7297 115.674 18.9248ZM117.933 18.9248C117.829 19.0874 117.585 19.2499 117.377 19.2499C117.203 19.2499 117.064 19.0874 117.064 18.9248C117.064 18.7297 117.307 18.5997 117.62 18.5997C117.898 18.5997 118.037 18.7297 117.933 18.9248ZM120.191 19.445C120.191 19.51 119.878 19.445 119.496 19.2499C119.114 19.0549 118.801 18.8273 118.801 18.7297C118.801 18.6647 119.114 18.7297 119.496 18.9248C119.878 19.1199 120.191 19.3475 120.191 19.445ZM121.754 18.9248C121.859 19.0874 121.72 19.2499 121.442 19.2499C121.129 19.2499 120.886 19.0874 120.886 18.9248C120.886 18.7297 121.025 18.5997 121.199 18.5997C121.407 18.5997 121.65 18.7297 121.754 18.9248ZM123.839 18.9248C123.735 19.0874 123.422 19.1524 123.144 19.0224C122.415 18.7948 122.484 18.5997 123.353 18.5997C123.735 18.5997 123.978 18.7297 123.839 18.9248ZM112.026 19.575C112.131 19.7376 112.061 19.9002 111.888 19.9002C111.679 19.9002 111.505 19.7376 111.505 19.575C111.505 19.38 111.575 19.2499 111.644 19.2499C111.749 19.2499 111.922 19.38 112.026 19.575ZM138.084 19.575C137.979 19.7376 137.667 19.9002 137.458 19.9002C137.215 19.9002 137.25 19.7701 137.562 19.575C138.223 19.1849 138.361 19.1849 138.084 19.575ZM139.994 19.7376C139.994 19.9977 139.751 20.2253 139.473 20.2253C138.57 20.2253 138.848 19.575 139.925 19.2824C139.96 19.2499 139.994 19.4775 139.994 19.7376ZM118.628 19.9002C118.523 20.0627 118.211 20.2253 118.002 20.2253C117.759 20.2253 117.794 20.0952 118.106 19.9002C118.767 19.51 118.906 19.51 118.628 19.9002ZM121.06 20.5829C121.06 20.8105 120.747 21.0706 120.365 21.1681C119.809 21.2657 119.774 21.2006 120.122 20.8105C120.33 20.5504 120.399 20.2253 120.261 20.0627C120.122 19.9327 120.261 19.8677 120.538 19.9652C120.816 20.0627 121.06 20.3228 121.06 20.5829ZM155.629 20.2903C155.629 20.5504 155.073 20.7455 154.239 20.778C153.44 20.843 152.849 20.713 152.849 20.5179C152.849 20.3228 152.988 20.2903 153.197 20.3878C153.37 20.4854 153.822 20.4203 154.135 20.2578C155.003 19.8026 155.629 19.8352 155.629 20.2903ZM150.07 20.5504C150.07 20.713 150 20.8755 149.931 20.8755C149.827 20.8755 149.653 20.713 149.549 20.5504C149.444 20.3553 149.514 20.2253 149.688 20.2253C149.896 20.2253 150.07 20.3553 150.07 20.5504ZM152.328 21.2006C152.432 21.3632 152.293 21.5258 151.981 21.5258C151.668 21.5258 151.529 21.3632 151.633 21.2006C151.737 21.0056 151.911 20.8755 151.981 20.8755C152.05 20.8755 152.224 21.0056 152.328 21.2006ZM24.996 22.0459C24.996 22.306 24.8222 22.4361 24.6485 22.3385C24.4401 22.2085 24.3706 21.9809 24.4748 21.8184C24.7875 21.3632 24.996 21.4607 24.996 22.0459ZM23.7105 22.0785C23.4673 22.1435 23.0504 22.1435 22.8419 22.0785C22.5987 21.9809 22.7724 21.9159 23.2588 21.9159C23.7452 21.9159 23.9189 21.9809 23.7105 22.0785ZM26.5594 22.2085C26.9763 22.8262 26.3857 22.9563 25.795 22.4036C25.2391 21.8834 25.2391 21.8509 25.7603 21.8509C26.073 21.8509 26.4551 22.0134 26.5594 22.2085ZM28.5744 22.5336C28.7134 23.0538 28.6787 23.1188 28.2618 22.7937C27.7059 22.3711 27.6017 21.8509 28.0881 21.8509C28.2618 21.8509 28.4702 22.1435 28.5744 22.5336ZM20.8268 22.5011C20.8268 22.6637 20.7573 22.8262 20.6878 22.8262C20.5836 22.8262 20.4099 22.6637 20.3057 22.5011C20.2015 22.306 20.2709 22.176 20.4446 22.176C20.6531 22.176 20.8268 22.306 20.8268 22.5011ZM31.4234 22.5011C31.9098 22.7287 31.7013 22.7612 30.7285 22.5987C29.9642 22.5011 29.2693 22.3711 29.1998 22.306C28.8871 22.0459 30.7632 22.241 31.4234 22.5011ZM33.5079 22.8262C33.6121 22.9888 33.5427 23.1513 33.3689 23.1513C33.1605 23.1513 32.9868 22.9888 32.9868 22.8262C32.9868 22.6312 33.0563 22.5011 33.1257 22.5011C33.23 22.5011 33.4037 22.6312 33.5079 22.8262ZM108.205 28.6784C108.309 28.8409 108.17 29.0035 107.892 29.0035C107.579 29.0035 107.336 28.8409 107.336 28.6784C107.336 28.4833 107.475 28.3532 107.649 28.3532C107.857 28.3532 108.101 28.4833 108.205 28.6784ZM45.2509 30.7266C45.3552 30.9867 45.2162 31.1818 44.973 31.1818C44.7298 31.1818 44.5908 30.9867 44.6951 30.7266C44.7993 30.499 44.9035 30.3039 44.973 30.3039C45.0425 30.3039 45.1467 30.499 45.2509 30.7266ZM42.0199 31.1167C42.0199 31.6694 41.0471 31.767 40.2827 31.2468C39.8658 30.9867 39.9701 30.9217 40.7344 31.0517C41.2555 31.1168 41.6725 31.0517 41.6725 30.9217C41.6725 30.7591 41.7419 30.6291 41.8462 30.6291C41.9504 30.6291 42.0199 30.8566 42.0199 31.1167ZM47.8567 31.2468C48.7947 31.9946 48.8295 32.2547 47.9261 32.0271C47.5092 31.9296 47.3008 31.767 47.405 31.6695C47.4745 31.5719 47.405 31.3118 47.1966 31.0517C46.6407 30.434 46.9881 30.5315 47.8567 31.2468ZM46.7102 31.5394C46.6059 31.6369 46.328 31.5394 46.0848 31.3118C45.7721 30.9867 45.8068 30.9542 46.2932 31.1492C46.6407 31.2468 46.8144 31.4419 46.7102 31.5394ZM72.4198 32.2222C72.2113 32.3847 71.5512 31.897 71.5512 31.5719C71.5512 31.4094 71.7597 31.4419 72.0376 31.6695C72.3156 31.8971 72.4545 32.1571 72.4198 32.2222ZM50.5319 31.9295C49.5938 32.3197 49.0379 32.3197 49.6633 31.9295C49.9412 31.767 50.4276 31.6369 50.7056 31.6369C51.053 31.6369 50.9835 31.7345 50.5319 31.9295ZM63.8383 32.2222C64.2552 32.2547 64.6027 32.3847 64.6027 32.5473C64.6027 32.7098 64.1857 32.8074 63.6646 32.7748C63.1087 32.7098 62.5876 32.8074 62.4834 33.0024C62.1359 33.4576 61.4758 32.9699 61.6843 32.4497C61.7885 32.1896 62.1359 32.0271 62.4486 32.0921C62.7613 32.1571 63.3867 32.2222 63.8383 32.2222ZM69.953 32.1246C70.8564 32.4497 70.5784 32.9049 69.5014 32.9049C68.3201 32.9049 67.7643 32.3847 68.6676 32.1571C69.015 32.0596 69.3277 31.9946 69.3624 31.962C69.3972 31.962 69.6404 32.0271 69.953 32.1246ZM74.1569 32.2547C74.0527 32.4172 73.6705 32.5798 73.3578 32.5473C72.8714 32.5473 72.9062 32.4822 73.4621 32.2547C74.0874 32.0162 74.319 32.0162 74.1569 32.2547ZM67.2431 32.6448C67.4168 32.8724 67.2431 32.9374 66.7567 32.8399C66.3398 32.7424 65.9576 32.8074 65.8881 33.0024C65.7492 33.3926 64.9501 33.035 64.9501 32.5473C64.9501 32.1246 66.9304 32.1897 67.2431 32.6448ZM81.036 33.0675C81.5571 33.1325 82.2172 33.165 82.4952 33.1975C82.7731 33.1975 83.0163 33.3601 83.0163 33.4901C83.0163 33.7827 80.3759 33.7827 80.0284 33.4901C79.9242 33.3601 79.542 33.4251 79.1946 33.6202C78.7082 33.9128 78.4303 33.9128 77.9439 33.5551C77.4227 33.1 77.4227 33.0675 78.1871 32.8724C78.6387 32.7423 79.2641 32.7424 79.542 32.8399C79.82 32.9374 80.4801 33.0349 81.036 33.0675ZM103.619 32.8074C103.376 32.8724 102.959 32.8724 102.75 32.8074C102.507 32.7098 102.681 32.6448 103.167 32.6448C103.653 32.6448 103.827 32.7098 103.619 32.8074ZM113.59 34.4004C115.153 34.498 115.536 34.563 115.084 34.7255C114.841 34.8231 114.702 35.0832 114.771 35.2783C114.806 35.5059 114.806 35.5709 114.736 35.4083C114.632 35.2783 114.354 35.1807 114.076 35.1807C113.798 35.1807 113.59 35.0507 113.59 34.9207C113.59 34.7581 112.235 34.6605 110.602 34.7255C108.969 34.7581 107.718 34.6931 107.823 34.5955C107.927 34.498 108.448 34.4004 108.969 34.3679C109.525 34.3029 110.255 34.1729 110.602 34.0428C111.088 33.8477 111.193 33.8803 111.019 34.1404C110.88 34.3679 110.915 34.5305 111.088 34.5305C111.297 34.5305 111.54 34.2704 111.679 33.9453C111.888 33.4576 111.957 33.4576 112.304 33.8802C112.548 34.1403 113.104 34.4004 113.59 34.4004ZM116.717 34.2054C116.717 34.4004 116.925 34.5305 117.168 34.4655C117.412 34.4005 117.62 34.498 117.655 34.693C117.69 34.8556 117.238 35.0507 116.682 35.0832C115.605 35.1807 115.57 35.1482 115.883 34.4004C116.126 33.8152 116.717 33.6852 116.717 34.2054ZM78.1523 34.5305C78.1523 34.693 78.0829 34.8556 78.0134 34.8556C77.9091 34.8556 77.7354 34.693 77.6312 34.5305C77.527 34.3354 77.5965 34.2054 77.7702 34.2054C77.9786 34.2054 78.1523 34.3354 78.1523 34.5305ZM119.496 34.6605C119.496 34.7581 119.357 34.9206 119.149 35.0182C118.975 35.1157 118.801 35.0507 118.801 34.8881C118.801 34.693 118.975 34.5305 119.149 34.5305C119.357 34.5305 119.496 34.5955 119.496 34.6605ZM120.538 35.1807C120.538 35.3433 120.399 35.5058 120.191 35.5058C120.017 35.5058 119.844 35.3433 119.844 35.1807C119.844 34.9856 120.017 34.8556 120.191 34.8556C120.399 34.8556 120.538 34.9856 120.538 35.1807Z" fill="#F89DA8"/>
<path fill-rule="evenodd" clip-rule="evenodd" d="M44.465 12.133C44.465 12.2954 44.6387 12.4577 44.8471 12.4577C45.0209 12.4577 45.0903 12.2954 44.9861 12.133C44.8819 11.9382 44.7082 11.8083 44.6039 11.8083C44.5345 11.8083 44.465 11.9382 44.465 12.133Z" fill="#F89DA8"/>
<path fill-rule="evenodd" clip-rule="evenodd" d="M45.5071 12.1332C45.5071 12.5553 45.9241 12.7501 46.4105 12.5553C47.1401 12.2956 47.0011 11.9384 46.202 11.9384C45.8198 11.9384 45.5071 12.0358 45.5071 12.1332Z" fill="#F89DA8"/>
<path fill-rule="evenodd" clip-rule="evenodd" d="M20.6663 12.4582C20.5621 12.6205 20.6316 12.7828 20.8053 12.7828C21.0138 12.7828 21.1875 12.6205 21.1875 12.4582C21.1875 12.2634 21.118 12.1335 21.0485 12.1335C20.9443 12.1335 20.7706 12.2634 20.6663 12.4582Z" fill="#F89DA8"/>
<path fill-rule="evenodd" clip-rule="evenodd" d="M26.2598 12.6212C26.3988 12.8813 26.7809 13.1088 27.1284 13.1088C27.4758 13.1088 27.7885 12.8813 27.7885 12.6212C27.7885 12.3286 27.4758 12.1335 26.9199 12.1335C26.2946 12.1335 26.1208 12.2635 26.2598 12.6212Z" fill="#F89DA8"/>
<path fill-rule="evenodd" clip-rule="evenodd" d="M50.927 12.5562C51.0312 12.8813 51.2397 13.0438 51.3439 12.9463C51.4481 12.8488 51.3439 12.5887 51.1007 12.3611C50.7533 12.0685 50.7186 12.101 50.927 12.5562Z" fill="#F89DA8"/>
<path fill-rule="evenodd" clip-rule="evenodd" d="M64.6158 12.4906C64.6158 12.653 64.7895 12.7179 64.9632 12.6205C65.1717 12.5231 65.3106 12.3608 65.3106 12.2634C65.3106 12.1984 65.1717 12.1335 64.9632 12.1335C64.7895 12.1335 64.6158 12.2958 64.6158 12.4906Z" fill="#F89DA8"/>
<path fill-rule="evenodd" clip-rule="evenodd" d="M19.4502 12.8157C19.4502 12.9781 19.6239 13.043 19.7976 12.9456C20.0061 12.8482 20.1451 12.6859 20.1451 12.5885C20.1451 12.5236 20.0061 12.4586 19.7976 12.4586C19.6239 12.4586 19.4502 12.6209 19.4502 12.8157Z" fill="#F89DA8"/>
<path fill-rule="evenodd" clip-rule="evenodd" d="M21.6738 12.8485C21.3263 13.3355 21.6738 13.4328 22.7855 13.1406C23.3414 12.9783 23.6541 12.816 23.4457 12.7835C23.2719 12.751 22.8203 12.6861 22.5076 12.6212C22.1602 12.5562 21.778 12.6537 21.6738 12.8485Z" fill="#F89DA8"/>
<path fill-rule="evenodd" clip-rule="evenodd" d="M28.3442 13.0114C28.1357 13.4665 28.1705 13.499 28.5179 13.2064C28.7611 12.9788 28.8653 12.7187 28.7611 12.6212C28.6569 12.5237 28.4484 12.6862 28.3442 13.0114Z" fill="#F89DA8"/>
<path fill-rule="evenodd" clip-rule="evenodd" d="M73.9268 12.6863C73.5793 12.7513 73.3014 12.9463 73.3014 13.1089C73.3014 13.2389 73.6141 13.304 73.9962 13.2064C74.3784 13.1089 74.6911 12.9138 74.6911 12.7513C74.6911 12.5887 74.6564 12.4911 74.6216 12.4911C74.5521 12.5237 74.2394 12.5887 73.9268 12.6863Z" fill="#F89DA8"/>
<path fill-rule="evenodd" clip-rule="evenodd" d="M65.3105 13.1086C65.3105 13.3034 65.5537 13.4333 65.8317 13.4333C66.1096 13.4333 66.3528 13.3684 66.3528 13.3034C66.3528 13.2385 66.1096 13.1086 65.8317 12.9787C65.5537 12.8813 65.3105 12.9463 65.3105 13.1086Z" fill="#F89DA8"/>
<path fill-rule="evenodd" clip-rule="evenodd" d="M86.33 13.1088C85.392 13.3039 85.3572 13.3364 86.0174 13.5315C86.4343 13.6616 86.9901 13.6941 87.2681 13.5965C87.5808 13.4665 87.8934 13.629 87.9977 13.8891C88.3104 14.6044 89.1789 14.5394 89.3874 13.7916C89.4916 13.3689 89.4221 13.2064 89.1094 13.3365C88.8315 13.4015 88.3451 13.3364 87.9977 13.2064C87.6502 13.0438 86.9206 12.9788 86.33 13.1088Z" fill="#F89DA8"/>
<path fill-rule="evenodd" clip-rule="evenodd" d="M90.499 13.4336C90.3948 13.5959 90.5337 13.7582 90.8464 13.7582C91.1591 13.7582 91.2981 13.5959 91.1939 13.4336C91.0896 13.2388 90.9159 13.1089 90.8464 13.1089C90.7769 13.1089 90.6032 13.2388 90.499 13.4336Z" fill="#F89DA8"/>
<path fill-rule="evenodd" clip-rule="evenodd" d="M82.6821 13.7586C82.4041 13.921 82.3346 14.0833 82.5083 14.0833C82.7168 14.0833 83.099 13.921 83.3769 13.7586C83.6549 13.5963 83.7591 13.434 83.5506 13.434C83.3769 13.434 82.96 13.5963 82.6821 13.7586Z" fill="#F89DA8"/>
<path fill-rule="evenodd" clip-rule="evenodd" d="M92.4099 13.6937C92.4099 13.856 92.6531 13.9859 92.9311 13.9859C93.209 13.9859 93.4522 13.856 93.4522 13.6937C93.4522 13.5638 93.209 13.434 92.9311 13.434C92.6531 13.434 92.4099 13.5638 92.4099 13.6937Z" fill="#F89DA8"/>
<path fill-rule="evenodd" clip-rule="evenodd" d="M94.4249 14.1167C93.9037 14.6369 93.9037 14.702 94.7376 14.897C95.6409 15.0921 96.4052 14.767 95.6061 14.5069C95.3977 14.4094 95.2587 14.2143 95.3629 14.0842C95.7451 13.5315 95.0155 13.564 94.4249 14.1167Z" fill="#F89DA8"/>
<path fill-rule="evenodd" clip-rule="evenodd" d="M90.8465 14.4089C90.7422 14.5712 90.8812 14.7336 91.1939 14.7336C91.5066 14.7336 91.6456 14.5712 91.5413 14.4089C91.4371 14.2141 91.2634 14.0842 91.1939 14.0842C91.1244 14.0842 90.9507 14.2141 90.8465 14.4089Z" fill="#F89DA8"/>
<path fill-rule="evenodd" clip-rule="evenodd" d="M99.011 14.7019C99.011 14.897 99.15 15.1246 99.3585 15.2221C99.5669 15.3196 99.6017 15.1896 99.4975 14.9295C99.2543 14.3443 99.011 14.2468 99.011 14.7019Z" fill="#F89DA8"/>
<path fill-rule="evenodd" clip-rule="evenodd" d="M100.991 14.9945C101.096 15.4822 101.513 15.6773 102.52 15.7748C104.57 15.9374 104.084 15.027 101.895 14.6044C100.922 14.4093 100.818 14.4418 100.991 14.9945Z" fill="#F89DA8"/>
<path fill-rule="evenodd" clip-rule="evenodd" d="M105.126 15.0921C105.23 15.2871 105.126 15.5797 104.883 15.7423C104.535 15.9374 104.605 16.0349 105.195 16.0349C105.716 16.0349 105.96 15.8398 105.96 15.3847C105.96 15.027 105.716 14.7344 105.404 14.7344C105.126 14.7344 104.987 14.897 105.126 15.0921Z" fill="#F89DA8"/>
<path fill-rule="evenodd" clip-rule="evenodd" d="M106.307 15.0271C106.307 15.4172 107.315 15.7748 107.766 15.5148C107.975 15.3847 107.94 15.1896 107.662 15.0271C107.037 14.6694 106.307 14.6694 106.307 15.0271Z" fill="#F89DA8"/>
<path fill-rule="evenodd" clip-rule="evenodd" d="M108.6 15.4172C108.218 15.7748 108.044 16.1325 108.148 16.2625C108.287 16.3601 108.391 16.295 108.391 16.1C108.391 15.8724 108.565 15.7098 108.739 15.7098C108.947 15.7098 109.052 15.9049 109.017 16.1C108.947 16.3276 109.295 16.5551 109.746 16.6202C110.302 16.7177 110.476 16.6201 110.302 16.3275C110.094 16.0349 110.268 16.0024 110.928 16.165C111.414 16.2625 111.935 16.23 112.039 16.0349C112.144 15.8724 112.422 15.7098 112.595 15.7098C112.804 15.7098 112.873 15.8399 112.769 15.9699C112.526 16.3275 114.228 17.2054 114.541 16.9128C114.645 16.7827 114.506 16.6852 114.194 16.6852C113.881 16.6852 113.464 16.4251 113.29 16.1C113.047 15.6448 112.491 15.4822 111.31 15.4172C110.372 15.3847 109.573 15.2546 109.434 15.0921C109.33 14.962 108.947 15.0921 108.6 15.4172Z" fill="#F89DA8"/>
<path fill-rule="evenodd" clip-rule="evenodd" d="M44.1174 37.8504C44.1174 38.0129 44.2912 38.078 44.4996 37.9479C44.7081 37.8504 45.0208 37.9479 45.1945 38.1755C45.4377 38.5331 45.5071 38.5006 45.5071 38.0455C45.5071 37.7203 45.2292 37.4927 44.8123 37.4927C44.4301 37.4927 44.1174 37.6553 44.1174 37.8504Z" fill="#F89DA8"/>
<path fill-rule="evenodd" clip-rule="evenodd" d="M151.82 39.5735C152.133 39.9311 152.376 40.0286 152.445 39.8011C152.515 39.606 152.723 39.5085 152.897 39.6385C153.071 39.736 153.87 39.8661 154.669 39.9311C156.893 40.1262 155.746 39.5085 153.383 39.2484C151.403 39.0208 151.334 39.0533 151.82 39.5735Z" fill="#F89DA8"/>
<path fill-rule="evenodd" clip-rule="evenodd" d="M81.4661 40.3863C81.5703 40.5814 81.1882 40.6464 80.4586 40.5164C79.8332 40.4188 79.2078 40.4838 79.0689 40.6789C78.9646 40.874 79.5205 41.004 80.5975 40.9715C82.022 40.9715 82.2652 40.874 81.9525 40.5164C81.5009 40.0287 81.1534 39.9311 81.4661 40.3863Z" fill="#F89DA8"/>
<path fill-rule="evenodd" clip-rule="evenodd" d="M99.011 40.7114C99.011 40.9065 99.3237 41.069 99.7407 41.069C100.123 41.069 100.331 41.1991 100.227 41.3941C100.123 41.5567 100.158 41.7192 100.366 41.7192C100.54 41.7192 100.818 41.5567 100.922 41.3941C101.026 41.1991 101.304 41.069 101.478 41.069C101.686 41.069 101.721 41.1991 101.617 41.3941C101.304 41.8818 101.756 41.7843 102.312 41.2966C102.694 40.9065 102.555 40.8414 101.547 40.8089C100.852 40.7764 100.019 40.6789 99.6712 40.5813C99.289 40.4513 99.011 40.5163 99.011 40.7114Z" fill="#F89DA8"/>
<path fill-rule="evenodd" clip-rule="evenodd" d="M111.171 41.3941C111.171 41.7843 111.414 42.0444 111.796 42.0444C112.317 42.0444 112.317 41.9794 111.866 41.6867C111.449 41.4267 111.518 41.3942 112.179 41.4592C112.7 41.5242 113.082 41.3616 113.151 41.069C113.29 40.6789 113.256 40.6789 112.978 41.0365C112.734 41.3291 112.561 41.3616 112.422 41.1015C112.005 40.5163 111.171 40.7114 111.171 41.3941Z" fill="#F89DA8"/>
<path fill-rule="evenodd" clip-rule="evenodd" d="M93.2784 41.3937C93.3827 41.556 93.7301 41.7184 94.0081 41.7184C94.286 41.7184 94.4944 41.556 94.4944 41.3937C94.4944 41.1989 94.1818 41.069 93.7649 41.069C93.3827 41.069 93.1742 41.1989 93.2784 41.3937Z" fill="#F89DA8"/>
<path fill-rule="evenodd" clip-rule="evenodd" d="M133.163 41.3617C132.503 41.8168 132.85 42.207 133.962 42.272C134.761 42.337 135.143 42.2395 135.143 41.9143C135.143 41.4592 133.649 41.0365 133.163 41.3617Z" fill="#F89DA8"/>
<path fill-rule="evenodd" clip-rule="evenodd" d="M103.006 41.7188C103.111 41.8812 103.493 42.0435 103.806 42.0435C104.327 42.0435 104.327 41.9786 103.875 41.7188C103.18 41.2968 102.729 41.2968 103.006 41.7188Z" fill="#F89DA8"/>
<path fill-rule="evenodd" clip-rule="evenodd" d="M131.148 41.7188C131.044 41.8812 131.113 42.0435 131.287 42.0435C131.496 42.0435 131.669 41.8812 131.669 41.7188C131.669 41.524 131.6 41.3942 131.53 41.3942C131.426 41.3942 131.252 41.524 131.148 41.7188Z" fill="#F89DA8"/>
</svg>
